%TF.GenerationSoftware,KiCad,Pcbnew,(6.0.4)*%
%TF.CreationDate,2023-05-02T15:22:56-04:00*%
%TF.ProjectId,Tomogatchi PCB,546f6d6f-6761-4746-9368-69205043422e,rev?*%
%TF.SameCoordinates,Original*%
%TF.FileFunction,Legend,Top*%
%TF.FilePolarity,Positive*%
%FSLAX46Y46*%
G04 Gerber Fmt 4.6, Leading zero omitted, Abs format (unit mm)*
G04 Created by KiCad (PCBNEW (6.0.4)) date 2023-05-02 15:22:56*
%MOMM*%
%LPD*%
G01*
G04 APERTURE LIST*
%ADD10C,0.150000*%
%ADD11C,0.120000*%
G04 APERTURE END LIST*
D10*
X68375000Y-128000000D02*
X50750000Y-128000000D01*
X131250000Y-46750000D02*
X104000000Y-46700000D01*
X85040000Y-104199999D02*
X85000000Y-95750000D01*
X65500000Y-101250000D02*
X76000000Y-101250000D01*
X76000000Y-101250000D02*
X76000000Y-104250000D01*
X76000000Y-104250000D02*
X65500000Y-104250000D01*
X65500000Y-104250000D02*
X65500000Y-101250000D01*
X62000000Y-85500000D02*
X62000000Y-104250000D01*
X33250000Y-38750000D02*
X62000000Y-38750000D01*
X82750000Y-95750000D02*
X82750000Y-82250000D01*
X62000000Y-83250000D02*
X33250000Y-83250000D01*
X103993108Y-46734323D02*
X116993108Y-46734323D01*
X116993108Y-46734323D02*
X116993108Y-64734323D01*
X116993108Y-64734323D02*
X103993108Y-64734323D01*
X103993108Y-64734323D02*
X103993108Y-46734323D01*
X85000000Y-82250000D02*
X85000000Y-95750000D01*
X33500000Y-121500000D02*
X33500000Y-166000000D01*
X65500000Y-96250000D02*
X76000000Y-96250000D01*
X76000000Y-96250000D02*
X76000000Y-99250000D01*
X76000000Y-99250000D02*
X65500000Y-99250000D01*
X65500000Y-99250000D02*
X65500000Y-96250000D01*
X33250000Y-85500000D02*
X33250000Y-83250000D01*
X82750000Y-82250000D02*
X85000000Y-82250000D01*
X33250000Y-83250000D02*
X33250000Y-56000000D01*
X33250000Y-85500000D02*
X33250000Y-104250000D01*
X72500000Y-99250000D02*
X72500000Y-96250000D01*
X50750000Y-128000000D02*
X50750000Y-121500000D01*
X117000000Y-64700000D02*
X131330000Y-64680000D01*
X98500000Y-107000000D02*
X75500000Y-107000000D01*
X75500000Y-107000000D02*
X75500000Y-117250000D01*
X75500000Y-117250000D02*
X98500000Y-117250000D01*
X98500000Y-117250000D02*
X98500000Y-107000000D01*
X33500000Y-166000000D02*
X132000000Y-166000000D01*
X62000000Y-82250000D02*
X62000000Y-85500000D01*
X78250000Y-99000000D02*
X83250000Y-99000000D01*
X83250000Y-99000000D02*
X83250000Y-101500000D01*
X83250000Y-101500000D02*
X78250000Y-101500000D01*
X78250000Y-101500000D02*
X78250000Y-99000000D01*
X62000000Y-38750000D02*
X62000000Y-56000000D01*
X131330000Y-64680000D02*
X131250000Y-46750000D01*
X85000000Y-95750000D02*
X82750000Y-95750000D01*
X50750000Y-146750000D02*
X33500000Y-146750000D01*
X50750000Y-128000000D02*
X50750000Y-146750000D01*
X62000000Y-85500000D02*
X33250000Y-85500000D01*
X33250000Y-56000000D02*
X33250000Y-38750000D01*
X82750000Y-82250000D02*
X62000000Y-82250000D01*
X132000000Y-166000000D02*
X132000000Y-128000000D01*
X132000000Y-128000000D02*
X68375000Y-128000000D01*
X131276825Y-64557604D02*
X119276825Y-64557604D01*
X119276825Y-64557604D02*
X119276825Y-49307604D01*
X119276825Y-49307604D02*
X131276825Y-49307604D01*
X131276825Y-49307604D02*
X131276825Y-64557604D01*
X50750000Y-121500000D02*
X33500000Y-121500000D01*
X62000000Y-56000000D02*
X62000000Y-83250000D01*
X33250000Y-56000000D02*
X62000000Y-56000000D01*
X33250000Y-104250000D02*
X85040000Y-104199999D01*
X72500000Y-104250000D02*
X72500000Y-101250000D01*
X60380952Y-116071428D02*
X59619047Y-116071428D01*
X60000000Y-116452380D02*
X60000000Y-115690476D01*
X49607142Y-74654761D02*
X49750000Y-74702380D01*
X49988095Y-74702380D01*
X50083333Y-74654761D01*
X50130952Y-74607142D01*
X50178571Y-74511904D01*
X50178571Y-74416666D01*
X50130952Y-74321428D01*
X50083333Y-74273809D01*
X49988095Y-74226190D01*
X49797619Y-74178571D01*
X49702380Y-74130952D01*
X49654761Y-74083333D01*
X49607142Y-73988095D01*
X49607142Y-73892857D01*
X49654761Y-73797619D01*
X49702380Y-73750000D01*
X49797619Y-73702380D01*
X50035714Y-73702380D01*
X50178571Y-73750000D01*
X50607142Y-74702380D02*
X50607142Y-73702380D01*
X50988095Y-73702380D01*
X51083333Y-73750000D01*
X51130952Y-73797619D01*
X51178571Y-73892857D01*
X51178571Y-74035714D01*
X51130952Y-74130952D01*
X51083333Y-74178571D01*
X50988095Y-74226190D01*
X50607142Y-74226190D01*
X51607142Y-74702380D02*
X51607142Y-73702380D01*
X52845238Y-74702380D02*
X52845238Y-73702380D01*
X53178571Y-74416666D01*
X53511904Y-73702380D01*
X53511904Y-74702380D01*
X53988095Y-74702380D02*
X53988095Y-74035714D01*
X53988095Y-73702380D02*
X53940476Y-73750000D01*
X53988095Y-73797619D01*
X54035714Y-73750000D01*
X53988095Y-73702380D01*
X53988095Y-73797619D01*
X54416666Y-74654761D02*
X54559523Y-74702380D01*
X54797619Y-74702380D01*
X54892857Y-74654761D01*
X54940476Y-74607142D01*
X54988095Y-74511904D01*
X54988095Y-74416666D01*
X54940476Y-74321428D01*
X54892857Y-74273809D01*
X54797619Y-74226190D01*
X54607142Y-74178571D01*
X54511904Y-74130952D01*
X54464285Y-74083333D01*
X54416666Y-73988095D01*
X54416666Y-73892857D01*
X54464285Y-73797619D01*
X54511904Y-73750000D01*
X54607142Y-73702380D01*
X54845238Y-73702380D01*
X54988095Y-73750000D01*
X55559523Y-74702380D02*
X55464285Y-74654761D01*
X55416666Y-74607142D01*
X55369047Y-74511904D01*
X55369047Y-74226190D01*
X55416666Y-74130952D01*
X55464285Y-74083333D01*
X55559523Y-74035714D01*
X55702380Y-74035714D01*
X55797619Y-74083333D01*
X55845238Y-74130952D01*
X55892857Y-74226190D01*
X55892857Y-74511904D01*
X55845238Y-74607142D01*
X55797619Y-74654761D01*
X55702380Y-74702380D01*
X55559523Y-74702380D01*
X49821428Y-68702380D02*
X49821428Y-69511904D01*
X49869047Y-69607142D01*
X49916666Y-69654761D01*
X50011904Y-69702380D01*
X50202380Y-69702380D01*
X50297619Y-69654761D01*
X50345238Y-69607142D01*
X50392857Y-69511904D01*
X50392857Y-68702380D01*
X50821428Y-69416666D02*
X51297619Y-69416666D01*
X50726190Y-69702380D02*
X51059523Y-68702380D01*
X51392857Y-69702380D01*
X52297619Y-69702380D02*
X51964285Y-69226190D01*
X51726190Y-69702380D02*
X51726190Y-68702380D01*
X52107142Y-68702380D01*
X52202380Y-68750000D01*
X52250000Y-68797619D01*
X52297619Y-68892857D01*
X52297619Y-69035714D01*
X52250000Y-69130952D01*
X52202380Y-69178571D01*
X52107142Y-69226190D01*
X51726190Y-69226190D01*
X52583333Y-68702380D02*
X53154761Y-68702380D01*
X52869047Y-69702380D02*
X52869047Y-68702380D01*
X53440476Y-68797619D02*
X53488095Y-68750000D01*
X53583333Y-68702380D01*
X53821428Y-68702380D01*
X53916666Y-68750000D01*
X53964285Y-68797619D01*
X54011904Y-68892857D01*
X54011904Y-68988095D01*
X53964285Y-69130952D01*
X53392857Y-69702380D01*
X54011904Y-69702380D01*
X55773809Y-69702380D02*
X55440476Y-69226190D01*
X55202380Y-69702380D02*
X55202380Y-68702380D01*
X55583333Y-68702380D01*
X55678571Y-68750000D01*
X55726190Y-68797619D01*
X55773809Y-68892857D01*
X55773809Y-69035714D01*
X55726190Y-69130952D01*
X55678571Y-69178571D01*
X55583333Y-69226190D01*
X55202380Y-69226190D01*
X56107142Y-68702380D02*
X56773809Y-69702380D01*
X56773809Y-68702380D02*
X56107142Y-69702380D01*
X125075025Y-58701980D02*
X125217882Y-58749599D01*
X125455978Y-58749599D01*
X125551216Y-58701980D01*
X125598835Y-58654361D01*
X125646454Y-58559123D01*
X125646454Y-58463885D01*
X125598835Y-58368647D01*
X125551216Y-58321028D01*
X125455978Y-58273409D01*
X125265502Y-58225790D01*
X125170263Y-58178171D01*
X125122644Y-58130552D01*
X125075025Y-58035314D01*
X125075025Y-57940076D01*
X125122644Y-57844838D01*
X125170263Y-57797219D01*
X125265502Y-57749599D01*
X125503597Y-57749599D01*
X125646454Y-57797219D01*
X126646454Y-58654361D02*
X126598835Y-58701980D01*
X126455978Y-58749599D01*
X126360740Y-58749599D01*
X126217882Y-58701980D01*
X126122644Y-58606742D01*
X126075025Y-58511504D01*
X126027406Y-58321028D01*
X126027406Y-58178171D01*
X126075025Y-57987695D01*
X126122644Y-57892457D01*
X126217882Y-57797219D01*
X126360740Y-57749599D01*
X126455978Y-57749599D01*
X126598835Y-57797219D01*
X126646454Y-57844838D01*
X127551216Y-58749599D02*
X127075025Y-58749599D01*
X127075025Y-57749599D01*
X78630952Y-68952380D02*
X78630952Y-69666666D01*
X78583333Y-69809523D01*
X78488095Y-69904761D01*
X78345238Y-69952380D01*
X78250000Y-69952380D01*
X79583333Y-69952380D02*
X79107142Y-69952380D01*
X79107142Y-68952380D01*
X80488095Y-69857142D02*
X80440476Y-69904761D01*
X80297619Y-69952380D01*
X80202380Y-69952380D01*
X80059523Y-69904761D01*
X79964285Y-69809523D01*
X79916666Y-69714285D01*
X79869047Y-69523809D01*
X79869047Y-69380952D01*
X79916666Y-69190476D01*
X79964285Y-69095238D01*
X80059523Y-69000000D01*
X80202380Y-68952380D01*
X80297619Y-68952380D01*
X80440476Y-69000000D01*
X80488095Y-69047619D01*
X81202380Y-68952380D02*
X81202380Y-69666666D01*
X81154761Y-69809523D01*
X81059523Y-69904761D01*
X80916666Y-69952380D01*
X80821428Y-69952380D01*
X82154761Y-69952380D02*
X81678571Y-69952380D01*
X81678571Y-68952380D01*
X83059523Y-69857142D02*
X83011904Y-69904761D01*
X82869047Y-69952380D01*
X82773809Y-69952380D01*
X82630952Y-69904761D01*
X82535714Y-69809523D01*
X82488095Y-69714285D01*
X82440476Y-69523809D01*
X82440476Y-69380952D01*
X82488095Y-69190476D01*
X82535714Y-69095238D01*
X82630952Y-69000000D01*
X82773809Y-68952380D01*
X82869047Y-68952380D01*
X83011904Y-69000000D01*
X83059523Y-69047619D01*
X83773809Y-68952380D02*
X83773809Y-69666666D01*
X83726190Y-69809523D01*
X83630952Y-69904761D01*
X83488095Y-69952380D01*
X83392857Y-69952380D01*
X84726190Y-69952380D02*
X84250000Y-69952380D01*
X84250000Y-68952380D01*
X85630952Y-69857142D02*
X85583333Y-69904761D01*
X85440476Y-69952380D01*
X85345238Y-69952380D01*
X85202380Y-69904761D01*
X85107142Y-69809523D01*
X85059523Y-69714285D01*
X85011904Y-69523809D01*
X85011904Y-69380952D01*
X85059523Y-69190476D01*
X85107142Y-69095238D01*
X85202380Y-69000000D01*
X85345238Y-68952380D01*
X85440476Y-68952380D01*
X85583333Y-69000000D01*
X85630952Y-69047619D01*
X86345238Y-68952380D02*
X86345238Y-69666666D01*
X86297619Y-69809523D01*
X86202380Y-69904761D01*
X86059523Y-69952380D01*
X85964285Y-69952380D01*
X87297619Y-69952380D02*
X86821428Y-69952380D01*
X86821428Y-68952380D01*
X88202380Y-69857142D02*
X88154761Y-69904761D01*
X88011904Y-69952380D01*
X87916666Y-69952380D01*
X87773809Y-69904761D01*
X87678571Y-69809523D01*
X87630952Y-69714285D01*
X87583333Y-69523809D01*
X87583333Y-69380952D01*
X87630952Y-69190476D01*
X87678571Y-69095238D01*
X87773809Y-69000000D01*
X87916666Y-68952380D01*
X88011904Y-68952380D01*
X88154761Y-69000000D01*
X88202380Y-69047619D01*
X38416666Y-76500000D02*
X38321428Y-76452380D01*
X38178571Y-76452380D01*
X38035714Y-76500000D01*
X37940476Y-76595238D01*
X37892857Y-76690476D01*
X37845238Y-76880952D01*
X37845238Y-77023809D01*
X37892857Y-77214285D01*
X37940476Y-77309523D01*
X38035714Y-77404761D01*
X38178571Y-77452380D01*
X38273809Y-77452380D01*
X38416666Y-77404761D01*
X38464285Y-77357142D01*
X38464285Y-77023809D01*
X38273809Y-77023809D01*
X38892857Y-77452380D02*
X38892857Y-76452380D01*
X39273809Y-76452380D01*
X39369047Y-76500000D01*
X39416666Y-76547619D01*
X39464285Y-76642857D01*
X39464285Y-76785714D01*
X39416666Y-76880952D01*
X39369047Y-76928571D01*
X39273809Y-76976190D01*
X38892857Y-76976190D01*
X39892857Y-77452380D02*
X39892857Y-76452380D01*
X40559523Y-76452380D02*
X40750000Y-76452380D01*
X40845238Y-76500000D01*
X40940476Y-76595238D01*
X40988095Y-76785714D01*
X40988095Y-77119047D01*
X40940476Y-77309523D01*
X40845238Y-77404761D01*
X40750000Y-77452380D01*
X40559523Y-77452380D01*
X40464285Y-77404761D01*
X40369047Y-77309523D01*
X40321428Y-77119047D01*
X40321428Y-76785714D01*
X40369047Y-76595238D01*
X40464285Y-76500000D01*
X40559523Y-76452380D01*
X42702380Y-77452380D02*
X42130952Y-77452380D01*
X42416666Y-77452380D02*
X42416666Y-76452380D01*
X42321428Y-76595238D01*
X42226190Y-76690476D01*
X42130952Y-76738095D01*
X43083333Y-76547619D02*
X43130952Y-76500000D01*
X43226190Y-76452380D01*
X43464285Y-76452380D01*
X43559523Y-76500000D01*
X43607142Y-76547619D01*
X43654761Y-76642857D01*
X43654761Y-76738095D01*
X43607142Y-76880952D01*
X43035714Y-77452380D01*
X43654761Y-77452380D01*
X49690476Y-66202380D02*
X49690476Y-67011904D01*
X49738095Y-67107142D01*
X49785714Y-67154761D01*
X49880952Y-67202380D01*
X50071428Y-67202380D01*
X50166666Y-67154761D01*
X50214285Y-67107142D01*
X50261904Y-67011904D01*
X50261904Y-66202380D01*
X50690476Y-66916666D02*
X51166666Y-66916666D01*
X50595238Y-67202380D02*
X50928571Y-66202380D01*
X51261904Y-67202380D01*
X52166666Y-67202380D02*
X51833333Y-66726190D01*
X51595238Y-67202380D02*
X51595238Y-66202380D01*
X51976190Y-66202380D01*
X52071428Y-66250000D01*
X52119047Y-66297619D01*
X52166666Y-66392857D01*
X52166666Y-66535714D01*
X52119047Y-66630952D01*
X52071428Y-66678571D01*
X51976190Y-66726190D01*
X51595238Y-66726190D01*
X52452380Y-66202380D02*
X53023809Y-66202380D01*
X52738095Y-67202380D02*
X52738095Y-66202380D01*
X53309523Y-66297619D02*
X53357142Y-66250000D01*
X53452380Y-66202380D01*
X53690476Y-66202380D01*
X53785714Y-66250000D01*
X53833333Y-66297619D01*
X53880952Y-66392857D01*
X53880952Y-66488095D01*
X53833333Y-66630952D01*
X53261904Y-67202380D01*
X53880952Y-67202380D01*
X54928571Y-66202380D02*
X55500000Y-66202380D01*
X55214285Y-67202380D02*
X55214285Y-66202380D01*
X55738095Y-66202380D02*
X56404761Y-67202380D01*
X56404761Y-66202380D02*
X55738095Y-67202380D01*
X111261904Y-60402380D02*
X111880952Y-60402380D01*
X111547619Y-60783333D01*
X111690476Y-60783333D01*
X111785714Y-60830952D01*
X111833333Y-60878571D01*
X111880952Y-60973809D01*
X111880952Y-61211904D01*
X111833333Y-61307142D01*
X111785714Y-61354761D01*
X111690476Y-61402380D01*
X111404761Y-61402380D01*
X111309523Y-61354761D01*
X111261904Y-61307142D01*
X112166666Y-60402380D02*
X112500000Y-61402380D01*
X112833333Y-60402380D01*
X113071428Y-60402380D02*
X113690476Y-60402380D01*
X113357142Y-60783333D01*
X113500000Y-60783333D01*
X113595238Y-60830952D01*
X113642857Y-60878571D01*
X113690476Y-60973809D01*
X113690476Y-61211904D01*
X113642857Y-61307142D01*
X113595238Y-61354761D01*
X113500000Y-61402380D01*
X113214285Y-61402380D01*
X113119047Y-61354761D01*
X113071428Y-61307142D01*
X33416666Y-167452380D02*
X33416666Y-166452380D01*
X33654761Y-166452380D01*
X33797619Y-166500000D01*
X33892857Y-166595238D01*
X33940476Y-166690476D01*
X33988095Y-166880952D01*
X33988095Y-167023809D01*
X33940476Y-167214285D01*
X33892857Y-167309523D01*
X33797619Y-167404761D01*
X33654761Y-167452380D01*
X33416666Y-167452380D01*
X34797619Y-167404761D02*
X34702380Y-167452380D01*
X34511904Y-167452380D01*
X34416666Y-167404761D01*
X34369047Y-167309523D01*
X34369047Y-166928571D01*
X34416666Y-166833333D01*
X34511904Y-166785714D01*
X34702380Y-166785714D01*
X34797619Y-166833333D01*
X34845238Y-166928571D01*
X34845238Y-167023809D01*
X34369047Y-167119047D01*
X35226190Y-167404761D02*
X35321428Y-167452380D01*
X35511904Y-167452380D01*
X35607142Y-167404761D01*
X35654761Y-167309523D01*
X35654761Y-167261904D01*
X35607142Y-167166666D01*
X35511904Y-167119047D01*
X35369047Y-167119047D01*
X35273809Y-167071428D01*
X35226190Y-166976190D01*
X35226190Y-166928571D01*
X35273809Y-166833333D01*
X35369047Y-166785714D01*
X35511904Y-166785714D01*
X35607142Y-166833333D01*
X36083333Y-167452380D02*
X36083333Y-166785714D01*
X36083333Y-166452380D02*
X36035714Y-166500000D01*
X36083333Y-166547619D01*
X36130952Y-166500000D01*
X36083333Y-166452380D01*
X36083333Y-166547619D01*
X36988095Y-166785714D02*
X36988095Y-167595238D01*
X36940476Y-167690476D01*
X36892857Y-167738095D01*
X36797619Y-167785714D01*
X36654761Y-167785714D01*
X36559523Y-167738095D01*
X36988095Y-167404761D02*
X36892857Y-167452380D01*
X36702380Y-167452380D01*
X36607142Y-167404761D01*
X36559523Y-167357142D01*
X36511904Y-167261904D01*
X36511904Y-166976190D01*
X36559523Y-166880952D01*
X36607142Y-166833333D01*
X36702380Y-166785714D01*
X36892857Y-166785714D01*
X36988095Y-166833333D01*
X37464285Y-166785714D02*
X37464285Y-167452380D01*
X37464285Y-166880952D02*
X37511904Y-166833333D01*
X37607142Y-166785714D01*
X37750000Y-166785714D01*
X37845238Y-166833333D01*
X37892857Y-166928571D01*
X37892857Y-167452380D01*
X38750000Y-167404761D02*
X38654761Y-167452380D01*
X38464285Y-167452380D01*
X38369047Y-167404761D01*
X38321428Y-167309523D01*
X38321428Y-166928571D01*
X38369047Y-166833333D01*
X38464285Y-166785714D01*
X38654761Y-166785714D01*
X38750000Y-166833333D01*
X38797619Y-166928571D01*
X38797619Y-167023809D01*
X38321428Y-167119047D01*
X39654761Y-167452380D02*
X39654761Y-166452380D01*
X39654761Y-167404761D02*
X39559523Y-167452380D01*
X39369047Y-167452380D01*
X39273809Y-167404761D01*
X39226190Y-167357142D01*
X39178571Y-167261904D01*
X39178571Y-166976190D01*
X39226190Y-166880952D01*
X39273809Y-166833333D01*
X39369047Y-166785714D01*
X39559523Y-166785714D01*
X39654761Y-166833333D01*
X40892857Y-167452380D02*
X40892857Y-166452380D01*
X40892857Y-166833333D02*
X40988095Y-166785714D01*
X41178571Y-166785714D01*
X41273809Y-166833333D01*
X41321428Y-166880952D01*
X41369047Y-166976190D01*
X41369047Y-167261904D01*
X41321428Y-167357142D01*
X41273809Y-167404761D01*
X41178571Y-167452380D01*
X40988095Y-167452380D01*
X40892857Y-167404761D01*
X41702380Y-166785714D02*
X41940476Y-167452380D01*
X42178571Y-166785714D02*
X41940476Y-167452380D01*
X41845238Y-167690476D01*
X41797619Y-167738095D01*
X41702380Y-167785714D01*
X43178571Y-166452380D02*
X43750000Y-166452380D01*
X43464285Y-167452380D02*
X43464285Y-166452380D01*
X44464285Y-167404761D02*
X44369047Y-167452380D01*
X44178571Y-167452380D01*
X44083333Y-167404761D01*
X44035714Y-167309523D01*
X44035714Y-166928571D01*
X44083333Y-166833333D01*
X44178571Y-166785714D01*
X44369047Y-166785714D01*
X44464285Y-166833333D01*
X44511904Y-166928571D01*
X44511904Y-167023809D01*
X44035714Y-167119047D01*
X45321428Y-167404761D02*
X45226190Y-167452380D01*
X45035714Y-167452380D01*
X44940476Y-167404761D01*
X44892857Y-167309523D01*
X44892857Y-166928571D01*
X44940476Y-166833333D01*
X45035714Y-166785714D01*
X45226190Y-166785714D01*
X45321428Y-166833333D01*
X45369047Y-166928571D01*
X45369047Y-167023809D01*
X44892857Y-167119047D01*
X46226190Y-166785714D02*
X46226190Y-167595238D01*
X46178571Y-167690476D01*
X46130952Y-167738095D01*
X46035714Y-167785714D01*
X45892857Y-167785714D01*
X45797619Y-167738095D01*
X46226190Y-167404761D02*
X46130952Y-167452380D01*
X45940476Y-167452380D01*
X45845238Y-167404761D01*
X45797619Y-167357142D01*
X45749999Y-167261904D01*
X45749999Y-166976190D01*
X45797619Y-166880952D01*
X45845238Y-166833333D01*
X45940476Y-166785714D01*
X46130952Y-166785714D01*
X46226190Y-166833333D01*
X46607142Y-166785714D02*
X46845238Y-167452380D01*
X47083333Y-166785714D02*
X46845238Y-167452380D01*
X46749999Y-167690476D01*
X46702380Y-167738095D01*
X46607142Y-167785714D01*
X47464285Y-167452380D02*
X47464285Y-166452380D01*
X47464285Y-166833333D02*
X47559523Y-166785714D01*
X47749999Y-166785714D01*
X47845238Y-166833333D01*
X47892857Y-166880952D01*
X47940476Y-166976190D01*
X47940476Y-167261904D01*
X47892857Y-167357142D01*
X47845238Y-167404761D01*
X47749999Y-167452380D01*
X47559523Y-167452380D01*
X47464285Y-167404761D01*
X48369047Y-167452380D02*
X48369047Y-166785714D01*
X48369047Y-166452380D02*
X48321428Y-166500000D01*
X48369047Y-166547619D01*
X48416666Y-166500000D01*
X48369047Y-166452380D01*
X48369047Y-166547619D01*
X49273809Y-166785714D02*
X49273809Y-167595238D01*
X49226190Y-167690476D01*
X49178571Y-167738095D01*
X49083333Y-167785714D01*
X48940476Y-167785714D01*
X48845238Y-167738095D01*
X49273809Y-167404761D02*
X49178571Y-167452380D01*
X48988095Y-167452380D01*
X48892857Y-167404761D01*
X48845238Y-167357142D01*
X48797619Y-167261904D01*
X48797619Y-166976190D01*
X48845238Y-166880952D01*
X48892857Y-166833333D01*
X48988095Y-166785714D01*
X49178571Y-166785714D01*
X49273809Y-166833333D01*
X49654761Y-166785714D02*
X50178571Y-166785714D01*
X49654761Y-167452380D01*
X50178571Y-167452380D01*
X111654761Y-62902380D02*
X111988095Y-63902380D01*
X112321428Y-62902380D01*
X112654761Y-63902380D02*
X112654761Y-62902380D01*
X113130952Y-63902380D02*
X113130952Y-62902380D01*
X113702380Y-63902380D01*
X113702380Y-62902380D01*
X38416666Y-79000000D02*
X38321428Y-78952380D01*
X38178571Y-78952380D01*
X38035714Y-79000000D01*
X37940476Y-79095238D01*
X37892857Y-79190476D01*
X37845238Y-79380952D01*
X37845238Y-79523809D01*
X37892857Y-79714285D01*
X37940476Y-79809523D01*
X38035714Y-79904761D01*
X38178571Y-79952380D01*
X38273809Y-79952380D01*
X38416666Y-79904761D01*
X38464285Y-79857142D01*
X38464285Y-79523809D01*
X38273809Y-79523809D01*
X38892857Y-79952380D02*
X38892857Y-78952380D01*
X39273809Y-78952380D01*
X39369047Y-79000000D01*
X39416666Y-79047619D01*
X39464285Y-79142857D01*
X39464285Y-79285714D01*
X39416666Y-79380952D01*
X39369047Y-79428571D01*
X39273809Y-79476190D01*
X38892857Y-79476190D01*
X39892857Y-79952380D02*
X39892857Y-78952380D01*
X40559523Y-78952380D02*
X40750000Y-78952380D01*
X40845238Y-79000000D01*
X40940476Y-79095238D01*
X40988095Y-79285714D01*
X40988095Y-79619047D01*
X40940476Y-79809523D01*
X40845238Y-79904761D01*
X40750000Y-79952380D01*
X40559523Y-79952380D01*
X40464285Y-79904761D01*
X40369047Y-79809523D01*
X40321428Y-79619047D01*
X40321428Y-79285714D01*
X40369047Y-79095238D01*
X40464285Y-79000000D01*
X40559523Y-78952380D01*
X42369047Y-78952380D02*
X42464285Y-78952380D01*
X42559523Y-79000000D01*
X42607142Y-79047619D01*
X42654761Y-79142857D01*
X42702380Y-79333333D01*
X42702380Y-79571428D01*
X42654761Y-79761904D01*
X42607142Y-79857142D01*
X42559523Y-79904761D01*
X42464285Y-79952380D01*
X42369047Y-79952380D01*
X42273809Y-79904761D01*
X42226190Y-79857142D01*
X42178571Y-79761904D01*
X42130952Y-79571428D01*
X42130952Y-79333333D01*
X42178571Y-79142857D01*
X42226190Y-79047619D01*
X42273809Y-79000000D01*
X42369047Y-78952380D01*
X43559523Y-79285714D02*
X43559523Y-79952380D01*
X43321428Y-78904761D02*
X43083333Y-79619047D01*
X43702380Y-79619047D01*
X49642857Y-79654761D02*
X49785714Y-79702380D01*
X50023809Y-79702380D01*
X50119047Y-79654761D01*
X50166666Y-79607142D01*
X50214285Y-79511904D01*
X50214285Y-79416666D01*
X50166666Y-79321428D01*
X50119047Y-79273809D01*
X50023809Y-79226190D01*
X49833333Y-79178571D01*
X49738095Y-79130952D01*
X49690476Y-79083333D01*
X49642857Y-78988095D01*
X49642857Y-78892857D01*
X49690476Y-78797619D01*
X49738095Y-78750000D01*
X49833333Y-78702380D01*
X50071428Y-78702380D01*
X50214285Y-78750000D01*
X50642857Y-79702380D02*
X50642857Y-78702380D01*
X51023809Y-78702380D01*
X51119047Y-78750000D01*
X51166666Y-78797619D01*
X51214285Y-78892857D01*
X51214285Y-79035714D01*
X51166666Y-79130952D01*
X51119047Y-79178571D01*
X51023809Y-79226190D01*
X50642857Y-79226190D01*
X51642857Y-79702380D02*
X51642857Y-78702380D01*
X52833333Y-79654761D02*
X52976190Y-79702380D01*
X53214285Y-79702380D01*
X53309523Y-79654761D01*
X53357142Y-79607142D01*
X53404761Y-79511904D01*
X53404761Y-79416666D01*
X53357142Y-79321428D01*
X53309523Y-79273809D01*
X53214285Y-79226190D01*
X53023809Y-79178571D01*
X52928571Y-79130952D01*
X52880952Y-79083333D01*
X52833333Y-78988095D01*
X52833333Y-78892857D01*
X52880952Y-78797619D01*
X52928571Y-78750000D01*
X53023809Y-78702380D01*
X53261904Y-78702380D01*
X53404761Y-78750000D01*
X53785714Y-79654761D02*
X53928571Y-79702380D01*
X54166666Y-79702380D01*
X54261904Y-79654761D01*
X54309523Y-79607142D01*
X54357142Y-79511904D01*
X54357142Y-79416666D01*
X54309523Y-79321428D01*
X54261904Y-79273809D01*
X54166666Y-79226190D01*
X53976190Y-79178571D01*
X53880952Y-79130952D01*
X53833333Y-79083333D01*
X53785714Y-78988095D01*
X53785714Y-78892857D01*
X53833333Y-78797619D01*
X53880952Y-78750000D01*
X53976190Y-78702380D01*
X54214285Y-78702380D01*
X54357142Y-78750000D01*
X55500000Y-78654761D02*
X54642857Y-79940476D01*
X56404761Y-79607142D02*
X56357142Y-79654761D01*
X56214285Y-79702380D01*
X56119047Y-79702380D01*
X55976190Y-79654761D01*
X55880952Y-79559523D01*
X55833333Y-79464285D01*
X55785714Y-79273809D01*
X55785714Y-79130952D01*
X55833333Y-78940476D01*
X55880952Y-78845238D01*
X55976190Y-78750000D01*
X56119047Y-78702380D01*
X56214285Y-78702380D01*
X56357142Y-78750000D01*
X56404761Y-78797619D01*
X56785714Y-79654761D02*
X56928571Y-79702380D01*
X57166666Y-79702380D01*
X57261904Y-79654761D01*
X57309523Y-79607142D01*
X57357142Y-79511904D01*
X57357142Y-79416666D01*
X57309523Y-79321428D01*
X57261904Y-79273809D01*
X57166666Y-79226190D01*
X56976190Y-79178571D01*
X56880952Y-79130952D01*
X56833333Y-79083333D01*
X56785714Y-78988095D01*
X56785714Y-78892857D01*
X56833333Y-78797619D01*
X56880952Y-78750000D01*
X56976190Y-78702380D01*
X57214285Y-78702380D01*
X57357142Y-78750000D01*
X125525699Y-60294797D02*
X125430461Y-60247177D01*
X125287604Y-60247177D01*
X125144746Y-60294797D01*
X125049508Y-60390035D01*
X125001889Y-60485273D01*
X124954270Y-60675749D01*
X124954270Y-60818606D01*
X125001889Y-61009082D01*
X125049508Y-61104320D01*
X125144746Y-61199558D01*
X125287604Y-61247177D01*
X125382842Y-61247177D01*
X125525699Y-61199558D01*
X125573318Y-61151939D01*
X125573318Y-60818606D01*
X125382842Y-60818606D01*
X126001889Y-61247177D02*
X126001889Y-60247177D01*
X126573318Y-61247177D01*
X126573318Y-60247177D01*
X127049508Y-61247177D02*
X127049508Y-60247177D01*
X127287604Y-60247177D01*
X127430461Y-60294797D01*
X127525699Y-60390035D01*
X127573318Y-60485273D01*
X127620937Y-60675749D01*
X127620937Y-60818606D01*
X127573318Y-61009082D01*
X127525699Y-61104320D01*
X127430461Y-61199558D01*
X127287604Y-61247177D01*
X127049508Y-61247177D01*
X125065536Y-51218084D02*
X125208393Y-51265703D01*
X125446488Y-51265703D01*
X125541726Y-51218084D01*
X125589345Y-51170465D01*
X125636964Y-51075227D01*
X125636964Y-50979989D01*
X125589345Y-50884751D01*
X125541726Y-50837132D01*
X125446488Y-50789513D01*
X125256012Y-50741894D01*
X125160774Y-50694275D01*
X125113155Y-50646656D01*
X125065536Y-50551418D01*
X125065536Y-50456180D01*
X125113155Y-50360942D01*
X125160774Y-50313323D01*
X125256012Y-50265703D01*
X125494107Y-50265703D01*
X125636964Y-50313323D01*
X126065536Y-51265703D02*
X126065536Y-50265703D01*
X126303631Y-50265703D01*
X126446488Y-50313323D01*
X126541726Y-50408561D01*
X126589345Y-50503799D01*
X126636964Y-50694275D01*
X126636964Y-50837132D01*
X126589345Y-51027608D01*
X126541726Y-51122846D01*
X126446488Y-51218084D01*
X126303631Y-51265703D01*
X126065536Y-51265703D01*
X127256012Y-50265703D02*
X127446488Y-50265703D01*
X127541726Y-50313323D01*
X127636964Y-50408561D01*
X127684583Y-50599037D01*
X127684583Y-50932370D01*
X127636964Y-51122846D01*
X127541726Y-51218084D01*
X127446488Y-51265703D01*
X127256012Y-51265703D01*
X127160774Y-51218084D01*
X127065536Y-51122846D01*
X127017917Y-50932370D01*
X127017917Y-50599037D01*
X127065536Y-50408561D01*
X127160774Y-50313323D01*
X127256012Y-50265703D01*
X38416666Y-71250000D02*
X38321428Y-71202380D01*
X38178571Y-71202380D01*
X38035714Y-71250000D01*
X37940476Y-71345238D01*
X37892857Y-71440476D01*
X37845238Y-71630952D01*
X37845238Y-71773809D01*
X37892857Y-71964285D01*
X37940476Y-72059523D01*
X38035714Y-72154761D01*
X38178571Y-72202380D01*
X38273809Y-72202380D01*
X38416666Y-72154761D01*
X38464285Y-72107142D01*
X38464285Y-71773809D01*
X38273809Y-71773809D01*
X38892857Y-72202380D02*
X38892857Y-71202380D01*
X39273809Y-71202380D01*
X39369047Y-71250000D01*
X39416666Y-71297619D01*
X39464285Y-71392857D01*
X39464285Y-71535714D01*
X39416666Y-71630952D01*
X39369047Y-71678571D01*
X39273809Y-71726190D01*
X38892857Y-71726190D01*
X39892857Y-72202380D02*
X39892857Y-71202380D01*
X40559523Y-71202380D02*
X40750000Y-71202380D01*
X40845238Y-71250000D01*
X40940476Y-71345238D01*
X40988095Y-71535714D01*
X40988095Y-71869047D01*
X40940476Y-72059523D01*
X40845238Y-72154761D01*
X40750000Y-72202380D01*
X40559523Y-72202380D01*
X40464285Y-72154761D01*
X40369047Y-72059523D01*
X40321428Y-71869047D01*
X40321428Y-71535714D01*
X40369047Y-71345238D01*
X40464285Y-71250000D01*
X40559523Y-71202380D01*
X42702380Y-72202380D02*
X42130952Y-72202380D01*
X42416666Y-72202380D02*
X42416666Y-71202380D01*
X42321428Y-71345238D01*
X42226190Y-71440476D01*
X42130952Y-71488095D01*
X43559523Y-71535714D02*
X43559523Y-72202380D01*
X43321428Y-71154761D02*
X43083333Y-71869047D01*
X43702380Y-71869047D01*
X125643040Y-53615001D02*
X125595421Y-53662620D01*
X125452564Y-53710239D01*
X125357326Y-53710239D01*
X125214468Y-53662620D01*
X125119230Y-53567382D01*
X125071611Y-53472144D01*
X125023992Y-53281668D01*
X125023992Y-53138811D01*
X125071611Y-52948335D01*
X125119230Y-52853097D01*
X125214468Y-52757859D01*
X125357326Y-52710239D01*
X125452564Y-52710239D01*
X125595421Y-52757859D01*
X125643040Y-52805478D01*
X126023992Y-53662620D02*
X126166849Y-53710239D01*
X126404945Y-53710239D01*
X126500183Y-53662620D01*
X126547802Y-53615001D01*
X126595421Y-53519763D01*
X126595421Y-53424525D01*
X126547802Y-53329287D01*
X126500183Y-53281668D01*
X126404945Y-53234049D01*
X126214468Y-53186430D01*
X126119230Y-53138811D01*
X126071611Y-53091192D01*
X126023992Y-52995954D01*
X126023992Y-52900716D01*
X126071611Y-52805478D01*
X126119230Y-52757859D01*
X126214468Y-52710239D01*
X126452564Y-52710239D01*
X126595421Y-52757859D01*
X127357326Y-53186430D02*
X127500183Y-53234049D01*
X127547802Y-53281668D01*
X127595421Y-53376906D01*
X127595421Y-53519763D01*
X127547802Y-53615001D01*
X127500183Y-53662620D01*
X127404945Y-53710239D01*
X127023992Y-53710239D01*
X127023992Y-52710239D01*
X127357326Y-52710239D01*
X127452564Y-52757859D01*
X127500183Y-52805478D01*
X127547802Y-52900716D01*
X127547802Y-52995954D01*
X127500183Y-53091192D01*
X127452564Y-53138811D01*
X127357326Y-53186430D01*
X127023992Y-53186430D01*
X49704266Y-58445488D02*
X50323314Y-58445488D01*
X49989980Y-58826441D01*
X50132838Y-58826441D01*
X50228076Y-58874060D01*
X50275695Y-58921679D01*
X50323314Y-59016917D01*
X50323314Y-59255012D01*
X50275695Y-59350250D01*
X50228076Y-59397869D01*
X50132838Y-59445488D01*
X49847123Y-59445488D01*
X49751885Y-59397869D01*
X49704266Y-59350250D01*
X50751885Y-59350250D02*
X50799504Y-59397869D01*
X50751885Y-59445488D01*
X50704266Y-59397869D01*
X50751885Y-59350250D01*
X50751885Y-59445488D01*
X51132838Y-58445488D02*
X51751885Y-58445488D01*
X51418552Y-58826441D01*
X51561409Y-58826441D01*
X51656647Y-58874060D01*
X51704266Y-58921679D01*
X51751885Y-59016917D01*
X51751885Y-59255012D01*
X51704266Y-59350250D01*
X51656647Y-59397869D01*
X51561409Y-59445488D01*
X51275695Y-59445488D01*
X51180457Y-59397869D01*
X51132838Y-59350250D01*
X52085218Y-58778822D02*
X52323314Y-59445488D01*
X52561409Y-58778822D01*
X111011904Y-48604761D02*
X111154761Y-48652380D01*
X111392857Y-48652380D01*
X111488095Y-48604761D01*
X111535714Y-48557142D01*
X111583333Y-48461904D01*
X111583333Y-48366666D01*
X111535714Y-48271428D01*
X111488095Y-48223809D01*
X111392857Y-48176190D01*
X111202380Y-48128571D01*
X111107142Y-48080952D01*
X111059523Y-48033333D01*
X111011904Y-47938095D01*
X111011904Y-47842857D01*
X111059523Y-47747619D01*
X111107142Y-47700000D01*
X111202380Y-47652380D01*
X111440476Y-47652380D01*
X111583333Y-47700000D01*
X111964285Y-48366666D02*
X112440476Y-48366666D01*
X111869047Y-48652380D02*
X112202380Y-47652380D01*
X112535714Y-48652380D01*
X113059523Y-47652380D02*
X113250000Y-47652380D01*
X113345238Y-47700000D01*
X113440476Y-47795238D01*
X113488095Y-47985714D01*
X113488095Y-48319047D01*
X113440476Y-48509523D01*
X113345238Y-48604761D01*
X113250000Y-48652380D01*
X113059523Y-48652380D01*
X112964285Y-48604761D01*
X112869047Y-48509523D01*
X112821428Y-48319047D01*
X112821428Y-47985714D01*
X112869047Y-47795238D01*
X112964285Y-47700000D01*
X113059523Y-47652380D01*
X50297619Y-61952380D02*
X49964285Y-61476190D01*
X49726190Y-61952380D02*
X49726190Y-60952380D01*
X50107142Y-60952380D01*
X50202380Y-61000000D01*
X50250000Y-61047619D01*
X50297619Y-61142857D01*
X50297619Y-61285714D01*
X50250000Y-61380952D01*
X50202380Y-61428571D01*
X50107142Y-61476190D01*
X49726190Y-61476190D01*
X50726190Y-61428571D02*
X51059523Y-61428571D01*
X51202380Y-61952380D02*
X50726190Y-61952380D01*
X50726190Y-60952380D01*
X51202380Y-60952380D01*
X51583333Y-61904761D02*
X51726190Y-61952380D01*
X51964285Y-61952380D01*
X52059523Y-61904761D01*
X52107142Y-61857142D01*
X52154761Y-61761904D01*
X52154761Y-61666666D01*
X52107142Y-61571428D01*
X52059523Y-61523809D01*
X51964285Y-61476190D01*
X51773809Y-61428571D01*
X51678571Y-61380952D01*
X51630952Y-61333333D01*
X51583333Y-61238095D01*
X51583333Y-61142857D01*
X51630952Y-61047619D01*
X51678571Y-61000000D01*
X51773809Y-60952380D01*
X52011904Y-60952380D01*
X52154761Y-61000000D01*
X52583333Y-61428571D02*
X52916666Y-61428571D01*
X53059523Y-61952380D02*
X52583333Y-61952380D01*
X52583333Y-60952380D01*
X53059523Y-60952380D01*
X53345238Y-60952380D02*
X53916666Y-60952380D01*
X53630952Y-61952380D02*
X53630952Y-60952380D01*
X111309523Y-56354761D02*
X111452380Y-56402380D01*
X111690476Y-56402380D01*
X111785714Y-56354761D01*
X111833333Y-56307142D01*
X111880952Y-56211904D01*
X111880952Y-56116666D01*
X111833333Y-56021428D01*
X111785714Y-55973809D01*
X111690476Y-55926190D01*
X111500000Y-55878571D01*
X111404761Y-55830952D01*
X111357142Y-55783333D01*
X111309523Y-55688095D01*
X111309523Y-55592857D01*
X111357142Y-55497619D01*
X111404761Y-55450000D01*
X111500000Y-55402380D01*
X111738095Y-55402380D01*
X111880952Y-55450000D01*
X112880952Y-56307142D02*
X112833333Y-56354761D01*
X112690476Y-56402380D01*
X112595238Y-56402380D01*
X112452380Y-56354761D01*
X112357142Y-56259523D01*
X112309523Y-56164285D01*
X112261904Y-55973809D01*
X112261904Y-55830952D01*
X112309523Y-55640476D01*
X112357142Y-55545238D01*
X112452380Y-55450000D01*
X112595238Y-55402380D01*
X112690476Y-55402380D01*
X112833333Y-55450000D01*
X112880952Y-55497619D01*
X113785714Y-56402380D02*
X113309523Y-56402380D01*
X113309523Y-55402380D01*
X37988095Y-69702380D02*
X37988095Y-68702380D01*
X38416666Y-68797619D02*
X38464285Y-68750000D01*
X38559523Y-68702380D01*
X38797619Y-68702380D01*
X38892857Y-68750000D01*
X38940476Y-68797619D01*
X38988095Y-68892857D01*
X38988095Y-68988095D01*
X38940476Y-69130952D01*
X38369047Y-69702380D01*
X38988095Y-69702380D01*
X39988095Y-69607142D02*
X39940476Y-69654761D01*
X39797619Y-69702380D01*
X39702380Y-69702380D01*
X39559523Y-69654761D01*
X39464285Y-69559523D01*
X39416666Y-69464285D01*
X39369047Y-69273809D01*
X39369047Y-69130952D01*
X39416666Y-68940476D01*
X39464285Y-68845238D01*
X39559523Y-68750000D01*
X39702380Y-68702380D01*
X39797619Y-68702380D01*
X39940476Y-68750000D01*
X39988095Y-68797619D01*
X41130952Y-69654761D02*
X41273809Y-69702380D01*
X41511904Y-69702380D01*
X41607142Y-69654761D01*
X41654761Y-69607142D01*
X41702380Y-69511904D01*
X41702380Y-69416666D01*
X41654761Y-69321428D01*
X41607142Y-69273809D01*
X41511904Y-69226190D01*
X41321428Y-69178571D01*
X41226190Y-69130952D01*
X41178571Y-69083333D01*
X41130952Y-68988095D01*
X41130952Y-68892857D01*
X41178571Y-68797619D01*
X41226190Y-68750000D01*
X41321428Y-68702380D01*
X41559523Y-68702380D01*
X41702380Y-68750000D01*
X42130952Y-69702380D02*
X42130952Y-68702380D01*
X42369047Y-68702380D01*
X42511904Y-68750000D01*
X42607142Y-68845238D01*
X42654761Y-68940476D01*
X42702380Y-69130952D01*
X42702380Y-69273809D01*
X42654761Y-69464285D01*
X42607142Y-69559523D01*
X42511904Y-69654761D01*
X42369047Y-69702380D01*
X42130952Y-69702380D01*
X43083333Y-69416666D02*
X43559523Y-69416666D01*
X42988095Y-69702380D02*
X43321428Y-68702380D01*
X43654761Y-69702380D01*
X38416666Y-81500000D02*
X38321428Y-81452380D01*
X38178571Y-81452380D01*
X38035714Y-81500000D01*
X37940476Y-81595238D01*
X37892857Y-81690476D01*
X37845238Y-81880952D01*
X37845238Y-82023809D01*
X37892857Y-82214285D01*
X37940476Y-82309523D01*
X38035714Y-82404761D01*
X38178571Y-82452380D01*
X38273809Y-82452380D01*
X38416666Y-82404761D01*
X38464285Y-82357142D01*
X38464285Y-82023809D01*
X38273809Y-82023809D01*
X38892857Y-82452380D02*
X38892857Y-81452380D01*
X39273809Y-81452380D01*
X39369047Y-81500000D01*
X39416666Y-81547619D01*
X39464285Y-81642857D01*
X39464285Y-81785714D01*
X39416666Y-81880952D01*
X39369047Y-81928571D01*
X39273809Y-81976190D01*
X38892857Y-81976190D01*
X39892857Y-82452380D02*
X39892857Y-81452380D01*
X40559523Y-81452380D02*
X40750000Y-81452380D01*
X40845238Y-81500000D01*
X40940476Y-81595238D01*
X40988095Y-81785714D01*
X40988095Y-82119047D01*
X40940476Y-82309523D01*
X40845238Y-82404761D01*
X40750000Y-82452380D01*
X40559523Y-82452380D01*
X40464285Y-82404761D01*
X40369047Y-82309523D01*
X40321428Y-82119047D01*
X40321428Y-81785714D01*
X40369047Y-81595238D01*
X40464285Y-81500000D01*
X40559523Y-81452380D01*
X42369047Y-81452380D02*
X42464285Y-81452380D01*
X42559523Y-81500000D01*
X42607142Y-81547619D01*
X42654761Y-81642857D01*
X42702380Y-81833333D01*
X42702380Y-82071428D01*
X42654761Y-82261904D01*
X42607142Y-82357142D01*
X42559523Y-82404761D01*
X42464285Y-82452380D01*
X42369047Y-82452380D01*
X42273809Y-82404761D01*
X42226190Y-82357142D01*
X42178571Y-82261904D01*
X42130952Y-82071428D01*
X42130952Y-81833333D01*
X42178571Y-81642857D01*
X42226190Y-81547619D01*
X42273809Y-81500000D01*
X42369047Y-81452380D01*
X43083333Y-81547619D02*
X43130952Y-81500000D01*
X43226190Y-81452380D01*
X43464285Y-81452380D01*
X43559523Y-81500000D01*
X43607142Y-81547619D01*
X43654761Y-81642857D01*
X43654761Y-81738095D01*
X43607142Y-81880952D01*
X43035714Y-82452380D01*
X43654761Y-82452380D01*
X49619047Y-77154761D02*
X49761904Y-77202380D01*
X50000000Y-77202380D01*
X50095238Y-77154761D01*
X50142857Y-77107142D01*
X50190476Y-77011904D01*
X50190476Y-76916666D01*
X50142857Y-76821428D01*
X50095238Y-76773809D01*
X50000000Y-76726190D01*
X49809523Y-76678571D01*
X49714285Y-76630952D01*
X49666666Y-76583333D01*
X49619047Y-76488095D01*
X49619047Y-76392857D01*
X49666666Y-76297619D01*
X49714285Y-76250000D01*
X49809523Y-76202380D01*
X50047619Y-76202380D01*
X50190476Y-76250000D01*
X50619047Y-77202380D02*
X50619047Y-76202380D01*
X51000000Y-76202380D01*
X51095238Y-76250000D01*
X51142857Y-76297619D01*
X51190476Y-76392857D01*
X51190476Y-76535714D01*
X51142857Y-76630952D01*
X51095238Y-76678571D01*
X51000000Y-76726190D01*
X50619047Y-76726190D01*
X51619047Y-77202380D02*
X51619047Y-76202380D01*
X52809523Y-77154761D02*
X52952380Y-77202380D01*
X53190476Y-77202380D01*
X53285714Y-77154761D01*
X53333333Y-77107142D01*
X53380952Y-77011904D01*
X53380952Y-76916666D01*
X53333333Y-76821428D01*
X53285714Y-76773809D01*
X53190476Y-76726190D01*
X53000000Y-76678571D01*
X52904761Y-76630952D01*
X52857142Y-76583333D01*
X52809523Y-76488095D01*
X52809523Y-76392857D01*
X52857142Y-76297619D01*
X52904761Y-76250000D01*
X53000000Y-76202380D01*
X53238095Y-76202380D01*
X53380952Y-76250000D01*
X54380952Y-77107142D02*
X54333333Y-77154761D01*
X54190476Y-77202380D01*
X54095238Y-77202380D01*
X53952380Y-77154761D01*
X53857142Y-77059523D01*
X53809523Y-76964285D01*
X53761904Y-76773809D01*
X53761904Y-76630952D01*
X53809523Y-76440476D01*
X53857142Y-76345238D01*
X53952380Y-76250000D01*
X54095238Y-76202380D01*
X54190476Y-76202380D01*
X54333333Y-76250000D01*
X54380952Y-76297619D01*
X54809523Y-77202380D02*
X54809523Y-76202380D01*
X55380952Y-77202380D02*
X54952380Y-76630952D01*
X55380952Y-76202380D02*
X54809523Y-76773809D01*
X42857142Y-61202380D02*
X42380952Y-61202380D01*
X42333333Y-61678571D01*
X42380952Y-61630952D01*
X42476190Y-61583333D01*
X42714285Y-61583333D01*
X42809523Y-61630952D01*
X42857142Y-61678571D01*
X42904761Y-61773809D01*
X42904761Y-62011904D01*
X42857142Y-62107142D01*
X42809523Y-62154761D01*
X42714285Y-62202380D01*
X42476190Y-62202380D01*
X42380952Y-62154761D01*
X42333333Y-62107142D01*
X43238095Y-61535714D02*
X43476190Y-62202380D01*
X43714285Y-61535714D01*
X39452380Y-64702380D02*
X39452380Y-63702380D01*
X39690476Y-63702380D01*
X39833333Y-63750000D01*
X39928571Y-63845238D01*
X39976190Y-63940476D01*
X40023809Y-64130952D01*
X40023809Y-64273809D01*
X39976190Y-64464285D01*
X39928571Y-64559523D01*
X39833333Y-64654761D01*
X39690476Y-64702380D01*
X39452380Y-64702380D01*
X40404761Y-64416666D02*
X40880952Y-64416666D01*
X40309523Y-64702380D02*
X40642857Y-63702380D01*
X40976190Y-64702380D01*
X41880952Y-64607142D02*
X41833333Y-64654761D01*
X41690476Y-64702380D01*
X41595238Y-64702380D01*
X41452380Y-64654761D01*
X41357142Y-64559523D01*
X41309523Y-64464285D01*
X41261904Y-64273809D01*
X41261904Y-64130952D01*
X41309523Y-63940476D01*
X41357142Y-63845238D01*
X41452380Y-63750000D01*
X41595238Y-63702380D01*
X41690476Y-63702380D01*
X41833333Y-63750000D01*
X41880952Y-63797619D01*
X43023809Y-63797619D02*
X43071428Y-63750000D01*
X43166666Y-63702380D01*
X43404761Y-63702380D01*
X43500000Y-63750000D01*
X43547619Y-63797619D01*
X43595238Y-63892857D01*
X43595238Y-63988095D01*
X43547619Y-64130952D01*
X42976190Y-64702380D01*
X43595238Y-64702380D01*
X111285714Y-53604761D02*
X111428571Y-53652380D01*
X111666666Y-53652380D01*
X111761904Y-53604761D01*
X111809523Y-53557142D01*
X111857142Y-53461904D01*
X111857142Y-53366666D01*
X111809523Y-53271428D01*
X111761904Y-53223809D01*
X111666666Y-53176190D01*
X111476190Y-53128571D01*
X111380952Y-53080952D01*
X111333333Y-53033333D01*
X111285714Y-52938095D01*
X111285714Y-52842857D01*
X111333333Y-52747619D01*
X111380952Y-52700000D01*
X111476190Y-52652380D01*
X111714285Y-52652380D01*
X111857142Y-52700000D01*
X112285714Y-53652380D02*
X112285714Y-52652380D01*
X112523809Y-52652380D01*
X112666666Y-52700000D01*
X112761904Y-52795238D01*
X112809523Y-52890476D01*
X112857142Y-53080952D01*
X112857142Y-53223809D01*
X112809523Y-53414285D01*
X112761904Y-53509523D01*
X112666666Y-53604761D01*
X112523809Y-53652380D01*
X112285714Y-53652380D01*
X113238095Y-53366666D02*
X113714285Y-53366666D01*
X113142857Y-53652380D02*
X113476190Y-52652380D01*
X113809523Y-53652380D01*
X50238095Y-81500000D02*
X50142857Y-81452380D01*
X50000000Y-81452380D01*
X49857142Y-81500000D01*
X49761904Y-81595238D01*
X49714285Y-81690476D01*
X49666666Y-81880952D01*
X49666666Y-82023809D01*
X49714285Y-82214285D01*
X49761904Y-82309523D01*
X49857142Y-82404761D01*
X50000000Y-82452380D01*
X50095238Y-82452380D01*
X50238095Y-82404761D01*
X50285714Y-82357142D01*
X50285714Y-82023809D01*
X50095238Y-82023809D01*
X50714285Y-82452380D02*
X50714285Y-81452380D01*
X51285714Y-82452380D01*
X51285714Y-81452380D01*
X51761904Y-82452380D02*
X51761904Y-81452380D01*
X52000000Y-81452380D01*
X52142857Y-81500000D01*
X52238095Y-81595238D01*
X52285714Y-81690476D01*
X52333333Y-81880952D01*
X52333333Y-82023809D01*
X52285714Y-82214285D01*
X52238095Y-82309523D01*
X52142857Y-82404761D01*
X52000000Y-82452380D01*
X51761904Y-82452380D01*
X120476190Y-48404761D02*
X120619047Y-48452380D01*
X120857142Y-48452380D01*
X120952380Y-48404761D01*
X121000000Y-48357142D01*
X121047619Y-48261904D01*
X121047619Y-48166666D01*
X121000000Y-48071428D01*
X120952380Y-48023809D01*
X120857142Y-47976190D01*
X120666666Y-47928571D01*
X120571428Y-47880952D01*
X120523809Y-47833333D01*
X120476190Y-47738095D01*
X120476190Y-47642857D01*
X120523809Y-47547619D01*
X120571428Y-47500000D01*
X120666666Y-47452380D01*
X120904761Y-47452380D01*
X121047619Y-47500000D01*
X121857142Y-48404761D02*
X121761904Y-48452380D01*
X121571428Y-48452380D01*
X121476190Y-48404761D01*
X121428571Y-48309523D01*
X121428571Y-47928571D01*
X121476190Y-47833333D01*
X121571428Y-47785714D01*
X121761904Y-47785714D01*
X121857142Y-47833333D01*
X121904761Y-47928571D01*
X121904761Y-48023809D01*
X121428571Y-48119047D01*
X122333333Y-47785714D02*
X122333333Y-48452380D01*
X122333333Y-47880952D02*
X122380952Y-47833333D01*
X122476190Y-47785714D01*
X122619047Y-47785714D01*
X122714285Y-47833333D01*
X122761904Y-47928571D01*
X122761904Y-48452380D01*
X123190476Y-48404761D02*
X123285714Y-48452380D01*
X123476190Y-48452380D01*
X123571428Y-48404761D01*
X123619047Y-48309523D01*
X123619047Y-48261904D01*
X123571428Y-48166666D01*
X123476190Y-48119047D01*
X123333333Y-48119047D01*
X123238095Y-48071428D01*
X123190476Y-47976190D01*
X123190476Y-47928571D01*
X123238095Y-47833333D01*
X123333333Y-47785714D01*
X123476190Y-47785714D01*
X123571428Y-47833333D01*
X124190476Y-48452380D02*
X124095238Y-48404761D01*
X124047619Y-48357142D01*
X124000000Y-48261904D01*
X124000000Y-47976190D01*
X124047619Y-47880952D01*
X124095238Y-47833333D01*
X124190476Y-47785714D01*
X124333333Y-47785714D01*
X124428571Y-47833333D01*
X124476190Y-47880952D01*
X124523809Y-47976190D01*
X124523809Y-48261904D01*
X124476190Y-48357142D01*
X124428571Y-48404761D01*
X124333333Y-48452380D01*
X124190476Y-48452380D01*
X124952380Y-48452380D02*
X124952380Y-47785714D01*
X124952380Y-47976190D02*
X125000000Y-47880952D01*
X125047619Y-47833333D01*
X125142857Y-47785714D01*
X125238095Y-47785714D01*
X126238095Y-47452380D02*
X126904761Y-47452380D01*
X126238095Y-48452380D01*
X126904761Y-48452380D01*
X127428571Y-48452380D02*
X127333333Y-48404761D01*
X127285714Y-48357142D01*
X127238095Y-48261904D01*
X127238095Y-47976190D01*
X127285714Y-47880952D01*
X127333333Y-47833333D01*
X127428571Y-47785714D01*
X127571428Y-47785714D01*
X127666666Y-47833333D01*
X127714285Y-47880952D01*
X127761904Y-47976190D01*
X127761904Y-48261904D01*
X127714285Y-48357142D01*
X127666666Y-48404761D01*
X127571428Y-48452380D01*
X127428571Y-48452380D01*
X128190476Y-47785714D02*
X128190476Y-48452380D01*
X128190476Y-47880952D02*
X128238095Y-47833333D01*
X128333333Y-47785714D01*
X128476190Y-47785714D01*
X128571428Y-47833333D01*
X128619047Y-47928571D01*
X128619047Y-48452380D01*
X129476190Y-48404761D02*
X129380952Y-48452380D01*
X129190476Y-48452380D01*
X129095238Y-48404761D01*
X129047619Y-48309523D01*
X129047619Y-47928571D01*
X129095238Y-47833333D01*
X129190476Y-47785714D01*
X129380952Y-47785714D01*
X129476190Y-47833333D01*
X129523809Y-47928571D01*
X129523809Y-48023809D01*
X129047619Y-48119047D01*
X124789311Y-62855267D02*
X125408359Y-62855267D01*
X125075025Y-63236220D01*
X125217882Y-63236220D01*
X125313121Y-63283839D01*
X125360740Y-63331458D01*
X125408359Y-63426696D01*
X125408359Y-63664791D01*
X125360740Y-63760029D01*
X125313121Y-63807648D01*
X125217882Y-63855267D01*
X124932168Y-63855267D01*
X124836930Y-63807648D01*
X124789311Y-63760029D01*
X125836930Y-63760029D02*
X125884549Y-63807648D01*
X125836930Y-63855267D01*
X125789311Y-63807648D01*
X125836930Y-63760029D01*
X125836930Y-63855267D01*
X126217882Y-62855267D02*
X126836930Y-62855267D01*
X126503597Y-63236220D01*
X126646454Y-63236220D01*
X126741692Y-63283839D01*
X126789311Y-63331458D01*
X126836930Y-63426696D01*
X126836930Y-63664791D01*
X126789311Y-63760029D01*
X126741692Y-63807648D01*
X126646454Y-63855267D01*
X126360740Y-63855267D01*
X126265502Y-63807648D01*
X126217882Y-63760029D01*
X127122644Y-62855267D02*
X127455978Y-63855267D01*
X127789311Y-62855267D01*
X33547619Y-83952380D02*
X34119047Y-83952380D01*
X33833333Y-84952380D02*
X33833333Y-83952380D01*
X34452380Y-84952380D02*
X34452380Y-83952380D01*
X34880952Y-84952380D02*
X34880952Y-84428571D01*
X34833333Y-84333333D01*
X34738095Y-84285714D01*
X34595238Y-84285714D01*
X34500000Y-84333333D01*
X34452380Y-84380952D01*
X35738095Y-84904761D02*
X35642857Y-84952380D01*
X35452380Y-84952380D01*
X35357142Y-84904761D01*
X35309523Y-84809523D01*
X35309523Y-84428571D01*
X35357142Y-84333333D01*
X35452380Y-84285714D01*
X35642857Y-84285714D01*
X35738095Y-84333333D01*
X35785714Y-84428571D01*
X35785714Y-84523809D01*
X35309523Y-84619047D01*
X36976190Y-84952380D02*
X36976190Y-83952380D01*
X37357142Y-83952380D01*
X37452380Y-84000000D01*
X37500000Y-84047619D01*
X37547619Y-84142857D01*
X37547619Y-84285714D01*
X37500000Y-84380952D01*
X37452380Y-84428571D01*
X37357142Y-84476190D01*
X36976190Y-84476190D01*
X38119047Y-84952380D02*
X38023809Y-84904761D01*
X37976190Y-84857142D01*
X37928571Y-84761904D01*
X37928571Y-84476190D01*
X37976190Y-84380952D01*
X38023809Y-84333333D01*
X38119047Y-84285714D01*
X38261904Y-84285714D01*
X38357142Y-84333333D01*
X38404761Y-84380952D01*
X38452380Y-84476190D01*
X38452380Y-84761904D01*
X38404761Y-84857142D01*
X38357142Y-84904761D01*
X38261904Y-84952380D01*
X38119047Y-84952380D01*
X38785714Y-84285714D02*
X38976190Y-84952380D01*
X39166666Y-84476190D01*
X39357142Y-84952380D01*
X39547619Y-84285714D01*
X40309523Y-84904761D02*
X40214285Y-84952380D01*
X40023809Y-84952380D01*
X39928571Y-84904761D01*
X39880952Y-84809523D01*
X39880952Y-84428571D01*
X39928571Y-84333333D01*
X40023809Y-84285714D01*
X40214285Y-84285714D01*
X40309523Y-84333333D01*
X40357142Y-84428571D01*
X40357142Y-84523809D01*
X39880952Y-84619047D01*
X40785714Y-84952380D02*
X40785714Y-84285714D01*
X40785714Y-84476190D02*
X40833333Y-84380952D01*
X40880952Y-84333333D01*
X40976190Y-84285714D01*
X41071428Y-84285714D01*
X42071428Y-83952380D02*
X42738095Y-83952380D01*
X42071428Y-84952380D01*
X42738095Y-84952380D01*
X43261904Y-84952380D02*
X43166666Y-84904761D01*
X43119047Y-84857142D01*
X43071428Y-84761904D01*
X43071428Y-84476190D01*
X43119047Y-84380952D01*
X43166666Y-84333333D01*
X43261904Y-84285714D01*
X43404761Y-84285714D01*
X43500000Y-84333333D01*
X43547619Y-84380952D01*
X43595238Y-84476190D01*
X43595238Y-84761904D01*
X43547619Y-84857142D01*
X43500000Y-84904761D01*
X43404761Y-84952380D01*
X43261904Y-84952380D01*
X44023809Y-84285714D02*
X44023809Y-84952380D01*
X44023809Y-84380952D02*
X44071428Y-84333333D01*
X44166666Y-84285714D01*
X44309523Y-84285714D01*
X44404761Y-84333333D01*
X44452380Y-84428571D01*
X44452380Y-84952380D01*
X45309523Y-84904761D02*
X45214285Y-84952380D01*
X45023809Y-84952380D01*
X44928571Y-84904761D01*
X44880952Y-84809523D01*
X44880952Y-84428571D01*
X44928571Y-84333333D01*
X45023809Y-84285714D01*
X45214285Y-84285714D01*
X45309523Y-84333333D01*
X45357142Y-84428571D01*
X45357142Y-84523809D01*
X44880952Y-84619047D01*
X41488095Y-58500000D02*
X41392857Y-58452380D01*
X41250000Y-58452380D01*
X41107142Y-58500000D01*
X41011904Y-58595238D01*
X40964285Y-58690476D01*
X40916666Y-58880952D01*
X40916666Y-59023809D01*
X40964285Y-59214285D01*
X41011904Y-59309523D01*
X41107142Y-59404761D01*
X41250000Y-59452380D01*
X41345238Y-59452380D01*
X41488095Y-59404761D01*
X41535714Y-59357142D01*
X41535714Y-59023809D01*
X41345238Y-59023809D01*
X41964285Y-59452380D02*
X41964285Y-58452380D01*
X42535714Y-59452380D01*
X42535714Y-58452380D01*
X43011904Y-59452380D02*
X43011904Y-58452380D01*
X43250000Y-58452380D01*
X43392857Y-58500000D01*
X43488095Y-58595238D01*
X43535714Y-58690476D01*
X43583333Y-58880952D01*
X43583333Y-59023809D01*
X43535714Y-59214285D01*
X43488095Y-59309523D01*
X43392857Y-59404761D01*
X43250000Y-59452380D01*
X43011904Y-59452380D01*
X123750000Y-166702380D02*
X124321428Y-166702380D01*
X124035714Y-167702380D02*
X124035714Y-166702380D01*
X124654761Y-167702380D02*
X124654761Y-166702380D01*
X124988095Y-167416666D01*
X125321428Y-166702380D01*
X125321428Y-167702380D01*
X125654761Y-166702380D02*
X126226190Y-166702380D01*
X125940476Y-167702380D02*
X125940476Y-166702380D01*
X127892857Y-167702380D02*
X127559523Y-167226190D01*
X127321428Y-167702380D02*
X127321428Y-166702380D01*
X127702380Y-166702380D01*
X127797619Y-166750000D01*
X127845238Y-166797619D01*
X127892857Y-166892857D01*
X127892857Y-167035714D01*
X127845238Y-167130952D01*
X127797619Y-167178571D01*
X127702380Y-167226190D01*
X127321428Y-167226190D01*
X128702380Y-167654761D02*
X128607142Y-167702380D01*
X128416666Y-167702380D01*
X128321428Y-167654761D01*
X128273809Y-167559523D01*
X128273809Y-167178571D01*
X128321428Y-167083333D01*
X128416666Y-167035714D01*
X128607142Y-167035714D01*
X128702380Y-167083333D01*
X128750000Y-167178571D01*
X128750000Y-167273809D01*
X128273809Y-167369047D01*
X129083333Y-167035714D02*
X129321428Y-167702380D01*
X129559523Y-167035714D01*
X131226190Y-167702380D02*
X130654761Y-167702380D01*
X130940476Y-167702380D02*
X130940476Y-166702380D01*
X130845238Y-166845238D01*
X130750000Y-166940476D01*
X130654761Y-166988095D01*
X131654761Y-167607142D02*
X131702380Y-167654761D01*
X131654761Y-167702380D01*
X131607142Y-167654761D01*
X131654761Y-167607142D01*
X131654761Y-167702380D01*
X132321428Y-166702380D02*
X132416666Y-166702380D01*
X132511904Y-166750000D01*
X132559523Y-166797619D01*
X132607142Y-166892857D01*
X132654761Y-167083333D01*
X132654761Y-167321428D01*
X132607142Y-167511904D01*
X132559523Y-167607142D01*
X132511904Y-167654761D01*
X132416666Y-167702380D01*
X132321428Y-167702380D01*
X132226190Y-167654761D01*
X132178571Y-167607142D01*
X132130952Y-167511904D01*
X132083333Y-167321428D01*
X132083333Y-167083333D01*
X132130952Y-166892857D01*
X132178571Y-166797619D01*
X132226190Y-166750000D01*
X132321428Y-166702380D01*
X50142857Y-64178571D02*
X50285714Y-64226190D01*
X50333333Y-64273809D01*
X50380952Y-64369047D01*
X50380952Y-64511904D01*
X50333333Y-64607142D01*
X50285714Y-64654761D01*
X50190476Y-64702380D01*
X49809523Y-64702380D01*
X49809523Y-63702380D01*
X50142857Y-63702380D01*
X50238095Y-63750000D01*
X50285714Y-63797619D01*
X50333333Y-63892857D01*
X50333333Y-63988095D01*
X50285714Y-64083333D01*
X50238095Y-64130952D01*
X50142857Y-64178571D01*
X49809523Y-64178571D01*
X51000000Y-63702380D02*
X51190476Y-63702380D01*
X51285714Y-63750000D01*
X51380952Y-63845238D01*
X51428571Y-64035714D01*
X51428571Y-64369047D01*
X51380952Y-64559523D01*
X51285714Y-64654761D01*
X51190476Y-64702380D01*
X51000000Y-64702380D01*
X50904761Y-64654761D01*
X50809523Y-64559523D01*
X50761904Y-64369047D01*
X50761904Y-64035714D01*
X50809523Y-63845238D01*
X50904761Y-63750000D01*
X51000000Y-63702380D01*
X52047619Y-63702380D02*
X52238095Y-63702380D01*
X52333333Y-63750000D01*
X52428571Y-63845238D01*
X52476190Y-64035714D01*
X52476190Y-64369047D01*
X52428571Y-64559523D01*
X52333333Y-64654761D01*
X52238095Y-64702380D01*
X52047619Y-64702380D01*
X51952380Y-64654761D01*
X51857142Y-64559523D01*
X51809523Y-64369047D01*
X51809523Y-64035714D01*
X51857142Y-63845238D01*
X51952380Y-63750000D01*
X52047619Y-63702380D01*
X52761904Y-63702380D02*
X53333333Y-63702380D01*
X53047619Y-64702380D02*
X53047619Y-63702380D01*
X38416666Y-74000000D02*
X38321428Y-73952380D01*
X38178571Y-73952380D01*
X38035714Y-74000000D01*
X37940476Y-74095238D01*
X37892857Y-74190476D01*
X37845238Y-74380952D01*
X37845238Y-74523809D01*
X37892857Y-74714285D01*
X37940476Y-74809523D01*
X38035714Y-74904761D01*
X38178571Y-74952380D01*
X38273809Y-74952380D01*
X38416666Y-74904761D01*
X38464285Y-74857142D01*
X38464285Y-74523809D01*
X38273809Y-74523809D01*
X38892857Y-74952380D02*
X38892857Y-73952380D01*
X39273809Y-73952380D01*
X39369047Y-74000000D01*
X39416666Y-74047619D01*
X39464285Y-74142857D01*
X39464285Y-74285714D01*
X39416666Y-74380952D01*
X39369047Y-74428571D01*
X39273809Y-74476190D01*
X38892857Y-74476190D01*
X39892857Y-74952380D02*
X39892857Y-73952380D01*
X40559523Y-73952380D02*
X40750000Y-73952380D01*
X40845238Y-74000000D01*
X40940476Y-74095238D01*
X40988095Y-74285714D01*
X40988095Y-74619047D01*
X40940476Y-74809523D01*
X40845238Y-74904761D01*
X40750000Y-74952380D01*
X40559523Y-74952380D01*
X40464285Y-74904761D01*
X40369047Y-74809523D01*
X40321428Y-74619047D01*
X40321428Y-74285714D01*
X40369047Y-74095238D01*
X40464285Y-74000000D01*
X40559523Y-73952380D01*
X42702380Y-74952380D02*
X42130952Y-74952380D01*
X42416666Y-74952380D02*
X42416666Y-73952380D01*
X42321428Y-74095238D01*
X42226190Y-74190476D01*
X42130952Y-74238095D01*
X43035714Y-73952380D02*
X43654761Y-73952380D01*
X43321428Y-74333333D01*
X43464285Y-74333333D01*
X43559523Y-74380952D01*
X43607142Y-74428571D01*
X43654761Y-74523809D01*
X43654761Y-74761904D01*
X43607142Y-74857142D01*
X43559523Y-74904761D01*
X43464285Y-74952380D01*
X43178571Y-74952380D01*
X43083333Y-74904761D01*
X43035714Y-74857142D01*
X111738095Y-57950000D02*
X111642857Y-57902380D01*
X111500000Y-57902380D01*
X111357142Y-57950000D01*
X111261904Y-58045238D01*
X111214285Y-58140476D01*
X111166666Y-58330952D01*
X111166666Y-58473809D01*
X111214285Y-58664285D01*
X111261904Y-58759523D01*
X111357142Y-58854761D01*
X111500000Y-58902380D01*
X111595238Y-58902380D01*
X111738095Y-58854761D01*
X111785714Y-58807142D01*
X111785714Y-58473809D01*
X111595238Y-58473809D01*
X112214285Y-58902380D02*
X112214285Y-57902380D01*
X112785714Y-58902380D01*
X112785714Y-57902380D01*
X113261904Y-58902380D02*
X113261904Y-57902380D01*
X113500000Y-57902380D01*
X113642857Y-57950000D01*
X113738095Y-58045238D01*
X113785714Y-58140476D01*
X113833333Y-58330952D01*
X113833333Y-58473809D01*
X113785714Y-58664285D01*
X113738095Y-58759523D01*
X113642857Y-58854761D01*
X113500000Y-58902380D01*
X113261904Y-58902380D01*
X49607142Y-72154761D02*
X49750000Y-72202380D01*
X49988095Y-72202380D01*
X50083333Y-72154761D01*
X50130952Y-72107142D01*
X50178571Y-72011904D01*
X50178571Y-71916666D01*
X50130952Y-71821428D01*
X50083333Y-71773809D01*
X49988095Y-71726190D01*
X49797619Y-71678571D01*
X49702380Y-71630952D01*
X49654761Y-71583333D01*
X49607142Y-71488095D01*
X49607142Y-71392857D01*
X49654761Y-71297619D01*
X49702380Y-71250000D01*
X49797619Y-71202380D01*
X50035714Y-71202380D01*
X50178571Y-71250000D01*
X50607142Y-72202380D02*
X50607142Y-71202380D01*
X50988095Y-71202380D01*
X51083333Y-71250000D01*
X51130952Y-71297619D01*
X51178571Y-71392857D01*
X51178571Y-71535714D01*
X51130952Y-71630952D01*
X51083333Y-71678571D01*
X50988095Y-71726190D01*
X50607142Y-71726190D01*
X51607142Y-72202380D02*
X51607142Y-71202380D01*
X52845238Y-72202380D02*
X52845238Y-71202380D01*
X53178571Y-71916666D01*
X53511904Y-71202380D01*
X53511904Y-72202380D01*
X54130952Y-72202380D02*
X54035714Y-72154761D01*
X53988095Y-72107142D01*
X53940476Y-72011904D01*
X53940476Y-71726190D01*
X53988095Y-71630952D01*
X54035714Y-71583333D01*
X54130952Y-71535714D01*
X54273809Y-71535714D01*
X54369047Y-71583333D01*
X54416666Y-71630952D01*
X54464285Y-71726190D01*
X54464285Y-72011904D01*
X54416666Y-72107142D01*
X54369047Y-72154761D01*
X54273809Y-72202380D01*
X54130952Y-72202380D01*
X54845238Y-72154761D02*
X54988095Y-72202380D01*
X55226190Y-72202380D01*
X55321428Y-72154761D01*
X55369047Y-72107142D01*
X55416666Y-72011904D01*
X55416666Y-71916666D01*
X55369047Y-71821428D01*
X55321428Y-71773809D01*
X55226190Y-71726190D01*
X55035714Y-71678571D01*
X54940476Y-71630952D01*
X54892857Y-71583333D01*
X54845238Y-71488095D01*
X54845238Y-71392857D01*
X54892857Y-71297619D01*
X54940476Y-71250000D01*
X55035714Y-71202380D01*
X55273809Y-71202380D01*
X55416666Y-71250000D01*
X55845238Y-72202380D02*
X55845238Y-71535714D01*
X55845238Y-71202380D02*
X55797619Y-71250000D01*
X55845238Y-71297619D01*
X55892857Y-71250000D01*
X55845238Y-71202380D01*
X55845238Y-71297619D01*
X125073318Y-56115993D02*
X125216175Y-56163612D01*
X125454270Y-56163612D01*
X125549508Y-56115993D01*
X125597127Y-56068374D01*
X125644746Y-55973136D01*
X125644746Y-55877898D01*
X125597127Y-55782660D01*
X125549508Y-55735041D01*
X125454270Y-55687422D01*
X125263794Y-55639803D01*
X125168556Y-55592184D01*
X125120937Y-55544565D01*
X125073318Y-55449327D01*
X125073318Y-55354089D01*
X125120937Y-55258851D01*
X125168556Y-55211232D01*
X125263794Y-55163612D01*
X125501889Y-55163612D01*
X125644746Y-55211232D01*
X126073318Y-56163612D02*
X126073318Y-55163612D01*
X126311413Y-55163612D01*
X126454270Y-55211232D01*
X126549508Y-55306470D01*
X126597127Y-55401708D01*
X126644746Y-55592184D01*
X126644746Y-55735041D01*
X126597127Y-55925517D01*
X126549508Y-56020755D01*
X126454270Y-56115993D01*
X126311413Y-56163612D01*
X126073318Y-56163612D01*
X127025699Y-55877898D02*
X127501889Y-55877898D01*
X126930461Y-56163612D02*
X127263794Y-55163612D01*
X127597127Y-56163612D01*
X112583333Y-51057142D02*
X112535714Y-51104761D01*
X112392857Y-51152380D01*
X112297619Y-51152380D01*
X112154761Y-51104761D01*
X112059523Y-51009523D01*
X112011904Y-50914285D01*
X111964285Y-50723809D01*
X111964285Y-50580952D01*
X112011904Y-50390476D01*
X112059523Y-50295238D01*
X112154761Y-50200000D01*
X112297619Y-50152380D01*
X112392857Y-50152380D01*
X112535714Y-50200000D01*
X112583333Y-50247619D01*
X112964285Y-51104761D02*
X113107142Y-51152380D01*
X113345238Y-51152380D01*
X113440476Y-51104761D01*
X113488095Y-51057142D01*
X113535714Y-50961904D01*
X113535714Y-50866666D01*
X113488095Y-50771428D01*
X113440476Y-50723809D01*
X113345238Y-50676190D01*
X113154761Y-50628571D01*
X113059523Y-50580952D01*
X113011904Y-50533333D01*
X112964285Y-50438095D01*
X112964285Y-50342857D01*
X113011904Y-50247619D01*
X113059523Y-50200000D01*
X113154761Y-50152380D01*
X113392857Y-50152380D01*
X113535714Y-50200000D01*
X38011904Y-67202380D02*
X38011904Y-66202380D01*
X38440476Y-66297619D02*
X38488095Y-66250000D01*
X38583333Y-66202380D01*
X38821428Y-66202380D01*
X38916666Y-66250000D01*
X38964285Y-66297619D01*
X39011904Y-66392857D01*
X39011904Y-66488095D01*
X38964285Y-66630952D01*
X38392857Y-67202380D01*
X39011904Y-67202380D01*
X40011904Y-67107142D02*
X39964285Y-67154761D01*
X39821428Y-67202380D01*
X39726190Y-67202380D01*
X39583333Y-67154761D01*
X39488095Y-67059523D01*
X39440476Y-66964285D01*
X39392857Y-66773809D01*
X39392857Y-66630952D01*
X39440476Y-66440476D01*
X39488095Y-66345238D01*
X39583333Y-66250000D01*
X39726190Y-66202380D01*
X39821428Y-66202380D01*
X39964285Y-66250000D01*
X40011904Y-66297619D01*
X41154761Y-67154761D02*
X41297619Y-67202380D01*
X41535714Y-67202380D01*
X41630952Y-67154761D01*
X41678571Y-67107142D01*
X41726190Y-67011904D01*
X41726190Y-66916666D01*
X41678571Y-66821428D01*
X41630952Y-66773809D01*
X41535714Y-66726190D01*
X41345238Y-66678571D01*
X41250000Y-66630952D01*
X41202380Y-66583333D01*
X41154761Y-66488095D01*
X41154761Y-66392857D01*
X41202380Y-66297619D01*
X41250000Y-66250000D01*
X41345238Y-66202380D01*
X41583333Y-66202380D01*
X41726190Y-66250000D01*
X42726190Y-67107142D02*
X42678571Y-67154761D01*
X42535714Y-67202380D01*
X42440476Y-67202380D01*
X42297619Y-67154761D01*
X42202380Y-67059523D01*
X42154761Y-66964285D01*
X42107142Y-66773809D01*
X42107142Y-66630952D01*
X42154761Y-66440476D01*
X42202380Y-66345238D01*
X42297619Y-66250000D01*
X42440476Y-66202380D01*
X42535714Y-66202380D01*
X42678571Y-66250000D01*
X42726190Y-66297619D01*
X43630952Y-67202380D02*
X43154761Y-67202380D01*
X43154761Y-66202380D01*
%TO.C,Expansion/Debug Header*%
X37396642Y-56745909D02*
X37729975Y-56745909D01*
X37872832Y-57269718D02*
X37396642Y-57269718D01*
X37396642Y-56269718D01*
X37872832Y-56269718D01*
X38206166Y-57269718D02*
X38729975Y-56603052D01*
X38206166Y-56603052D02*
X38729975Y-57269718D01*
X39110927Y-56603052D02*
X39110927Y-57603052D01*
X39110927Y-56650671D02*
X39206166Y-56603052D01*
X39396642Y-56603052D01*
X39491880Y-56650671D01*
X39539499Y-56698290D01*
X39587118Y-56793528D01*
X39587118Y-57079242D01*
X39539499Y-57174480D01*
X39491880Y-57222099D01*
X39396642Y-57269718D01*
X39206166Y-57269718D01*
X39110927Y-57222099D01*
X40444261Y-57269718D02*
X40444261Y-56745909D01*
X40396642Y-56650671D01*
X40301404Y-56603052D01*
X40110927Y-56603052D01*
X40015689Y-56650671D01*
X40444261Y-57222099D02*
X40349023Y-57269718D01*
X40110927Y-57269718D01*
X40015689Y-57222099D01*
X39968070Y-57126861D01*
X39968070Y-57031623D01*
X40015689Y-56936385D01*
X40110927Y-56888766D01*
X40349023Y-56888766D01*
X40444261Y-56841147D01*
X40920451Y-56603052D02*
X40920451Y-57269718D01*
X40920451Y-56698290D02*
X40968070Y-56650671D01*
X41063308Y-56603052D01*
X41206166Y-56603052D01*
X41301404Y-56650671D01*
X41349023Y-56745909D01*
X41349023Y-57269718D01*
X41777594Y-57222099D02*
X41872832Y-57269718D01*
X42063308Y-57269718D01*
X42158546Y-57222099D01*
X42206166Y-57126861D01*
X42206166Y-57079242D01*
X42158546Y-56984004D01*
X42063308Y-56936385D01*
X41920451Y-56936385D01*
X41825213Y-56888766D01*
X41777594Y-56793528D01*
X41777594Y-56745909D01*
X41825213Y-56650671D01*
X41920451Y-56603052D01*
X42063308Y-56603052D01*
X42158546Y-56650671D01*
X42634737Y-57269718D02*
X42634737Y-56603052D01*
X42634737Y-56269718D02*
X42587118Y-56317338D01*
X42634737Y-56364957D01*
X42682356Y-56317338D01*
X42634737Y-56269718D01*
X42634737Y-56364957D01*
X43253785Y-57269718D02*
X43158546Y-57222099D01*
X43110927Y-57174480D01*
X43063308Y-57079242D01*
X43063308Y-56793528D01*
X43110927Y-56698290D01*
X43158546Y-56650671D01*
X43253785Y-56603052D01*
X43396642Y-56603052D01*
X43491880Y-56650671D01*
X43539499Y-56698290D01*
X43587118Y-56793528D01*
X43587118Y-57079242D01*
X43539499Y-57174480D01*
X43491880Y-57222099D01*
X43396642Y-57269718D01*
X43253785Y-57269718D01*
X44015689Y-56603052D02*
X44015689Y-57269718D01*
X44015689Y-56698290D02*
X44063308Y-56650671D01*
X44158546Y-56603052D01*
X44301404Y-56603052D01*
X44396642Y-56650671D01*
X44444261Y-56745909D01*
X44444261Y-57269718D01*
X45634737Y-56222099D02*
X44777594Y-57507814D01*
X45968070Y-57269718D02*
X45968070Y-56269718D01*
X46206166Y-56269718D01*
X46349023Y-56317338D01*
X46444261Y-56412576D01*
X46491880Y-56507814D01*
X46539499Y-56698290D01*
X46539499Y-56841147D01*
X46491880Y-57031623D01*
X46444261Y-57126861D01*
X46349023Y-57222099D01*
X46206166Y-57269718D01*
X45968070Y-57269718D01*
X47349023Y-57222099D02*
X47253785Y-57269718D01*
X47063308Y-57269718D01*
X46968070Y-57222099D01*
X46920451Y-57126861D01*
X46920451Y-56745909D01*
X46968070Y-56650671D01*
X47063308Y-56603052D01*
X47253785Y-56603052D01*
X47349023Y-56650671D01*
X47396642Y-56745909D01*
X47396642Y-56841147D01*
X46920451Y-56936385D01*
X47825213Y-57269718D02*
X47825213Y-56269718D01*
X47825213Y-56650671D02*
X47920451Y-56603052D01*
X48110927Y-56603052D01*
X48206166Y-56650671D01*
X48253785Y-56698290D01*
X48301404Y-56793528D01*
X48301404Y-57079242D01*
X48253785Y-57174480D01*
X48206166Y-57222099D01*
X48110927Y-57269718D01*
X47920451Y-57269718D01*
X47825213Y-57222099D01*
X49158546Y-56603052D02*
X49158546Y-57269718D01*
X48729975Y-56603052D02*
X48729975Y-57126861D01*
X48777594Y-57222099D01*
X48872832Y-57269718D01*
X49015689Y-57269718D01*
X49110927Y-57222099D01*
X49158546Y-57174480D01*
X50063308Y-56603052D02*
X50063308Y-57412576D01*
X50015689Y-57507814D01*
X49968070Y-57555433D01*
X49872832Y-57603052D01*
X49729975Y-57603052D01*
X49634737Y-57555433D01*
X50063308Y-57222099D02*
X49968070Y-57269718D01*
X49777594Y-57269718D01*
X49682356Y-57222099D01*
X49634737Y-57174480D01*
X49587118Y-57079242D01*
X49587118Y-56793528D01*
X49634737Y-56698290D01*
X49682356Y-56650671D01*
X49777594Y-56603052D01*
X49968070Y-56603052D01*
X50063308Y-56650671D01*
X51301404Y-57269718D02*
X51301404Y-56269718D01*
X51301404Y-56745909D02*
X51872832Y-56745909D01*
X51872832Y-57269718D02*
X51872832Y-56269718D01*
X52729975Y-57222099D02*
X52634737Y-57269718D01*
X52444261Y-57269718D01*
X52349023Y-57222099D01*
X52301404Y-57126861D01*
X52301404Y-56745909D01*
X52349023Y-56650671D01*
X52444261Y-56603052D01*
X52634737Y-56603052D01*
X52729975Y-56650671D01*
X52777594Y-56745909D01*
X52777594Y-56841147D01*
X52301404Y-56936385D01*
X53634737Y-57269718D02*
X53634737Y-56745909D01*
X53587118Y-56650671D01*
X53491880Y-56603052D01*
X53301404Y-56603052D01*
X53206166Y-56650671D01*
X53634737Y-57222099D02*
X53539499Y-57269718D01*
X53301404Y-57269718D01*
X53206166Y-57222099D01*
X53158546Y-57126861D01*
X53158546Y-57031623D01*
X53206166Y-56936385D01*
X53301404Y-56888766D01*
X53539499Y-56888766D01*
X53634737Y-56841147D01*
X54539499Y-57269718D02*
X54539499Y-56269718D01*
X54539499Y-57222099D02*
X54444261Y-57269718D01*
X54253785Y-57269718D01*
X54158546Y-57222099D01*
X54110927Y-57174480D01*
X54063308Y-57079242D01*
X54063308Y-56793528D01*
X54110927Y-56698290D01*
X54158546Y-56650671D01*
X54253785Y-56603052D01*
X54444261Y-56603052D01*
X54539499Y-56650671D01*
X55396642Y-57222099D02*
X55301404Y-57269718D01*
X55110927Y-57269718D01*
X55015689Y-57222099D01*
X54968070Y-57126861D01*
X54968070Y-56745909D01*
X55015689Y-56650671D01*
X55110927Y-56603052D01*
X55301404Y-56603052D01*
X55396642Y-56650671D01*
X55444261Y-56745909D01*
X55444261Y-56841147D01*
X54968070Y-56936385D01*
X55872832Y-57269718D02*
X55872832Y-56603052D01*
X55872832Y-56793528D02*
X55920451Y-56698290D01*
X55968070Y-56650671D01*
X56063308Y-56603052D01*
X56158546Y-56603052D01*
%TO.C,B*%
X103531428Y-150134571D02*
X103674285Y-150182190D01*
X103721904Y-150229809D01*
X103769523Y-150325047D01*
X103769523Y-150467904D01*
X103721904Y-150563142D01*
X103674285Y-150610761D01*
X103579047Y-150658380D01*
X103198095Y-150658380D01*
X103198095Y-149658380D01*
X103531428Y-149658380D01*
X103626666Y-149706000D01*
X103674285Y-149753619D01*
X103721904Y-149848857D01*
X103721904Y-149944095D01*
X103674285Y-150039333D01*
X103626666Y-150086952D01*
X103531428Y-150134571D01*
X103198095Y-150134571D01*
%TO.C,START*%
X80860238Y-129428067D02*
X81003095Y-129475686D01*
X81241190Y-129475686D01*
X81336429Y-129428067D01*
X81384048Y-129380448D01*
X81431667Y-129285210D01*
X81431667Y-129189972D01*
X81384048Y-129094734D01*
X81336429Y-129047115D01*
X81241190Y-128999496D01*
X81050714Y-128951877D01*
X80955476Y-128904258D01*
X80907857Y-128856639D01*
X80860238Y-128761401D01*
X80860238Y-128666163D01*
X80907857Y-128570925D01*
X80955476Y-128523306D01*
X81050714Y-128475686D01*
X81288809Y-128475686D01*
X81431667Y-128523306D01*
X81717381Y-128475686D02*
X82288809Y-128475686D01*
X82003095Y-129475686D02*
X82003095Y-128475686D01*
X82574524Y-129189972D02*
X83050714Y-129189972D01*
X82479286Y-129475686D02*
X82812619Y-128475686D01*
X83145952Y-129475686D01*
X84050714Y-129475686D02*
X83717381Y-128999496D01*
X83479286Y-129475686D02*
X83479286Y-128475686D01*
X83860238Y-128475686D01*
X83955476Y-128523306D01*
X84003095Y-128570925D01*
X84050714Y-128666163D01*
X84050714Y-128809020D01*
X84003095Y-128904258D01*
X83955476Y-128951877D01*
X83860238Y-128999496D01*
X83479286Y-128999496D01*
X84336429Y-128475686D02*
X84907857Y-128475686D01*
X84622143Y-129475686D02*
X84622143Y-128475686D01*
%TO.C,AMS1117-3.3*%
X88000000Y-108166666D02*
X88476190Y-108166666D01*
X87904761Y-108452380D02*
X88238095Y-107452380D01*
X88571428Y-108452380D01*
X88904761Y-108452380D02*
X88904761Y-107452380D01*
X89238095Y-108166666D01*
X89571428Y-107452380D01*
X89571428Y-108452380D01*
X90000000Y-108404761D02*
X90142857Y-108452380D01*
X90380952Y-108452380D01*
X90476190Y-108404761D01*
X90523809Y-108357142D01*
X90571428Y-108261904D01*
X90571428Y-108166666D01*
X90523809Y-108071428D01*
X90476190Y-108023809D01*
X90380952Y-107976190D01*
X90190476Y-107928571D01*
X90095238Y-107880952D01*
X90047619Y-107833333D01*
X90000000Y-107738095D01*
X90000000Y-107642857D01*
X90047619Y-107547619D01*
X90095238Y-107500000D01*
X90190476Y-107452380D01*
X90428571Y-107452380D01*
X90571428Y-107500000D01*
X91523809Y-108452380D02*
X90952380Y-108452380D01*
X91238095Y-108452380D02*
X91238095Y-107452380D01*
X91142857Y-107595238D01*
X91047619Y-107690476D01*
X90952380Y-107738095D01*
X92476190Y-108452380D02*
X91904761Y-108452380D01*
X92190476Y-108452380D02*
X92190476Y-107452380D01*
X92095238Y-107595238D01*
X92000000Y-107690476D01*
X91904761Y-107738095D01*
X93428571Y-108452380D02*
X92857142Y-108452380D01*
X93142857Y-108452380D02*
X93142857Y-107452380D01*
X93047619Y-107595238D01*
X92952380Y-107690476D01*
X92857142Y-107738095D01*
X93761904Y-107452380D02*
X94428571Y-107452380D01*
X94000000Y-108452380D01*
X94809523Y-108071428D02*
X95571428Y-108071428D01*
X95952380Y-107452380D02*
X96571428Y-107452380D01*
X96238095Y-107833333D01*
X96380952Y-107833333D01*
X96476190Y-107880952D01*
X96523809Y-107928571D01*
X96571428Y-108023809D01*
X96571428Y-108261904D01*
X96523809Y-108357142D01*
X96476190Y-108404761D01*
X96380952Y-108452380D01*
X96095238Y-108452380D01*
X96000000Y-108404761D01*
X95952380Y-108357142D01*
X97000000Y-108357142D02*
X97047619Y-108404761D01*
X97000000Y-108452380D01*
X96952380Y-108404761D01*
X97000000Y-108357142D01*
X97000000Y-108452380D01*
X97380952Y-107452380D02*
X98000000Y-107452380D01*
X97666666Y-107833333D01*
X97809523Y-107833333D01*
X97904761Y-107880952D01*
X97952380Y-107928571D01*
X98000000Y-108023809D01*
X98000000Y-108261904D01*
X97952380Y-108357142D01*
X97904761Y-108404761D01*
X97809523Y-108452380D01*
X97523809Y-108452380D01*
X97428571Y-108404761D01*
X97380952Y-108357142D01*
%TO.C,74HC165N*%
X39024285Y-122122380D02*
X39690952Y-122122380D01*
X39262380Y-123122380D01*
X40500476Y-122455714D02*
X40500476Y-123122380D01*
X40262380Y-122074761D02*
X40024285Y-122789047D01*
X40643333Y-122789047D01*
X41024285Y-123122380D02*
X41024285Y-122122380D01*
X41024285Y-122598571D02*
X41595714Y-122598571D01*
X41595714Y-123122380D02*
X41595714Y-122122380D01*
X42643333Y-123027142D02*
X42595714Y-123074761D01*
X42452857Y-123122380D01*
X42357619Y-123122380D01*
X42214761Y-123074761D01*
X42119523Y-122979523D01*
X42071904Y-122884285D01*
X42024285Y-122693809D01*
X42024285Y-122550952D01*
X42071904Y-122360476D01*
X42119523Y-122265238D01*
X42214761Y-122170000D01*
X42357619Y-122122380D01*
X42452857Y-122122380D01*
X42595714Y-122170000D01*
X42643333Y-122217619D01*
X43595714Y-123122380D02*
X43024285Y-123122380D01*
X43310000Y-123122380D02*
X43310000Y-122122380D01*
X43214761Y-122265238D01*
X43119523Y-122360476D01*
X43024285Y-122408095D01*
X44452857Y-122122380D02*
X44262380Y-122122380D01*
X44167142Y-122170000D01*
X44119523Y-122217619D01*
X44024285Y-122360476D01*
X43976666Y-122550952D01*
X43976666Y-122931904D01*
X44024285Y-123027142D01*
X44071904Y-123074761D01*
X44167142Y-123122380D01*
X44357619Y-123122380D01*
X44452857Y-123074761D01*
X44500476Y-123027142D01*
X44548095Y-122931904D01*
X44548095Y-122693809D01*
X44500476Y-122598571D01*
X44452857Y-122550952D01*
X44357619Y-122503333D01*
X44167142Y-122503333D01*
X44071904Y-122550952D01*
X44024285Y-122598571D01*
X43976666Y-122693809D01*
X45452857Y-122122380D02*
X44976666Y-122122380D01*
X44929047Y-122598571D01*
X44976666Y-122550952D01*
X45071904Y-122503333D01*
X45310000Y-122503333D01*
X45405238Y-122550952D01*
X45452857Y-122598571D01*
X45500476Y-122693809D01*
X45500476Y-122931904D01*
X45452857Y-123027142D01*
X45405238Y-123074761D01*
X45310000Y-123122380D01*
X45071904Y-123122380D01*
X44976666Y-123074761D01*
X44929047Y-123027142D01*
X45929047Y-123122380D02*
X45929047Y-122122380D01*
X46500476Y-123122380D01*
X46500476Y-122122380D01*
%TO.C,LEFT*%
X42047619Y-150578380D02*
X41571428Y-150578380D01*
X41571428Y-149578380D01*
X42380952Y-150054571D02*
X42714285Y-150054571D01*
X42857142Y-150578380D02*
X42380952Y-150578380D01*
X42380952Y-149578380D01*
X42857142Y-149578380D01*
X43619047Y-150054571D02*
X43285714Y-150054571D01*
X43285714Y-150578380D02*
X43285714Y-149578380D01*
X43761904Y-149578380D01*
X44000000Y-149578380D02*
X44571428Y-149578380D01*
X44285714Y-150578380D02*
X44285714Y-149578380D01*
%TO.C,100k*%
X64452380Y-89071428D02*
X64452380Y-89642857D01*
X64452380Y-89357142D02*
X63452380Y-89357142D01*
X63595238Y-89452380D01*
X63690476Y-89547619D01*
X63738095Y-89642857D01*
X63452380Y-88452380D02*
X63452380Y-88357142D01*
X63500000Y-88261904D01*
X63547619Y-88214285D01*
X63642857Y-88166666D01*
X63833333Y-88119047D01*
X64071428Y-88119047D01*
X64261904Y-88166666D01*
X64357142Y-88214285D01*
X64404761Y-88261904D01*
X64452380Y-88357142D01*
X64452380Y-88452380D01*
X64404761Y-88547619D01*
X64357142Y-88595238D01*
X64261904Y-88642857D01*
X64071428Y-88690476D01*
X63833333Y-88690476D01*
X63642857Y-88642857D01*
X63547619Y-88595238D01*
X63500000Y-88547619D01*
X63452380Y-88452380D01*
X63452380Y-87500000D02*
X63452380Y-87404761D01*
X63500000Y-87309523D01*
X63547619Y-87261904D01*
X63642857Y-87214285D01*
X63833333Y-87166666D01*
X64071428Y-87166666D01*
X64261904Y-87214285D01*
X64357142Y-87261904D01*
X64404761Y-87309523D01*
X64452380Y-87404761D01*
X64452380Y-87500000D01*
X64404761Y-87595238D01*
X64357142Y-87642857D01*
X64261904Y-87690476D01*
X64071428Y-87738095D01*
X63833333Y-87738095D01*
X63642857Y-87690476D01*
X63547619Y-87642857D01*
X63500000Y-87595238D01*
X63452380Y-87500000D01*
X64452380Y-86738095D02*
X63452380Y-86738095D01*
X64071428Y-86642857D02*
X64452380Y-86357142D01*
X63785714Y-86357142D02*
X64166666Y-86738095D01*
%TO.C,A*%
X122761904Y-135372666D02*
X123238095Y-135372666D01*
X122666666Y-135658380D02*
X123000000Y-134658380D01*
X123333333Y-135658380D01*
%TO.C,BME280*%
X120178571Y-55130952D02*
X120226190Y-54988095D01*
X120273809Y-54940476D01*
X120369047Y-54892857D01*
X120511904Y-54892857D01*
X120607142Y-54940476D01*
X120654761Y-54988095D01*
X120702380Y-55083333D01*
X120702380Y-55464285D01*
X119702380Y-55464285D01*
X119702380Y-55130952D01*
X119750000Y-55035714D01*
X119797619Y-54988095D01*
X119892857Y-54940476D01*
X119988095Y-54940476D01*
X120083333Y-54988095D01*
X120130952Y-55035714D01*
X120178571Y-55130952D01*
X120178571Y-55464285D01*
X120702380Y-54464285D02*
X119702380Y-54464285D01*
X120416666Y-54130952D01*
X119702380Y-53797619D01*
X120702380Y-53797619D01*
X120178571Y-53321428D02*
X120178571Y-52988095D01*
X120702380Y-52845238D02*
X120702380Y-53321428D01*
X119702380Y-53321428D01*
X119702380Y-52845238D01*
X119797619Y-52464285D02*
X119750000Y-52416666D01*
X119702380Y-52321428D01*
X119702380Y-52083333D01*
X119750000Y-51988095D01*
X119797619Y-51940476D01*
X119892857Y-51892857D01*
X119988095Y-51892857D01*
X120130952Y-51940476D01*
X120702380Y-52511904D01*
X120702380Y-51892857D01*
X120130952Y-51321428D02*
X120083333Y-51416666D01*
X120035714Y-51464285D01*
X119940476Y-51511904D01*
X119892857Y-51511904D01*
X119797619Y-51464285D01*
X119750000Y-51416666D01*
X119702380Y-51321428D01*
X119702380Y-51130952D01*
X119750000Y-51035714D01*
X119797619Y-50988095D01*
X119892857Y-50940476D01*
X119940476Y-50940476D01*
X120035714Y-50988095D01*
X120083333Y-51035714D01*
X120130952Y-51130952D01*
X120130952Y-51321428D01*
X120178571Y-51416666D01*
X120226190Y-51464285D01*
X120321428Y-51511904D01*
X120511904Y-51511904D01*
X120607142Y-51464285D01*
X120654761Y-51416666D01*
X120702380Y-51321428D01*
X120702380Y-51130952D01*
X120654761Y-51035714D01*
X120607142Y-50988095D01*
X120511904Y-50940476D01*
X120321428Y-50940476D01*
X120226190Y-50988095D01*
X120178571Y-51035714D01*
X120130952Y-51130952D01*
X119702380Y-50321428D02*
X119702380Y-50226190D01*
X119750000Y-50130952D01*
X119797619Y-50083333D01*
X119892857Y-50035714D01*
X120083333Y-49988095D01*
X120321428Y-49988095D01*
X120511904Y-50035714D01*
X120607142Y-50083333D01*
X120654761Y-50130952D01*
X120702380Y-50226190D01*
X120702380Y-50321428D01*
X120654761Y-50416666D01*
X120607142Y-50464285D01*
X120511904Y-50511904D01*
X120321428Y-50559523D01*
X120083333Y-50559523D01*
X119892857Y-50511904D01*
X119797619Y-50464285D01*
X119750000Y-50416666D01*
X119702380Y-50321428D01*
%TO.C,C2*%
X78507142Y-111666666D02*
X78554761Y-111714285D01*
X78602380Y-111857142D01*
X78602380Y-111952380D01*
X78554761Y-112095238D01*
X78459523Y-112190476D01*
X78364285Y-112238095D01*
X78173809Y-112285714D01*
X78030952Y-112285714D01*
X77840476Y-112238095D01*
X77745238Y-112190476D01*
X77650000Y-112095238D01*
X77602380Y-111952380D01*
X77602380Y-111857142D01*
X77650000Y-111714285D01*
X77697619Y-111666666D01*
X77697619Y-111285714D02*
X77650000Y-111238095D01*
X77602380Y-111142857D01*
X77602380Y-110904761D01*
X77650000Y-110809523D01*
X77697619Y-110761904D01*
X77792857Y-110714285D01*
X77888095Y-110714285D01*
X78030952Y-110761904D01*
X78602380Y-111333333D01*
X78602380Y-110714285D01*
%TO.C,M3*%
X36190476Y-46452380D02*
X36190476Y-45452380D01*
X36523809Y-46166666D01*
X36857142Y-45452380D01*
X36857142Y-46452380D01*
X37238095Y-45452380D02*
X37857142Y-45452380D01*
X37523809Y-45833333D01*
X37666666Y-45833333D01*
X37761904Y-45880952D01*
X37809523Y-45928571D01*
X37857142Y-46023809D01*
X37857142Y-46261904D01*
X37809523Y-46357142D01*
X37761904Y-46404761D01*
X37666666Y-46452380D01*
X37380952Y-46452380D01*
X37285714Y-46404761D01*
X37238095Y-46357142D01*
%TO.C,Beeper boy*%
X36557142Y-105728571D02*
X36700000Y-105776190D01*
X36747619Y-105823809D01*
X36795238Y-105919047D01*
X36795238Y-106061904D01*
X36747619Y-106157142D01*
X36700000Y-106204761D01*
X36604761Y-106252380D01*
X36223809Y-106252380D01*
X36223809Y-105252380D01*
X36557142Y-105252380D01*
X36652380Y-105300000D01*
X36700000Y-105347619D01*
X36747619Y-105442857D01*
X36747619Y-105538095D01*
X36700000Y-105633333D01*
X36652380Y-105680952D01*
X36557142Y-105728571D01*
X36223809Y-105728571D01*
X37604761Y-106204761D02*
X37509523Y-106252380D01*
X37319047Y-106252380D01*
X37223809Y-106204761D01*
X37176190Y-106109523D01*
X37176190Y-105728571D01*
X37223809Y-105633333D01*
X37319047Y-105585714D01*
X37509523Y-105585714D01*
X37604761Y-105633333D01*
X37652380Y-105728571D01*
X37652380Y-105823809D01*
X37176190Y-105919047D01*
X38461904Y-106204761D02*
X38366666Y-106252380D01*
X38176190Y-106252380D01*
X38080952Y-106204761D01*
X38033333Y-106109523D01*
X38033333Y-105728571D01*
X38080952Y-105633333D01*
X38176190Y-105585714D01*
X38366666Y-105585714D01*
X38461904Y-105633333D01*
X38509523Y-105728571D01*
X38509523Y-105823809D01*
X38033333Y-105919047D01*
X38938095Y-105585714D02*
X38938095Y-106585714D01*
X38938095Y-105633333D02*
X39033333Y-105585714D01*
X39223809Y-105585714D01*
X39319047Y-105633333D01*
X39366666Y-105680952D01*
X39414285Y-105776190D01*
X39414285Y-106061904D01*
X39366666Y-106157142D01*
X39319047Y-106204761D01*
X39223809Y-106252380D01*
X39033333Y-106252380D01*
X38938095Y-106204761D01*
X40223809Y-106204761D02*
X40128571Y-106252380D01*
X39938095Y-106252380D01*
X39842857Y-106204761D01*
X39795238Y-106109523D01*
X39795238Y-105728571D01*
X39842857Y-105633333D01*
X39938095Y-105585714D01*
X40128571Y-105585714D01*
X40223809Y-105633333D01*
X40271428Y-105728571D01*
X40271428Y-105823809D01*
X39795238Y-105919047D01*
X40700000Y-106252380D02*
X40700000Y-105585714D01*
X40700000Y-105776190D02*
X40747619Y-105680952D01*
X40795238Y-105633333D01*
X40890476Y-105585714D01*
X40985714Y-105585714D01*
X42080952Y-106252380D02*
X42080952Y-105252380D01*
X42080952Y-105633333D02*
X42176190Y-105585714D01*
X42366666Y-105585714D01*
X42461904Y-105633333D01*
X42509523Y-105680952D01*
X42557142Y-105776190D01*
X42557142Y-106061904D01*
X42509523Y-106157142D01*
X42461904Y-106204761D01*
X42366666Y-106252380D01*
X42176190Y-106252380D01*
X42080952Y-106204761D01*
X43128571Y-106252380D02*
X43033333Y-106204761D01*
X42985714Y-106157142D01*
X42938095Y-106061904D01*
X42938095Y-105776190D01*
X42985714Y-105680952D01*
X43033333Y-105633333D01*
X43128571Y-105585714D01*
X43271428Y-105585714D01*
X43366666Y-105633333D01*
X43414285Y-105680952D01*
X43461904Y-105776190D01*
X43461904Y-106061904D01*
X43414285Y-106157142D01*
X43366666Y-106204761D01*
X43271428Y-106252380D01*
X43128571Y-106252380D01*
X43795238Y-105585714D02*
X44033333Y-106252380D01*
X44271428Y-105585714D02*
X44033333Y-106252380D01*
X43938095Y-106490476D01*
X43890476Y-106538095D01*
X43795238Y-106585714D01*
X36009047Y-110531428D02*
X36770952Y-110531428D01*
X36390000Y-110912380D02*
X36390000Y-110150476D01*
%TO.C,ESP32 Module*%
X83768571Y-95142856D02*
X83768571Y-94809522D01*
X84292380Y-94666665D02*
X84292380Y-95142856D01*
X83292380Y-95142856D01*
X83292380Y-94666665D01*
X84244761Y-94285713D02*
X84292380Y-94142856D01*
X84292380Y-93904760D01*
X84244761Y-93809522D01*
X84197142Y-93761903D01*
X84101904Y-93714284D01*
X84006666Y-93714284D01*
X83911428Y-93761903D01*
X83863809Y-93809522D01*
X83816190Y-93904760D01*
X83768571Y-94095237D01*
X83720952Y-94190475D01*
X83673333Y-94238094D01*
X83578095Y-94285713D01*
X83482857Y-94285713D01*
X83387619Y-94238094D01*
X83340000Y-94190475D01*
X83292380Y-94095237D01*
X83292380Y-93857141D01*
X83340000Y-93714284D01*
X84292380Y-93285713D02*
X83292380Y-93285713D01*
X83292380Y-92904760D01*
X83340000Y-92809522D01*
X83387619Y-92761903D01*
X83482857Y-92714284D01*
X83625714Y-92714284D01*
X83720952Y-92761903D01*
X83768571Y-92809522D01*
X83816190Y-92904760D01*
X83816190Y-93285713D01*
X83292380Y-92380951D02*
X83292380Y-91761903D01*
X83673333Y-92095237D01*
X83673333Y-91952379D01*
X83720952Y-91857141D01*
X83768571Y-91809522D01*
X83863809Y-91761903D01*
X84101904Y-91761903D01*
X84197142Y-91809522D01*
X84244761Y-91857141D01*
X84292380Y-91952379D01*
X84292380Y-92238094D01*
X84244761Y-92333332D01*
X84197142Y-92380951D01*
X83387619Y-91380951D02*
X83340000Y-91333332D01*
X83292380Y-91238094D01*
X83292380Y-90999999D01*
X83340000Y-90904760D01*
X83387619Y-90857141D01*
X83482857Y-90809522D01*
X83578095Y-90809522D01*
X83720952Y-90857141D01*
X84292380Y-91428570D01*
X84292380Y-90809522D01*
X84292380Y-89619046D02*
X83292380Y-89619046D01*
X84006666Y-89285713D01*
X83292380Y-88952379D01*
X84292380Y-88952379D01*
X84292380Y-88333332D02*
X84244761Y-88428570D01*
X84197142Y-88476189D01*
X84101904Y-88523808D01*
X83816190Y-88523808D01*
X83720952Y-88476189D01*
X83673333Y-88428570D01*
X83625714Y-88333332D01*
X83625714Y-88190475D01*
X83673333Y-88095237D01*
X83720952Y-88047618D01*
X83816190Y-87999999D01*
X84101904Y-87999999D01*
X84197142Y-88047618D01*
X84244761Y-88095237D01*
X84292380Y-88190475D01*
X84292380Y-88333332D01*
X84292380Y-87142856D02*
X83292380Y-87142856D01*
X84244761Y-87142856D02*
X84292380Y-87238094D01*
X84292380Y-87428570D01*
X84244761Y-87523808D01*
X84197142Y-87571427D01*
X84101904Y-87619046D01*
X83816190Y-87619046D01*
X83720952Y-87571427D01*
X83673333Y-87523808D01*
X83625714Y-87428570D01*
X83625714Y-87238094D01*
X83673333Y-87142856D01*
X83625714Y-86238094D02*
X84292380Y-86238094D01*
X83625714Y-86666665D02*
X84149523Y-86666665D01*
X84244761Y-86619046D01*
X84292380Y-86523808D01*
X84292380Y-86380951D01*
X84244761Y-86285713D01*
X84197142Y-86238094D01*
X84292380Y-85619046D02*
X84244761Y-85714284D01*
X84149523Y-85761903D01*
X83292380Y-85761903D01*
X84244761Y-84857141D02*
X84292380Y-84952379D01*
X84292380Y-85142856D01*
X84244761Y-85238094D01*
X84149523Y-85285713D01*
X83768571Y-85285713D01*
X83673333Y-85238094D01*
X83625714Y-85142856D01*
X83625714Y-84952379D01*
X83673333Y-84857141D01*
X83768571Y-84809522D01*
X83863809Y-84809522D01*
X83959047Y-85285713D01*
X102698571Y-89928571D02*
X103031904Y-89928571D01*
X103174761Y-90452380D02*
X102698571Y-90452380D01*
X102698571Y-89452380D01*
X103174761Y-89452380D01*
X103555714Y-90404761D02*
X103698571Y-90452380D01*
X103936666Y-90452380D01*
X104031904Y-90404761D01*
X104079523Y-90357142D01*
X104127142Y-90261904D01*
X104127142Y-90166666D01*
X104079523Y-90071428D01*
X104031904Y-90023809D01*
X103936666Y-89976190D01*
X103746190Y-89928571D01*
X103650952Y-89880952D01*
X103603333Y-89833333D01*
X103555714Y-89738095D01*
X103555714Y-89642857D01*
X103603333Y-89547619D01*
X103650952Y-89500000D01*
X103746190Y-89452380D01*
X103984285Y-89452380D01*
X104127142Y-89500000D01*
X104555714Y-90452380D02*
X104555714Y-89452380D01*
X104936666Y-89452380D01*
X105031904Y-89500000D01*
X105079523Y-89547619D01*
X105127142Y-89642857D01*
X105127142Y-89785714D01*
X105079523Y-89880952D01*
X105031904Y-89928571D01*
X104936666Y-89976190D01*
X104555714Y-89976190D01*
X105460476Y-89452380D02*
X106079523Y-89452380D01*
X105746190Y-89833333D01*
X105889047Y-89833333D01*
X105984285Y-89880952D01*
X106031904Y-89928571D01*
X106079523Y-90023809D01*
X106079523Y-90261904D01*
X106031904Y-90357142D01*
X105984285Y-90404761D01*
X105889047Y-90452380D01*
X105603333Y-90452380D01*
X105508095Y-90404761D01*
X105460476Y-90357142D01*
X106460476Y-89547619D02*
X106508095Y-89500000D01*
X106603333Y-89452380D01*
X106841428Y-89452380D01*
X106936666Y-89500000D01*
X106984285Y-89547619D01*
X107031904Y-89642857D01*
X107031904Y-89738095D01*
X106984285Y-89880952D01*
X106412857Y-90452380D01*
X107031904Y-90452380D01*
X107460476Y-90071428D02*
X108222380Y-90071428D01*
X108698571Y-90452380D02*
X108698571Y-89452380D01*
X108936666Y-89452380D01*
X109079523Y-89500000D01*
X109174761Y-89595238D01*
X109222380Y-89690476D01*
X109270000Y-89880952D01*
X109270000Y-90023809D01*
X109222380Y-90214285D01*
X109174761Y-90309523D01*
X109079523Y-90404761D01*
X108936666Y-90452380D01*
X108698571Y-90452380D01*
X110079523Y-90404761D02*
X109984285Y-90452380D01*
X109793809Y-90452380D01*
X109698571Y-90404761D01*
X109650952Y-90309523D01*
X109650952Y-89928571D01*
X109698571Y-89833333D01*
X109793809Y-89785714D01*
X109984285Y-89785714D01*
X110079523Y-89833333D01*
X110127142Y-89928571D01*
X110127142Y-90023809D01*
X109650952Y-90119047D01*
X110460476Y-89785714D02*
X110698571Y-90452380D01*
X110936666Y-89785714D01*
X111317619Y-90452380D02*
X111317619Y-89452380D01*
X111889047Y-90452380D02*
X111460476Y-89880952D01*
X111889047Y-89452380D02*
X111317619Y-90023809D01*
X112317619Y-90452380D02*
X112317619Y-89785714D01*
X112317619Y-89452380D02*
X112270000Y-89500000D01*
X112317619Y-89547619D01*
X112365238Y-89500000D01*
X112317619Y-89452380D01*
X112317619Y-89547619D01*
X112650952Y-89785714D02*
X113031904Y-89785714D01*
X112793809Y-89452380D02*
X112793809Y-90309523D01*
X112841428Y-90404761D01*
X112936666Y-90452380D01*
X113031904Y-90452380D01*
X113936666Y-90357142D02*
X113889047Y-90404761D01*
X113746190Y-90452380D01*
X113650952Y-90452380D01*
X113508095Y-90404761D01*
X113412857Y-90309523D01*
X113365238Y-90214285D01*
X113317619Y-90023809D01*
X113317619Y-89880952D01*
X113365238Y-89690476D01*
X113412857Y-89595238D01*
X113508095Y-89500000D01*
X113650952Y-89452380D01*
X113746190Y-89452380D01*
X113889047Y-89500000D01*
X113936666Y-89547619D01*
X115127142Y-89452380D02*
X115127142Y-90261904D01*
X115174761Y-90357142D01*
X115222380Y-90404761D01*
X115317619Y-90452380D01*
X115508095Y-90452380D01*
X115603333Y-90404761D01*
X115650952Y-90357142D01*
X115698571Y-90261904D01*
X115698571Y-89452380D01*
X116174761Y-90357142D02*
X116222380Y-90404761D01*
X116174761Y-90452380D01*
X116127142Y-90404761D01*
X116174761Y-90357142D01*
X116174761Y-90452380D01*
X116984285Y-89928571D02*
X116650952Y-89928571D01*
X116650952Y-90452380D02*
X116650952Y-89452380D01*
X117127142Y-89452380D01*
X117984285Y-90452380D02*
X117508095Y-90452380D01*
X117508095Y-89452380D01*
X93410000Y-85300833D02*
X93376666Y-85367500D01*
X93376666Y-85467500D01*
X93410000Y-85567500D01*
X93476666Y-85634166D01*
X93543333Y-85667500D01*
X93676666Y-85700833D01*
X93776666Y-85700833D01*
X93910000Y-85667500D01*
X93976666Y-85634166D01*
X94043333Y-85567500D01*
X94076666Y-85467500D01*
X94076666Y-85400833D01*
X94043333Y-85300833D01*
X94010000Y-85267500D01*
X93776666Y-85267500D01*
X93776666Y-85400833D01*
X94076666Y-84967500D02*
X93376666Y-84967500D01*
X93376666Y-84700833D01*
X93410000Y-84634166D01*
X93443333Y-84600833D01*
X93510000Y-84567500D01*
X93610000Y-84567500D01*
X93676666Y-84600833D01*
X93710000Y-84634166D01*
X93743333Y-84700833D01*
X93743333Y-84967500D01*
X94076666Y-84267500D02*
X93376666Y-84267500D01*
X93376666Y-83800833D02*
X93376666Y-83667500D01*
X93410000Y-83600833D01*
X93476666Y-83534166D01*
X93610000Y-83500833D01*
X93843333Y-83500833D01*
X93976666Y-83534166D01*
X94043333Y-83600833D01*
X94076666Y-83667500D01*
X94076666Y-83800833D01*
X94043333Y-83867500D01*
X93976666Y-83934166D01*
X93843333Y-83967500D01*
X93610000Y-83967500D01*
X93476666Y-83934166D01*
X93410000Y-83867500D01*
X93376666Y-83800833D01*
X94076666Y-82834166D02*
X94076666Y-83234166D01*
X94076666Y-83034166D02*
X93376666Y-83034166D01*
X93476666Y-83100833D01*
X93543333Y-83167500D01*
X93576666Y-83234166D01*
X93343333Y-82034166D02*
X94243333Y-82634166D01*
X93376666Y-81800833D02*
X93943333Y-81800833D01*
X94010000Y-81767500D01*
X94043333Y-81734166D01*
X94076666Y-81667500D01*
X94076666Y-81534166D01*
X94043333Y-81467500D01*
X94010000Y-81434166D01*
X93943333Y-81400833D01*
X93376666Y-81400833D01*
X93376666Y-80934166D02*
X93376666Y-80867500D01*
X93410000Y-80800833D01*
X93443333Y-80767500D01*
X93510000Y-80734166D01*
X93643333Y-80700833D01*
X93810000Y-80700833D01*
X93943333Y-80734166D01*
X94010000Y-80767500D01*
X94043333Y-80800833D01*
X94076666Y-80867500D01*
X94076666Y-80934166D01*
X94043333Y-81000833D01*
X94010000Y-81034166D01*
X93943333Y-81067500D01*
X93810000Y-81100833D01*
X93643333Y-81100833D01*
X93510000Y-81067500D01*
X93443333Y-81034166D01*
X93410000Y-81000833D01*
X93376666Y-80934166D01*
X93376666Y-80500833D02*
X93376666Y-80100833D01*
X94076666Y-80300833D02*
X93376666Y-80300833D01*
X93376666Y-79934166D02*
X94076666Y-79467500D01*
X93376666Y-79467500D02*
X94076666Y-79934166D01*
X94076666Y-79200833D02*
X93376666Y-79200833D01*
X93376666Y-79034166D01*
X93410000Y-78934166D01*
X93476666Y-78867500D01*
X93543333Y-78834166D01*
X93676666Y-78800833D01*
X93776666Y-78800833D01*
X93910000Y-78834166D01*
X93976666Y-78867500D01*
X94043333Y-78934166D01*
X94076666Y-79034166D01*
X94076666Y-79200833D01*
X100880000Y-80953214D02*
X100832380Y-81048452D01*
X100832380Y-81191309D01*
X100880000Y-81334166D01*
X100975238Y-81429404D01*
X101070476Y-81477023D01*
X101260952Y-81524642D01*
X101403809Y-81524642D01*
X101594285Y-81477023D01*
X101689523Y-81429404D01*
X101784761Y-81334166D01*
X101832380Y-81191309D01*
X101832380Y-81096071D01*
X101784761Y-80953214D01*
X101737142Y-80905595D01*
X101403809Y-80905595D01*
X101403809Y-81096071D01*
X101832380Y-80477023D02*
X100832380Y-80477023D01*
X101832380Y-79905595D01*
X100832380Y-79905595D01*
X101832380Y-79429404D02*
X100832380Y-79429404D01*
X100832380Y-79191309D01*
X100880000Y-79048452D01*
X100975238Y-78953214D01*
X101070476Y-78905595D01*
X101260952Y-78857976D01*
X101403809Y-78857976D01*
X101594285Y-78905595D01*
X101689523Y-78953214D01*
X101784761Y-79048452D01*
X101832380Y-79191309D01*
X101832380Y-79429404D01*
X132110000Y-80067500D02*
X132143333Y-80100833D01*
X132176666Y-80200833D01*
X132176666Y-80267500D01*
X132143333Y-80367500D01*
X132076666Y-80434166D01*
X132010000Y-80467500D01*
X131876666Y-80500833D01*
X131776666Y-80500833D01*
X131643333Y-80467500D01*
X131576666Y-80434166D01*
X131510000Y-80367500D01*
X131476666Y-80267500D01*
X131476666Y-80200833D01*
X131510000Y-80100833D01*
X131543333Y-80067500D01*
X132176666Y-79434166D02*
X132176666Y-79767500D01*
X131476666Y-79767500D01*
X132176666Y-79200833D02*
X131476666Y-79200833D01*
X132176666Y-78800833D02*
X131776666Y-79100833D01*
X131476666Y-78800833D02*
X131876666Y-79200833D01*
X93376666Y-101265833D02*
X94076666Y-101032500D01*
X93376666Y-100799166D01*
X94076666Y-100565833D02*
X93376666Y-100565833D01*
X94076666Y-100165833D01*
X93376666Y-100165833D01*
X93343333Y-99332500D02*
X94243333Y-99932500D01*
X93410000Y-98732500D02*
X93376666Y-98799166D01*
X93376666Y-98899166D01*
X93410000Y-98999166D01*
X93476666Y-99065833D01*
X93543333Y-99099166D01*
X93676666Y-99132500D01*
X93776666Y-99132500D01*
X93910000Y-99099166D01*
X93976666Y-99065833D01*
X94043333Y-98999166D01*
X94076666Y-98899166D01*
X94076666Y-98832500D01*
X94043333Y-98732500D01*
X94010000Y-98699166D01*
X93776666Y-98699166D01*
X93776666Y-98832500D01*
X94076666Y-98399166D02*
X93376666Y-98399166D01*
X93376666Y-98132500D01*
X93410000Y-98065833D01*
X93443333Y-98032500D01*
X93510000Y-97999166D01*
X93610000Y-97999166D01*
X93676666Y-98032500D01*
X93710000Y-98065833D01*
X93743333Y-98132500D01*
X93743333Y-98399166D01*
X94076666Y-97699166D02*
X93376666Y-97699166D01*
X93376666Y-97232500D02*
X93376666Y-97099166D01*
X93410000Y-97032500D01*
X93476666Y-96965833D01*
X93610000Y-96932500D01*
X93843333Y-96932500D01*
X93976666Y-96965833D01*
X94043333Y-97032500D01*
X94076666Y-97099166D01*
X94076666Y-97232500D01*
X94043333Y-97299166D01*
X93976666Y-97365833D01*
X93843333Y-97399166D01*
X93610000Y-97399166D01*
X93476666Y-97365833D01*
X93410000Y-97299166D01*
X93376666Y-97232500D01*
X93376666Y-96699166D02*
X93376666Y-96265833D01*
X93643333Y-96499166D01*
X93643333Y-96399166D01*
X93676666Y-96332500D01*
X93710000Y-96299166D01*
X93776666Y-96265833D01*
X93943333Y-96265833D01*
X94010000Y-96299166D01*
X94043333Y-96332500D01*
X94076666Y-96399166D01*
X94076666Y-96599166D01*
X94043333Y-96665833D01*
X94010000Y-96699166D01*
X94076666Y-95932500D02*
X94076666Y-95799166D01*
X94043333Y-95732500D01*
X94010000Y-95699166D01*
X93910000Y-95632500D01*
X93776666Y-95599166D01*
X93510000Y-95599166D01*
X93443333Y-95632500D01*
X93410000Y-95665833D01*
X93376666Y-95732500D01*
X93376666Y-95865833D01*
X93410000Y-95932500D01*
X93443333Y-95965833D01*
X93510000Y-95999166D01*
X93676666Y-95999166D01*
X93743333Y-95965833D01*
X93776666Y-95932500D01*
X93810000Y-95865833D01*
X93810000Y-95732500D01*
X93776666Y-95665833D01*
X93743333Y-95632500D01*
X93676666Y-95599166D01*
X95950000Y-100799166D02*
X95916666Y-100865833D01*
X95916666Y-100965833D01*
X95950000Y-101065833D01*
X96016666Y-101132500D01*
X96083333Y-101165833D01*
X96216666Y-101199166D01*
X96316666Y-101199166D01*
X96450000Y-101165833D01*
X96516666Y-101132500D01*
X96583333Y-101065833D01*
X96616666Y-100965833D01*
X96616666Y-100899166D01*
X96583333Y-100799166D01*
X96550000Y-100765833D01*
X96316666Y-100765833D01*
X96316666Y-100899166D01*
X96616666Y-100465833D02*
X95916666Y-100465833D01*
X95916666Y-100199166D01*
X95950000Y-100132500D01*
X95983333Y-100099166D01*
X96050000Y-100065833D01*
X96150000Y-100065833D01*
X96216666Y-100099166D01*
X96250000Y-100132500D01*
X96283333Y-100199166D01*
X96283333Y-100465833D01*
X96616666Y-99765833D02*
X95916666Y-99765833D01*
X95916666Y-99299166D02*
X95916666Y-99165833D01*
X95950000Y-99099166D01*
X96016666Y-99032500D01*
X96150000Y-98999166D01*
X96383333Y-98999166D01*
X96516666Y-99032500D01*
X96583333Y-99099166D01*
X96616666Y-99165833D01*
X96616666Y-99299166D01*
X96583333Y-99365833D01*
X96516666Y-99432500D01*
X96383333Y-99465833D01*
X96150000Y-99465833D01*
X96016666Y-99432500D01*
X95950000Y-99365833D01*
X95916666Y-99299166D01*
X95916666Y-98765833D02*
X95916666Y-98332500D01*
X96183333Y-98565833D01*
X96183333Y-98465833D01*
X96216666Y-98399166D01*
X96250000Y-98365833D01*
X96316666Y-98332500D01*
X96483333Y-98332500D01*
X96550000Y-98365833D01*
X96583333Y-98399166D01*
X96616666Y-98465833D01*
X96616666Y-98665833D01*
X96583333Y-98732500D01*
X96550000Y-98765833D01*
X96150000Y-97732500D02*
X96616666Y-97732500D01*
X95883333Y-97899166D02*
X96383333Y-98065833D01*
X96383333Y-97632500D01*
X127096666Y-79867500D02*
X126396666Y-79867500D01*
X126396666Y-79700833D01*
X126430000Y-79600833D01*
X126496666Y-79534166D01*
X126563333Y-79500833D01*
X126696666Y-79467500D01*
X126796666Y-79467500D01*
X126930000Y-79500833D01*
X126996666Y-79534166D01*
X127063333Y-79600833D01*
X127096666Y-79700833D01*
X127096666Y-79867500D01*
X127096666Y-78800833D02*
X127096666Y-79200833D01*
X127096666Y-79000833D02*
X126396666Y-79000833D01*
X126496666Y-79067500D01*
X126563333Y-79134166D01*
X126596666Y-79200833D01*
X103570000Y-100799166D02*
X103536666Y-100865833D01*
X103536666Y-100965833D01*
X103570000Y-101065833D01*
X103636666Y-101132500D01*
X103703333Y-101165833D01*
X103836666Y-101199166D01*
X103936666Y-101199166D01*
X104070000Y-101165833D01*
X104136666Y-101132500D01*
X104203333Y-101065833D01*
X104236666Y-100965833D01*
X104236666Y-100899166D01*
X104203333Y-100799166D01*
X104170000Y-100765833D01*
X103936666Y-100765833D01*
X103936666Y-100899166D01*
X104236666Y-100465833D02*
X103536666Y-100465833D01*
X103536666Y-100199166D01*
X103570000Y-100132500D01*
X103603333Y-100099166D01*
X103670000Y-100065833D01*
X103770000Y-100065833D01*
X103836666Y-100099166D01*
X103870000Y-100132500D01*
X103903333Y-100199166D01*
X103903333Y-100465833D01*
X104236666Y-99765833D02*
X103536666Y-99765833D01*
X103536666Y-99299166D02*
X103536666Y-99165833D01*
X103570000Y-99099166D01*
X103636666Y-99032500D01*
X103770000Y-98999166D01*
X104003333Y-98999166D01*
X104136666Y-99032500D01*
X104203333Y-99099166D01*
X104236666Y-99165833D01*
X104236666Y-99299166D01*
X104203333Y-99365833D01*
X104136666Y-99432500D01*
X104003333Y-99465833D01*
X103770000Y-99465833D01*
X103636666Y-99432500D01*
X103570000Y-99365833D01*
X103536666Y-99299166D01*
X103536666Y-98765833D02*
X103536666Y-98332500D01*
X103803333Y-98565833D01*
X103803333Y-98465833D01*
X103836666Y-98399166D01*
X103870000Y-98365833D01*
X103936666Y-98332500D01*
X104103333Y-98332500D01*
X104170000Y-98365833D01*
X104203333Y-98399166D01*
X104236666Y-98465833D01*
X104236666Y-98665833D01*
X104203333Y-98732500D01*
X104170000Y-98765833D01*
X103536666Y-98099166D02*
X103536666Y-97665833D01*
X103803333Y-97899166D01*
X103803333Y-97799166D01*
X103836666Y-97732500D01*
X103870000Y-97699166D01*
X103936666Y-97665833D01*
X104103333Y-97665833D01*
X104170000Y-97699166D01*
X104203333Y-97732500D01*
X104236666Y-97799166D01*
X104236666Y-97999166D01*
X104203333Y-98065833D01*
X104170000Y-98099166D01*
X85592380Y-101189642D02*
X85592380Y-100570595D01*
X85973333Y-100903928D01*
X85973333Y-100761071D01*
X86020952Y-100665833D01*
X86068571Y-100618214D01*
X86163809Y-100570595D01*
X86401904Y-100570595D01*
X86497142Y-100618214D01*
X86544761Y-100665833D01*
X86592380Y-100761071D01*
X86592380Y-101046785D01*
X86544761Y-101142023D01*
X86497142Y-101189642D01*
X85592380Y-100284880D02*
X86592380Y-99951547D01*
X85592380Y-99618214D01*
X85592380Y-99380119D02*
X85592380Y-98761071D01*
X85973333Y-99094404D01*
X85973333Y-98951547D01*
X86020952Y-98856309D01*
X86068571Y-98808690D01*
X86163809Y-98761071D01*
X86401904Y-98761071D01*
X86497142Y-98808690D01*
X86544761Y-98856309D01*
X86592380Y-98951547D01*
X86592380Y-99237261D01*
X86544761Y-99332500D01*
X86497142Y-99380119D01*
X106110000Y-81934166D02*
X106076666Y-82000833D01*
X106076666Y-82100833D01*
X106110000Y-82200833D01*
X106176666Y-82267500D01*
X106243333Y-82300833D01*
X106376666Y-82334166D01*
X106476666Y-82334166D01*
X106610000Y-82300833D01*
X106676666Y-82267500D01*
X106743333Y-82200833D01*
X106776666Y-82100833D01*
X106776666Y-82034166D01*
X106743333Y-81934166D01*
X106710000Y-81900833D01*
X106476666Y-81900833D01*
X106476666Y-82034166D01*
X106776666Y-81600833D02*
X106076666Y-81600833D01*
X106076666Y-81334166D01*
X106110000Y-81267500D01*
X106143333Y-81234166D01*
X106210000Y-81200833D01*
X106310000Y-81200833D01*
X106376666Y-81234166D01*
X106410000Y-81267500D01*
X106443333Y-81334166D01*
X106443333Y-81600833D01*
X106776666Y-80900833D02*
X106076666Y-80900833D01*
X106076666Y-80434166D02*
X106076666Y-80300833D01*
X106110000Y-80234166D01*
X106176666Y-80167500D01*
X106310000Y-80134166D01*
X106543333Y-80134166D01*
X106676666Y-80167500D01*
X106743333Y-80234166D01*
X106776666Y-80300833D01*
X106776666Y-80434166D01*
X106743333Y-80500833D01*
X106676666Y-80567500D01*
X106543333Y-80600833D01*
X106310000Y-80600833D01*
X106176666Y-80567500D01*
X106110000Y-80500833D01*
X106076666Y-80434166D01*
X106776666Y-79467500D02*
X106776666Y-79867500D01*
X106776666Y-79667500D02*
X106076666Y-79667500D01*
X106176666Y-79734166D01*
X106243333Y-79800833D01*
X106276666Y-79867500D01*
X106376666Y-79067500D02*
X106343333Y-79134166D01*
X106310000Y-79167500D01*
X106243333Y-79200833D01*
X106210000Y-79200833D01*
X106143333Y-79167500D01*
X106110000Y-79134166D01*
X106076666Y-79067500D01*
X106076666Y-78934166D01*
X106110000Y-78867500D01*
X106143333Y-78834166D01*
X106210000Y-78800833D01*
X106243333Y-78800833D01*
X106310000Y-78834166D01*
X106343333Y-78867500D01*
X106376666Y-78934166D01*
X106376666Y-79067500D01*
X106410000Y-79134166D01*
X106443333Y-79167500D01*
X106510000Y-79200833D01*
X106643333Y-79200833D01*
X106710000Y-79167500D01*
X106743333Y-79134166D01*
X106776666Y-79067500D01*
X106776666Y-78934166D01*
X106743333Y-78867500D01*
X106710000Y-78834166D01*
X106643333Y-78800833D01*
X106510000Y-78800833D01*
X106443333Y-78834166D01*
X106410000Y-78867500D01*
X106376666Y-78934166D01*
X118810000Y-81267500D02*
X118776666Y-81334166D01*
X118776666Y-81434166D01*
X118810000Y-81534166D01*
X118876666Y-81600833D01*
X118943333Y-81634166D01*
X119076666Y-81667500D01*
X119176666Y-81667500D01*
X119310000Y-81634166D01*
X119376666Y-81600833D01*
X119443333Y-81534166D01*
X119476666Y-81434166D01*
X119476666Y-81367500D01*
X119443333Y-81267500D01*
X119410000Y-81234166D01*
X119176666Y-81234166D01*
X119176666Y-81367500D01*
X119476666Y-80934166D02*
X118776666Y-80934166D01*
X118776666Y-80667500D01*
X118810000Y-80600833D01*
X118843333Y-80567500D01*
X118910000Y-80534166D01*
X119010000Y-80534166D01*
X119076666Y-80567500D01*
X119110000Y-80600833D01*
X119143333Y-80667500D01*
X119143333Y-80934166D01*
X119476666Y-80234166D02*
X118776666Y-80234166D01*
X118776666Y-79767500D02*
X118776666Y-79634166D01*
X118810000Y-79567500D01*
X118876666Y-79500833D01*
X119010000Y-79467500D01*
X119243333Y-79467500D01*
X119376666Y-79500833D01*
X119443333Y-79567500D01*
X119476666Y-79634166D01*
X119476666Y-79767500D01*
X119443333Y-79834166D01*
X119376666Y-79900833D01*
X119243333Y-79934166D01*
X119010000Y-79934166D01*
X118876666Y-79900833D01*
X118810000Y-79834166D01*
X118776666Y-79767500D01*
X118776666Y-79034166D02*
X118776666Y-78967500D01*
X118810000Y-78900833D01*
X118843333Y-78867500D01*
X118910000Y-78834166D01*
X119043333Y-78800833D01*
X119210000Y-78800833D01*
X119343333Y-78834166D01*
X119410000Y-78867500D01*
X119443333Y-78900833D01*
X119476666Y-78967500D01*
X119476666Y-79034166D01*
X119443333Y-79100833D01*
X119410000Y-79134166D01*
X119343333Y-79167500D01*
X119210000Y-79200833D01*
X119043333Y-79200833D01*
X118910000Y-79167500D01*
X118843333Y-79134166D01*
X118810000Y-79100833D01*
X118776666Y-79034166D01*
X106110000Y-100799166D02*
X106076666Y-100865833D01*
X106076666Y-100965833D01*
X106110000Y-101065833D01*
X106176666Y-101132500D01*
X106243333Y-101165833D01*
X106376666Y-101199166D01*
X106476666Y-101199166D01*
X106610000Y-101165833D01*
X106676666Y-101132500D01*
X106743333Y-101065833D01*
X106776666Y-100965833D01*
X106776666Y-100899166D01*
X106743333Y-100799166D01*
X106710000Y-100765833D01*
X106476666Y-100765833D01*
X106476666Y-100899166D01*
X106776666Y-100465833D02*
X106076666Y-100465833D01*
X106076666Y-100199166D01*
X106110000Y-100132500D01*
X106143333Y-100099166D01*
X106210000Y-100065833D01*
X106310000Y-100065833D01*
X106376666Y-100099166D01*
X106410000Y-100132500D01*
X106443333Y-100199166D01*
X106443333Y-100465833D01*
X106776666Y-99765833D02*
X106076666Y-99765833D01*
X106076666Y-99299166D02*
X106076666Y-99165833D01*
X106110000Y-99099166D01*
X106176666Y-99032500D01*
X106310000Y-98999166D01*
X106543333Y-98999166D01*
X106676666Y-99032500D01*
X106743333Y-99099166D01*
X106776666Y-99165833D01*
X106776666Y-99299166D01*
X106743333Y-99365833D01*
X106676666Y-99432500D01*
X106543333Y-99465833D01*
X106310000Y-99465833D01*
X106176666Y-99432500D01*
X106110000Y-99365833D01*
X106076666Y-99299166D01*
X106143333Y-98732500D02*
X106110000Y-98699166D01*
X106076666Y-98632500D01*
X106076666Y-98465833D01*
X106110000Y-98399166D01*
X106143333Y-98365833D01*
X106210000Y-98332500D01*
X106276666Y-98332500D01*
X106376666Y-98365833D01*
X106776666Y-98765833D01*
X106776666Y-98332500D01*
X106076666Y-97699166D02*
X106076666Y-98032500D01*
X106410000Y-98065833D01*
X106376666Y-98032500D01*
X106343333Y-97965833D01*
X106343333Y-97799166D01*
X106376666Y-97732500D01*
X106410000Y-97699166D01*
X106476666Y-97665833D01*
X106643333Y-97665833D01*
X106710000Y-97699166D01*
X106743333Y-97732500D01*
X106776666Y-97799166D01*
X106776666Y-97965833D01*
X106743333Y-98032500D01*
X106710000Y-98065833D01*
X103570000Y-81934166D02*
X103536666Y-82000833D01*
X103536666Y-82100833D01*
X103570000Y-82200833D01*
X103636666Y-82267500D01*
X103703333Y-82300833D01*
X103836666Y-82334166D01*
X103936666Y-82334166D01*
X104070000Y-82300833D01*
X104136666Y-82267500D01*
X104203333Y-82200833D01*
X104236666Y-82100833D01*
X104236666Y-82034166D01*
X104203333Y-81934166D01*
X104170000Y-81900833D01*
X103936666Y-81900833D01*
X103936666Y-82034166D01*
X104236666Y-81600833D02*
X103536666Y-81600833D01*
X103536666Y-81334166D01*
X103570000Y-81267500D01*
X103603333Y-81234166D01*
X103670000Y-81200833D01*
X103770000Y-81200833D01*
X103836666Y-81234166D01*
X103870000Y-81267500D01*
X103903333Y-81334166D01*
X103903333Y-81600833D01*
X104236666Y-80900833D02*
X103536666Y-80900833D01*
X103536666Y-80434166D02*
X103536666Y-80300833D01*
X103570000Y-80234166D01*
X103636666Y-80167500D01*
X103770000Y-80134166D01*
X104003333Y-80134166D01*
X104136666Y-80167500D01*
X104203333Y-80234166D01*
X104236666Y-80300833D01*
X104236666Y-80434166D01*
X104203333Y-80500833D01*
X104136666Y-80567500D01*
X104003333Y-80600833D01*
X103770000Y-80600833D01*
X103636666Y-80567500D01*
X103570000Y-80500833D01*
X103536666Y-80434166D01*
X104236666Y-79467500D02*
X104236666Y-79867500D01*
X104236666Y-79667500D02*
X103536666Y-79667500D01*
X103636666Y-79734166D01*
X103703333Y-79800833D01*
X103736666Y-79867500D01*
X104236666Y-79134166D02*
X104236666Y-79000833D01*
X104203333Y-78934166D01*
X104170000Y-78900833D01*
X104070000Y-78834166D01*
X103936666Y-78800833D01*
X103670000Y-78800833D01*
X103603333Y-78834166D01*
X103570000Y-78867500D01*
X103536666Y-78934166D01*
X103536666Y-79067500D01*
X103570000Y-79134166D01*
X103603333Y-79167500D01*
X103670000Y-79200833D01*
X103836666Y-79200833D01*
X103903333Y-79167500D01*
X103936666Y-79134166D01*
X103970000Y-79067500D01*
X103970000Y-78934166D01*
X103936666Y-78867500D01*
X103903333Y-78834166D01*
X103836666Y-78800833D01*
X111190000Y-81934166D02*
X111156666Y-82000833D01*
X111156666Y-82100833D01*
X111190000Y-82200833D01*
X111256666Y-82267500D01*
X111323333Y-82300833D01*
X111456666Y-82334166D01*
X111556666Y-82334166D01*
X111690000Y-82300833D01*
X111756666Y-82267500D01*
X111823333Y-82200833D01*
X111856666Y-82100833D01*
X111856666Y-82034166D01*
X111823333Y-81934166D01*
X111790000Y-81900833D01*
X111556666Y-81900833D01*
X111556666Y-82034166D01*
X111856666Y-81600833D02*
X111156666Y-81600833D01*
X111156666Y-81334166D01*
X111190000Y-81267500D01*
X111223333Y-81234166D01*
X111290000Y-81200833D01*
X111390000Y-81200833D01*
X111456666Y-81234166D01*
X111490000Y-81267500D01*
X111523333Y-81334166D01*
X111523333Y-81600833D01*
X111856666Y-80900833D02*
X111156666Y-80900833D01*
X111156666Y-80434166D02*
X111156666Y-80300833D01*
X111190000Y-80234166D01*
X111256666Y-80167500D01*
X111390000Y-80134166D01*
X111623333Y-80134166D01*
X111756666Y-80167500D01*
X111823333Y-80234166D01*
X111856666Y-80300833D01*
X111856666Y-80434166D01*
X111823333Y-80500833D01*
X111756666Y-80567500D01*
X111623333Y-80600833D01*
X111390000Y-80600833D01*
X111256666Y-80567500D01*
X111190000Y-80500833D01*
X111156666Y-80434166D01*
X111856666Y-79467500D02*
X111856666Y-79867500D01*
X111856666Y-79667500D02*
X111156666Y-79667500D01*
X111256666Y-79734166D01*
X111323333Y-79800833D01*
X111356666Y-79867500D01*
X111156666Y-79234166D02*
X111156666Y-78767500D01*
X111856666Y-79067500D01*
X95950000Y-85467500D02*
X95916666Y-85534166D01*
X95916666Y-85634166D01*
X95950000Y-85734166D01*
X96016666Y-85800833D01*
X96083333Y-85834166D01*
X96216666Y-85867500D01*
X96316666Y-85867500D01*
X96450000Y-85834166D01*
X96516666Y-85800833D01*
X96583333Y-85734166D01*
X96616666Y-85634166D01*
X96616666Y-85567500D01*
X96583333Y-85467500D01*
X96550000Y-85434166D01*
X96316666Y-85434166D01*
X96316666Y-85567500D01*
X96616666Y-85134166D02*
X95916666Y-85134166D01*
X95916666Y-84867500D01*
X95950000Y-84800833D01*
X95983333Y-84767500D01*
X96050000Y-84734166D01*
X96150000Y-84734166D01*
X96216666Y-84767500D01*
X96250000Y-84800833D01*
X96283333Y-84867500D01*
X96283333Y-85134166D01*
X96616666Y-84434166D02*
X95916666Y-84434166D01*
X95916666Y-83967500D02*
X95916666Y-83834166D01*
X95950000Y-83767500D01*
X96016666Y-83700833D01*
X96150000Y-83667500D01*
X96383333Y-83667500D01*
X96516666Y-83700833D01*
X96583333Y-83767500D01*
X96616666Y-83834166D01*
X96616666Y-83967500D01*
X96583333Y-84034166D01*
X96516666Y-84100833D01*
X96383333Y-84134166D01*
X96150000Y-84134166D01*
X96016666Y-84100833D01*
X95950000Y-84034166D01*
X95916666Y-83967500D01*
X95916666Y-83434166D02*
X95916666Y-83000833D01*
X96183333Y-83234166D01*
X96183333Y-83134166D01*
X96216666Y-83067500D01*
X96250000Y-83034166D01*
X96316666Y-83000833D01*
X96483333Y-83000833D01*
X96550000Y-83034166D01*
X96583333Y-83067500D01*
X96616666Y-83134166D01*
X96616666Y-83334166D01*
X96583333Y-83400833D01*
X96550000Y-83434166D01*
X95883333Y-82200833D02*
X96783333Y-82800833D01*
X95916666Y-81967500D02*
X96483333Y-81967500D01*
X96550000Y-81934166D01*
X96583333Y-81900833D01*
X96616666Y-81834166D01*
X96616666Y-81700833D01*
X96583333Y-81634166D01*
X96550000Y-81600833D01*
X96483333Y-81567500D01*
X95916666Y-81567500D01*
X95916666Y-81100833D02*
X95916666Y-81034166D01*
X95950000Y-80967500D01*
X95983333Y-80934166D01*
X96050000Y-80900833D01*
X96183333Y-80867500D01*
X96350000Y-80867500D01*
X96483333Y-80900833D01*
X96550000Y-80934166D01*
X96583333Y-80967500D01*
X96616666Y-81034166D01*
X96616666Y-81100833D01*
X96583333Y-81167500D01*
X96550000Y-81200833D01*
X96483333Y-81234166D01*
X96350000Y-81267500D01*
X96183333Y-81267500D01*
X96050000Y-81234166D01*
X95983333Y-81200833D01*
X95950000Y-81167500D01*
X95916666Y-81100833D01*
X96616666Y-80167500D02*
X96283333Y-80400833D01*
X96616666Y-80567500D02*
X95916666Y-80567500D01*
X95916666Y-80300833D01*
X95950000Y-80234166D01*
X95983333Y-80200833D01*
X96050000Y-80167500D01*
X96150000Y-80167500D01*
X96216666Y-80200833D01*
X96250000Y-80234166D01*
X96283333Y-80300833D01*
X96283333Y-80567500D01*
X95916666Y-79934166D02*
X96616666Y-79467500D01*
X95916666Y-79467500D02*
X96616666Y-79934166D01*
X96616666Y-79200833D02*
X95916666Y-79200833D01*
X95916666Y-79034166D01*
X95950000Y-78934166D01*
X96016666Y-78867500D01*
X96083333Y-78834166D01*
X96216666Y-78800833D01*
X96316666Y-78800833D01*
X96450000Y-78834166D01*
X96516666Y-78867500D01*
X96583333Y-78934166D01*
X96616666Y-79034166D01*
X96616666Y-79200833D01*
X113730000Y-100799166D02*
X113696666Y-100865833D01*
X113696666Y-100965833D01*
X113730000Y-101065833D01*
X113796666Y-101132500D01*
X113863333Y-101165833D01*
X113996666Y-101199166D01*
X114096666Y-101199166D01*
X114230000Y-101165833D01*
X114296666Y-101132500D01*
X114363333Y-101065833D01*
X114396666Y-100965833D01*
X114396666Y-100899166D01*
X114363333Y-100799166D01*
X114330000Y-100765833D01*
X114096666Y-100765833D01*
X114096666Y-100899166D01*
X114396666Y-100465833D02*
X113696666Y-100465833D01*
X113696666Y-100199166D01*
X113730000Y-100132500D01*
X113763333Y-100099166D01*
X113830000Y-100065833D01*
X113930000Y-100065833D01*
X113996666Y-100099166D01*
X114030000Y-100132500D01*
X114063333Y-100199166D01*
X114063333Y-100465833D01*
X114396666Y-99765833D02*
X113696666Y-99765833D01*
X113696666Y-99299166D02*
X113696666Y-99165833D01*
X113730000Y-99099166D01*
X113796666Y-99032500D01*
X113930000Y-98999166D01*
X114163333Y-98999166D01*
X114296666Y-99032500D01*
X114363333Y-99099166D01*
X114396666Y-99165833D01*
X114396666Y-99299166D01*
X114363333Y-99365833D01*
X114296666Y-99432500D01*
X114163333Y-99465833D01*
X113930000Y-99465833D01*
X113796666Y-99432500D01*
X113730000Y-99365833D01*
X113696666Y-99299166D01*
X114396666Y-98332500D02*
X114396666Y-98732500D01*
X114396666Y-98532500D02*
X113696666Y-98532500D01*
X113796666Y-98599166D01*
X113863333Y-98665833D01*
X113896666Y-98732500D01*
X113930000Y-97732500D02*
X114396666Y-97732500D01*
X113663333Y-97899166D02*
X114163333Y-98065833D01*
X114163333Y-97632500D01*
X113663333Y-96865833D02*
X114563333Y-97465833D01*
X114396666Y-96632500D02*
X113696666Y-96632500D01*
X114196666Y-96399166D01*
X113696666Y-96165833D01*
X114396666Y-96165833D01*
X113696666Y-95932500D02*
X113696666Y-95532500D01*
X114396666Y-95732500D02*
X113696666Y-95732500D01*
X114396666Y-95299166D02*
X113696666Y-95299166D01*
X114196666Y-95065833D01*
X113696666Y-94832500D01*
X114396666Y-94832500D01*
X114363333Y-94532500D02*
X114396666Y-94432500D01*
X114396666Y-94265833D01*
X114363333Y-94199166D01*
X114330000Y-94165833D01*
X114263333Y-94132500D01*
X114196666Y-94132500D01*
X114130000Y-94165833D01*
X114096666Y-94199166D01*
X114063333Y-94265833D01*
X114030000Y-94399166D01*
X113996666Y-94465833D01*
X113963333Y-94499166D01*
X113896666Y-94532500D01*
X113830000Y-94532500D01*
X113763333Y-94499166D01*
X113730000Y-94465833D01*
X113696666Y-94399166D01*
X113696666Y-94232500D01*
X113730000Y-94132500D01*
X123890000Y-85434166D02*
X123856666Y-85500833D01*
X123856666Y-85600833D01*
X123890000Y-85700833D01*
X123956666Y-85767500D01*
X124023333Y-85800833D01*
X124156666Y-85834166D01*
X124256666Y-85834166D01*
X124390000Y-85800833D01*
X124456666Y-85767500D01*
X124523333Y-85700833D01*
X124556666Y-85600833D01*
X124556666Y-85534166D01*
X124523333Y-85434166D01*
X124490000Y-85400833D01*
X124256666Y-85400833D01*
X124256666Y-85534166D01*
X124556666Y-85100833D02*
X123856666Y-85100833D01*
X123856666Y-84834166D01*
X123890000Y-84767500D01*
X123923333Y-84734166D01*
X123990000Y-84700833D01*
X124090000Y-84700833D01*
X124156666Y-84734166D01*
X124190000Y-84767500D01*
X124223333Y-84834166D01*
X124223333Y-85100833D01*
X124556666Y-84400833D02*
X123856666Y-84400833D01*
X123856666Y-83934166D02*
X123856666Y-83800833D01*
X123890000Y-83734166D01*
X123956666Y-83667500D01*
X124090000Y-83634166D01*
X124323333Y-83634166D01*
X124456666Y-83667500D01*
X124523333Y-83734166D01*
X124556666Y-83800833D01*
X124556666Y-83934166D01*
X124523333Y-84000833D01*
X124456666Y-84067500D01*
X124323333Y-84100833D01*
X124090000Y-84100833D01*
X123956666Y-84067500D01*
X123890000Y-84000833D01*
X123856666Y-83934166D01*
X124556666Y-82967500D02*
X124556666Y-83367500D01*
X124556666Y-83167500D02*
X123856666Y-83167500D01*
X123956666Y-83234166D01*
X124023333Y-83300833D01*
X124056666Y-83367500D01*
X123856666Y-82334166D02*
X123856666Y-82667500D01*
X124190000Y-82700833D01*
X124156666Y-82667500D01*
X124123333Y-82600833D01*
X124123333Y-82434166D01*
X124156666Y-82367500D01*
X124190000Y-82334166D01*
X124256666Y-82300833D01*
X124423333Y-82300833D01*
X124490000Y-82334166D01*
X124523333Y-82367500D01*
X124556666Y-82434166D01*
X124556666Y-82600833D01*
X124523333Y-82667500D01*
X124490000Y-82700833D01*
X123823333Y-81500833D02*
X124723333Y-82100833D01*
X124556666Y-81267500D02*
X123856666Y-81267500D01*
X124356666Y-81034166D01*
X123856666Y-80800833D01*
X124556666Y-80800833D01*
X123856666Y-80567500D02*
X123856666Y-80167500D01*
X124556666Y-80367500D02*
X123856666Y-80367500D01*
X124556666Y-79934166D02*
X123856666Y-79934166D01*
X123856666Y-79767500D01*
X123890000Y-79667500D01*
X123956666Y-79600833D01*
X124023333Y-79567500D01*
X124156666Y-79534166D01*
X124256666Y-79534166D01*
X124390000Y-79567500D01*
X124456666Y-79600833D01*
X124523333Y-79667500D01*
X124556666Y-79767500D01*
X124556666Y-79934166D01*
X123856666Y-79100833D02*
X123856666Y-78967500D01*
X123890000Y-78900833D01*
X123956666Y-78834166D01*
X124090000Y-78800833D01*
X124323333Y-78800833D01*
X124456666Y-78834166D01*
X124523333Y-78900833D01*
X124556666Y-78967500D01*
X124556666Y-79100833D01*
X124523333Y-79167500D01*
X124456666Y-79234166D01*
X124323333Y-79267500D01*
X124090000Y-79267500D01*
X123956666Y-79234166D01*
X123890000Y-79167500D01*
X123856666Y-79100833D01*
X116270000Y-81267500D02*
X116236666Y-81334166D01*
X116236666Y-81434166D01*
X116270000Y-81534166D01*
X116336666Y-81600833D01*
X116403333Y-81634166D01*
X116536666Y-81667500D01*
X116636666Y-81667500D01*
X116770000Y-81634166D01*
X116836666Y-81600833D01*
X116903333Y-81534166D01*
X116936666Y-81434166D01*
X116936666Y-81367500D01*
X116903333Y-81267500D01*
X116870000Y-81234166D01*
X116636666Y-81234166D01*
X116636666Y-81367500D01*
X116936666Y-80934166D02*
X116236666Y-80934166D01*
X116236666Y-80667500D01*
X116270000Y-80600833D01*
X116303333Y-80567500D01*
X116370000Y-80534166D01*
X116470000Y-80534166D01*
X116536666Y-80567500D01*
X116570000Y-80600833D01*
X116603333Y-80667500D01*
X116603333Y-80934166D01*
X116936666Y-80234166D02*
X116236666Y-80234166D01*
X116236666Y-79767500D02*
X116236666Y-79634166D01*
X116270000Y-79567500D01*
X116336666Y-79500833D01*
X116470000Y-79467500D01*
X116703333Y-79467500D01*
X116836666Y-79500833D01*
X116903333Y-79567500D01*
X116936666Y-79634166D01*
X116936666Y-79767500D01*
X116903333Y-79834166D01*
X116836666Y-79900833D01*
X116703333Y-79934166D01*
X116470000Y-79934166D01*
X116336666Y-79900833D01*
X116270000Y-79834166D01*
X116236666Y-79767500D01*
X116470000Y-78867500D02*
X116936666Y-78867500D01*
X116203333Y-79034166D02*
X116703333Y-79200833D01*
X116703333Y-78767500D01*
X127096666Y-101165833D02*
X126396666Y-101165833D01*
X126396666Y-100999166D01*
X126430000Y-100899166D01*
X126496666Y-100832500D01*
X126563333Y-100799166D01*
X126696666Y-100765833D01*
X126796666Y-100765833D01*
X126930000Y-100799166D01*
X126996666Y-100832500D01*
X127063333Y-100899166D01*
X127096666Y-100999166D01*
X127096666Y-101165833D01*
X126396666Y-100532500D02*
X126396666Y-100099166D01*
X126663333Y-100332500D01*
X126663333Y-100232500D01*
X126696666Y-100165833D01*
X126730000Y-100132500D01*
X126796666Y-100099166D01*
X126963333Y-100099166D01*
X127030000Y-100132500D01*
X127063333Y-100165833D01*
X127096666Y-100232500D01*
X127096666Y-100432500D01*
X127063333Y-100499166D01*
X127030000Y-100532500D01*
X129636666Y-79867500D02*
X128936666Y-79867500D01*
X128936666Y-79700833D01*
X128970000Y-79600833D01*
X129036666Y-79534166D01*
X129103333Y-79500833D01*
X129236666Y-79467500D01*
X129336666Y-79467500D01*
X129470000Y-79500833D01*
X129536666Y-79534166D01*
X129603333Y-79600833D01*
X129636666Y-79700833D01*
X129636666Y-79867500D01*
X128936666Y-79034166D02*
X128936666Y-78967500D01*
X128970000Y-78900833D01*
X129003333Y-78867500D01*
X129070000Y-78834166D01*
X129203333Y-78800833D01*
X129370000Y-78800833D01*
X129503333Y-78834166D01*
X129570000Y-78867500D01*
X129603333Y-78900833D01*
X129636666Y-78967500D01*
X129636666Y-79034166D01*
X129603333Y-79100833D01*
X129570000Y-79134166D01*
X129503333Y-79167500D01*
X129370000Y-79200833D01*
X129203333Y-79200833D01*
X129070000Y-79167500D01*
X129003333Y-79134166D01*
X128970000Y-79100833D01*
X128936666Y-79034166D01*
X131563660Y-100621894D02*
X131563660Y-101098084D01*
X132039851Y-101145703D01*
X131992232Y-101098084D01*
X131944613Y-101002846D01*
X131944613Y-100764751D01*
X131992232Y-100669513D01*
X132039851Y-100621894D01*
X132135089Y-100574275D01*
X132373184Y-100574275D01*
X132468422Y-100621894D01*
X132516041Y-100669513D01*
X132563660Y-100764751D01*
X132563660Y-101002846D01*
X132516041Y-101098084D01*
X132468422Y-101145703D01*
X131563660Y-100288560D02*
X132563660Y-99955227D01*
X131563660Y-99621894D01*
X124556666Y-101165833D02*
X123856666Y-101165833D01*
X123856666Y-100999166D01*
X123890000Y-100899166D01*
X123956666Y-100832500D01*
X124023333Y-100799166D01*
X124156666Y-100765833D01*
X124256666Y-100765833D01*
X124390000Y-100799166D01*
X124456666Y-100832500D01*
X124523333Y-100899166D01*
X124556666Y-100999166D01*
X124556666Y-101165833D01*
X123923333Y-100499166D02*
X123890000Y-100465833D01*
X123856666Y-100399166D01*
X123856666Y-100232500D01*
X123890000Y-100165833D01*
X123923333Y-100132500D01*
X123990000Y-100099166D01*
X124056666Y-100099166D01*
X124156666Y-100132500D01*
X124556666Y-100532500D01*
X124556666Y-100099166D01*
X118660000Y-100570595D02*
X118612380Y-100665833D01*
X118612380Y-100808690D01*
X118660000Y-100951547D01*
X118755238Y-101046785D01*
X118850476Y-101094404D01*
X119040952Y-101142023D01*
X119183809Y-101142023D01*
X119374285Y-101094404D01*
X119469523Y-101046785D01*
X119564761Y-100951547D01*
X119612380Y-100808690D01*
X119612380Y-100713452D01*
X119564761Y-100570595D01*
X119517142Y-100522976D01*
X119183809Y-100522976D01*
X119183809Y-100713452D01*
X119612380Y-100094404D02*
X118612380Y-100094404D01*
X119612380Y-99522976D01*
X118612380Y-99522976D01*
X119612380Y-99046785D02*
X118612380Y-99046785D01*
X118612380Y-98808690D01*
X118660000Y-98665833D01*
X118755238Y-98570595D01*
X118850476Y-98522976D01*
X119040952Y-98475357D01*
X119183809Y-98475357D01*
X119374285Y-98522976D01*
X119469523Y-98570595D01*
X119564761Y-98665833D01*
X119612380Y-98808690D01*
X119612380Y-99046785D01*
X113730000Y-81934166D02*
X113696666Y-82000833D01*
X113696666Y-82100833D01*
X113730000Y-82200833D01*
X113796666Y-82267500D01*
X113863333Y-82300833D01*
X113996666Y-82334166D01*
X114096666Y-82334166D01*
X114230000Y-82300833D01*
X114296666Y-82267500D01*
X114363333Y-82200833D01*
X114396666Y-82100833D01*
X114396666Y-82034166D01*
X114363333Y-81934166D01*
X114330000Y-81900833D01*
X114096666Y-81900833D01*
X114096666Y-82034166D01*
X114396666Y-81600833D02*
X113696666Y-81600833D01*
X113696666Y-81334166D01*
X113730000Y-81267500D01*
X113763333Y-81234166D01*
X113830000Y-81200833D01*
X113930000Y-81200833D01*
X113996666Y-81234166D01*
X114030000Y-81267500D01*
X114063333Y-81334166D01*
X114063333Y-81600833D01*
X114396666Y-80900833D02*
X113696666Y-80900833D01*
X113696666Y-80434166D02*
X113696666Y-80300833D01*
X113730000Y-80234166D01*
X113796666Y-80167500D01*
X113930000Y-80134166D01*
X114163333Y-80134166D01*
X114296666Y-80167500D01*
X114363333Y-80234166D01*
X114396666Y-80300833D01*
X114396666Y-80434166D01*
X114363333Y-80500833D01*
X114296666Y-80567500D01*
X114163333Y-80600833D01*
X113930000Y-80600833D01*
X113796666Y-80567500D01*
X113730000Y-80500833D01*
X113696666Y-80434166D01*
X114396666Y-79467500D02*
X114396666Y-79867500D01*
X114396666Y-79667500D02*
X113696666Y-79667500D01*
X113796666Y-79734166D01*
X113863333Y-79800833D01*
X113896666Y-79867500D01*
X113696666Y-78867500D02*
X113696666Y-79000833D01*
X113730000Y-79067500D01*
X113763333Y-79100833D01*
X113863333Y-79167500D01*
X113996666Y-79200833D01*
X114263333Y-79200833D01*
X114330000Y-79167500D01*
X114363333Y-79134166D01*
X114396666Y-79067500D01*
X114396666Y-78934166D01*
X114363333Y-78867500D01*
X114330000Y-78834166D01*
X114263333Y-78800833D01*
X114096666Y-78800833D01*
X114030000Y-78834166D01*
X113996666Y-78867500D01*
X113963333Y-78934166D01*
X113963333Y-79067500D01*
X113996666Y-79134166D01*
X114030000Y-79167500D01*
X114096666Y-79200833D01*
X90870000Y-81934166D02*
X90836666Y-82000833D01*
X90836666Y-82100833D01*
X90870000Y-82200833D01*
X90936666Y-82267500D01*
X91003333Y-82300833D01*
X91136666Y-82334166D01*
X91236666Y-82334166D01*
X91370000Y-82300833D01*
X91436666Y-82267500D01*
X91503333Y-82200833D01*
X91536666Y-82100833D01*
X91536666Y-82034166D01*
X91503333Y-81934166D01*
X91470000Y-81900833D01*
X91236666Y-81900833D01*
X91236666Y-82034166D01*
X91536666Y-81600833D02*
X90836666Y-81600833D01*
X90836666Y-81334166D01*
X90870000Y-81267500D01*
X90903333Y-81234166D01*
X90970000Y-81200833D01*
X91070000Y-81200833D01*
X91136666Y-81234166D01*
X91170000Y-81267500D01*
X91203333Y-81334166D01*
X91203333Y-81600833D01*
X91536666Y-80900833D02*
X90836666Y-80900833D01*
X90836666Y-80434166D02*
X90836666Y-80300833D01*
X90870000Y-80234166D01*
X90936666Y-80167500D01*
X91070000Y-80134166D01*
X91303333Y-80134166D01*
X91436666Y-80167500D01*
X91503333Y-80234166D01*
X91536666Y-80300833D01*
X91536666Y-80434166D01*
X91503333Y-80500833D01*
X91436666Y-80567500D01*
X91303333Y-80600833D01*
X91070000Y-80600833D01*
X90936666Y-80567500D01*
X90870000Y-80500833D01*
X90836666Y-80434166D01*
X90903333Y-79867500D02*
X90870000Y-79834166D01*
X90836666Y-79767500D01*
X90836666Y-79600833D01*
X90870000Y-79534166D01*
X90903333Y-79500833D01*
X90970000Y-79467500D01*
X91036666Y-79467500D01*
X91136666Y-79500833D01*
X91536666Y-79900833D01*
X91536666Y-79467500D01*
X90903333Y-79200833D02*
X90870000Y-79167500D01*
X90836666Y-79100833D01*
X90836666Y-78934166D01*
X90870000Y-78867500D01*
X90903333Y-78834166D01*
X90970000Y-78800833D01*
X91036666Y-78800833D01*
X91136666Y-78834166D01*
X91536666Y-79234166D01*
X91536666Y-78800833D01*
X108650000Y-81267500D02*
X108616666Y-81334166D01*
X108616666Y-81434166D01*
X108650000Y-81534166D01*
X108716666Y-81600833D01*
X108783333Y-81634166D01*
X108916666Y-81667500D01*
X109016666Y-81667500D01*
X109150000Y-81634166D01*
X109216666Y-81600833D01*
X109283333Y-81534166D01*
X109316666Y-81434166D01*
X109316666Y-81367500D01*
X109283333Y-81267500D01*
X109250000Y-81234166D01*
X109016666Y-81234166D01*
X109016666Y-81367500D01*
X109316666Y-80934166D02*
X108616666Y-80934166D01*
X108616666Y-80667500D01*
X108650000Y-80600833D01*
X108683333Y-80567500D01*
X108750000Y-80534166D01*
X108850000Y-80534166D01*
X108916666Y-80567500D01*
X108950000Y-80600833D01*
X108983333Y-80667500D01*
X108983333Y-80934166D01*
X109316666Y-80234166D02*
X108616666Y-80234166D01*
X108616666Y-79767500D02*
X108616666Y-79634166D01*
X108650000Y-79567500D01*
X108716666Y-79500833D01*
X108850000Y-79467500D01*
X109083333Y-79467500D01*
X109216666Y-79500833D01*
X109283333Y-79567500D01*
X109316666Y-79634166D01*
X109316666Y-79767500D01*
X109283333Y-79834166D01*
X109216666Y-79900833D01*
X109083333Y-79934166D01*
X108850000Y-79934166D01*
X108716666Y-79900833D01*
X108650000Y-79834166D01*
X108616666Y-79767500D01*
X108616666Y-78834166D02*
X108616666Y-79167500D01*
X108950000Y-79200833D01*
X108916666Y-79167500D01*
X108883333Y-79100833D01*
X108883333Y-78934166D01*
X108916666Y-78867500D01*
X108950000Y-78834166D01*
X109016666Y-78800833D01*
X109183333Y-78800833D01*
X109250000Y-78834166D01*
X109283333Y-78867500D01*
X109316666Y-78934166D01*
X109316666Y-79100833D01*
X109283333Y-79167500D01*
X109250000Y-79200833D01*
X88605851Y-101196894D02*
X88605851Y-100863560D01*
X89129660Y-100720703D02*
X89129660Y-101196894D01*
X88129660Y-101196894D01*
X88129660Y-100720703D01*
X89129660Y-100292132D02*
X88129660Y-100292132D01*
X89129660Y-99720703D01*
X88129660Y-99720703D01*
X88082041Y-98530227D02*
X89367756Y-99387370D01*
X89129660Y-97625465D02*
X88653470Y-97958799D01*
X89129660Y-98196894D02*
X88129660Y-98196894D01*
X88129660Y-97815941D01*
X88177280Y-97720703D01*
X88224899Y-97673084D01*
X88320137Y-97625465D01*
X88462994Y-97625465D01*
X88558232Y-97673084D01*
X88605851Y-97720703D01*
X88653470Y-97815941D01*
X88653470Y-98196894D01*
X88605851Y-97196894D02*
X88605851Y-96863560D01*
X89129660Y-96720703D02*
X89129660Y-97196894D01*
X88129660Y-97196894D01*
X88129660Y-96720703D01*
X89082041Y-96339751D02*
X89129660Y-96196894D01*
X89129660Y-95958799D01*
X89082041Y-95863560D01*
X89034422Y-95815941D01*
X88939184Y-95768322D01*
X88843946Y-95768322D01*
X88748708Y-95815941D01*
X88701089Y-95863560D01*
X88653470Y-95958799D01*
X88605851Y-96149275D01*
X88558232Y-96244513D01*
X88510613Y-96292132D01*
X88415375Y-96339751D01*
X88320137Y-96339751D01*
X88224899Y-96292132D01*
X88177280Y-96244513D01*
X88129660Y-96149275D01*
X88129660Y-95911180D01*
X88177280Y-95768322D01*
X88605851Y-95339751D02*
X88605851Y-95006418D01*
X89129660Y-94863560D02*
X89129660Y-95339751D01*
X88129660Y-95339751D01*
X88129660Y-94863560D01*
X88129660Y-94577846D02*
X88129660Y-94006418D01*
X89129660Y-94292132D02*
X88129660Y-94292132D01*
X98490000Y-81934166D02*
X98456666Y-82000833D01*
X98456666Y-82100833D01*
X98490000Y-82200833D01*
X98556666Y-82267500D01*
X98623333Y-82300833D01*
X98756666Y-82334166D01*
X98856666Y-82334166D01*
X98990000Y-82300833D01*
X99056666Y-82267500D01*
X99123333Y-82200833D01*
X99156666Y-82100833D01*
X99156666Y-82034166D01*
X99123333Y-81934166D01*
X99090000Y-81900833D01*
X98856666Y-81900833D01*
X98856666Y-82034166D01*
X99156666Y-81600833D02*
X98456666Y-81600833D01*
X98456666Y-81334166D01*
X98490000Y-81267500D01*
X98523333Y-81234166D01*
X98590000Y-81200833D01*
X98690000Y-81200833D01*
X98756666Y-81234166D01*
X98790000Y-81267500D01*
X98823333Y-81334166D01*
X98823333Y-81600833D01*
X99156666Y-80900833D02*
X98456666Y-80900833D01*
X98456666Y-80434166D02*
X98456666Y-80300833D01*
X98490000Y-80234166D01*
X98556666Y-80167500D01*
X98690000Y-80134166D01*
X98923333Y-80134166D01*
X99056666Y-80167500D01*
X99123333Y-80234166D01*
X99156666Y-80300833D01*
X99156666Y-80434166D01*
X99123333Y-80500833D01*
X99056666Y-80567500D01*
X98923333Y-80600833D01*
X98690000Y-80600833D01*
X98556666Y-80567500D01*
X98490000Y-80500833D01*
X98456666Y-80434166D01*
X98523333Y-79867500D02*
X98490000Y-79834166D01*
X98456666Y-79767500D01*
X98456666Y-79600833D01*
X98490000Y-79534166D01*
X98523333Y-79500833D01*
X98590000Y-79467500D01*
X98656666Y-79467500D01*
X98756666Y-79500833D01*
X99156666Y-79900833D01*
X99156666Y-79467500D01*
X99156666Y-78800833D02*
X99156666Y-79200833D01*
X99156666Y-79000833D02*
X98456666Y-79000833D01*
X98556666Y-79067500D01*
X98623333Y-79134166D01*
X98656666Y-79200833D01*
X129570000Y-100765833D02*
X129603333Y-100799166D01*
X129636666Y-100899166D01*
X129636666Y-100965833D01*
X129603333Y-101065833D01*
X129536666Y-101132500D01*
X129470000Y-101165833D01*
X129336666Y-101199166D01*
X129236666Y-101199166D01*
X129103333Y-101165833D01*
X129036666Y-101132500D01*
X128970000Y-101065833D01*
X128936666Y-100965833D01*
X128936666Y-100899166D01*
X128970000Y-100799166D01*
X129003333Y-100765833D01*
X129636666Y-100465833D02*
X128936666Y-100465833D01*
X129436666Y-100232500D01*
X128936666Y-99999166D01*
X129636666Y-99999166D01*
X129636666Y-99665833D02*
X128936666Y-99665833D01*
X128936666Y-99499166D01*
X128970000Y-99399166D01*
X129036666Y-99332500D01*
X129103333Y-99299166D01*
X129236666Y-99265833D01*
X129336666Y-99265833D01*
X129470000Y-99299166D01*
X129536666Y-99332500D01*
X129603333Y-99399166D01*
X129636666Y-99499166D01*
X129636666Y-99665833D01*
X101030000Y-100799166D02*
X100996666Y-100865833D01*
X100996666Y-100965833D01*
X101030000Y-101065833D01*
X101096666Y-101132500D01*
X101163333Y-101165833D01*
X101296666Y-101199166D01*
X101396666Y-101199166D01*
X101530000Y-101165833D01*
X101596666Y-101132500D01*
X101663333Y-101065833D01*
X101696666Y-100965833D01*
X101696666Y-100899166D01*
X101663333Y-100799166D01*
X101630000Y-100765833D01*
X101396666Y-100765833D01*
X101396666Y-100899166D01*
X101696666Y-100465833D02*
X100996666Y-100465833D01*
X100996666Y-100199166D01*
X101030000Y-100132500D01*
X101063333Y-100099166D01*
X101130000Y-100065833D01*
X101230000Y-100065833D01*
X101296666Y-100099166D01*
X101330000Y-100132500D01*
X101363333Y-100199166D01*
X101363333Y-100465833D01*
X101696666Y-99765833D02*
X100996666Y-99765833D01*
X100996666Y-99299166D02*
X100996666Y-99165833D01*
X101030000Y-99099166D01*
X101096666Y-99032500D01*
X101230000Y-98999166D01*
X101463333Y-98999166D01*
X101596666Y-99032500D01*
X101663333Y-99099166D01*
X101696666Y-99165833D01*
X101696666Y-99299166D01*
X101663333Y-99365833D01*
X101596666Y-99432500D01*
X101463333Y-99465833D01*
X101230000Y-99465833D01*
X101096666Y-99432500D01*
X101030000Y-99365833D01*
X100996666Y-99299166D01*
X100996666Y-98765833D02*
X100996666Y-98332500D01*
X101263333Y-98565833D01*
X101263333Y-98465833D01*
X101296666Y-98399166D01*
X101330000Y-98365833D01*
X101396666Y-98332500D01*
X101563333Y-98332500D01*
X101630000Y-98365833D01*
X101663333Y-98399166D01*
X101696666Y-98465833D01*
X101696666Y-98665833D01*
X101663333Y-98732500D01*
X101630000Y-98765833D01*
X101063333Y-98065833D02*
X101030000Y-98032500D01*
X100996666Y-97965833D01*
X100996666Y-97799166D01*
X101030000Y-97732500D01*
X101063333Y-97699166D01*
X101130000Y-97665833D01*
X101196666Y-97665833D01*
X101296666Y-97699166D01*
X101696666Y-98099166D01*
X101696666Y-97665833D01*
X121350000Y-81267500D02*
X121316666Y-81334166D01*
X121316666Y-81434166D01*
X121350000Y-81534166D01*
X121416666Y-81600833D01*
X121483333Y-81634166D01*
X121616666Y-81667500D01*
X121716666Y-81667500D01*
X121850000Y-81634166D01*
X121916666Y-81600833D01*
X121983333Y-81534166D01*
X122016666Y-81434166D01*
X122016666Y-81367500D01*
X121983333Y-81267500D01*
X121950000Y-81234166D01*
X121716666Y-81234166D01*
X121716666Y-81367500D01*
X122016666Y-80934166D02*
X121316666Y-80934166D01*
X121316666Y-80667500D01*
X121350000Y-80600833D01*
X121383333Y-80567500D01*
X121450000Y-80534166D01*
X121550000Y-80534166D01*
X121616666Y-80567500D01*
X121650000Y-80600833D01*
X121683333Y-80667500D01*
X121683333Y-80934166D01*
X122016666Y-80234166D02*
X121316666Y-80234166D01*
X121316666Y-79767500D02*
X121316666Y-79634166D01*
X121350000Y-79567500D01*
X121416666Y-79500833D01*
X121550000Y-79467500D01*
X121783333Y-79467500D01*
X121916666Y-79500833D01*
X121983333Y-79567500D01*
X122016666Y-79634166D01*
X122016666Y-79767500D01*
X121983333Y-79834166D01*
X121916666Y-79900833D01*
X121783333Y-79934166D01*
X121550000Y-79934166D01*
X121416666Y-79900833D01*
X121350000Y-79834166D01*
X121316666Y-79767500D01*
X121383333Y-79200833D02*
X121350000Y-79167500D01*
X121316666Y-79100833D01*
X121316666Y-78934166D01*
X121350000Y-78867500D01*
X121383333Y-78834166D01*
X121450000Y-78800833D01*
X121516666Y-78800833D01*
X121616666Y-78834166D01*
X122016666Y-79234166D01*
X122016666Y-78800833D01*
X88330000Y-81934166D02*
X88296666Y-82000833D01*
X88296666Y-82100833D01*
X88330000Y-82200833D01*
X88396666Y-82267500D01*
X88463333Y-82300833D01*
X88596666Y-82334166D01*
X88696666Y-82334166D01*
X88830000Y-82300833D01*
X88896666Y-82267500D01*
X88963333Y-82200833D01*
X88996666Y-82100833D01*
X88996666Y-82034166D01*
X88963333Y-81934166D01*
X88930000Y-81900833D01*
X88696666Y-81900833D01*
X88696666Y-82034166D01*
X88996666Y-81600833D02*
X88296666Y-81600833D01*
X88296666Y-81334166D01*
X88330000Y-81267500D01*
X88363333Y-81234166D01*
X88430000Y-81200833D01*
X88530000Y-81200833D01*
X88596666Y-81234166D01*
X88630000Y-81267500D01*
X88663333Y-81334166D01*
X88663333Y-81600833D01*
X88996666Y-80900833D02*
X88296666Y-80900833D01*
X88296666Y-80434166D02*
X88296666Y-80300833D01*
X88330000Y-80234166D01*
X88396666Y-80167500D01*
X88530000Y-80134166D01*
X88763333Y-80134166D01*
X88896666Y-80167500D01*
X88963333Y-80234166D01*
X88996666Y-80300833D01*
X88996666Y-80434166D01*
X88963333Y-80500833D01*
X88896666Y-80567500D01*
X88763333Y-80600833D01*
X88530000Y-80600833D01*
X88396666Y-80567500D01*
X88330000Y-80500833D01*
X88296666Y-80434166D01*
X88363333Y-79867500D02*
X88330000Y-79834166D01*
X88296666Y-79767500D01*
X88296666Y-79600833D01*
X88330000Y-79534166D01*
X88363333Y-79500833D01*
X88430000Y-79467500D01*
X88496666Y-79467500D01*
X88596666Y-79500833D01*
X88996666Y-79900833D01*
X88996666Y-79467500D01*
X88296666Y-79234166D02*
X88296666Y-78800833D01*
X88563333Y-79034166D01*
X88563333Y-78934166D01*
X88596666Y-78867500D01*
X88630000Y-78834166D01*
X88696666Y-78800833D01*
X88863333Y-78800833D01*
X88930000Y-78834166D01*
X88963333Y-78867500D01*
X88996666Y-78934166D01*
X88996666Y-79134166D01*
X88963333Y-79200833D01*
X88930000Y-79234166D01*
X85640000Y-80953214D02*
X85592380Y-81048452D01*
X85592380Y-81191309D01*
X85640000Y-81334166D01*
X85735238Y-81429404D01*
X85830476Y-81477023D01*
X86020952Y-81524642D01*
X86163809Y-81524642D01*
X86354285Y-81477023D01*
X86449523Y-81429404D01*
X86544761Y-81334166D01*
X86592380Y-81191309D01*
X86592380Y-81096071D01*
X86544761Y-80953214D01*
X86497142Y-80905595D01*
X86163809Y-80905595D01*
X86163809Y-81096071D01*
X86592380Y-80477023D02*
X85592380Y-80477023D01*
X86592380Y-79905595D01*
X85592380Y-79905595D01*
X86592380Y-79429404D02*
X85592380Y-79429404D01*
X85592380Y-79191309D01*
X85640000Y-79048452D01*
X85735238Y-78953214D01*
X85830476Y-78905595D01*
X86020952Y-78857976D01*
X86163809Y-78857976D01*
X86354285Y-78905595D01*
X86449523Y-78953214D01*
X86544761Y-79048452D01*
X86592380Y-79191309D01*
X86592380Y-79429404D01*
X121350000Y-100799166D02*
X121316666Y-100865833D01*
X121316666Y-100965833D01*
X121350000Y-101065833D01*
X121416666Y-101132500D01*
X121483333Y-101165833D01*
X121616666Y-101199166D01*
X121716666Y-101199166D01*
X121850000Y-101165833D01*
X121916666Y-101132500D01*
X121983333Y-101065833D01*
X122016666Y-100965833D01*
X122016666Y-100899166D01*
X121983333Y-100799166D01*
X121950000Y-100765833D01*
X121716666Y-100765833D01*
X121716666Y-100899166D01*
X122016666Y-100465833D02*
X121316666Y-100465833D01*
X121316666Y-100199166D01*
X121350000Y-100132500D01*
X121383333Y-100099166D01*
X121450000Y-100065833D01*
X121550000Y-100065833D01*
X121616666Y-100099166D01*
X121650000Y-100132500D01*
X121683333Y-100199166D01*
X121683333Y-100465833D01*
X122016666Y-99765833D02*
X121316666Y-99765833D01*
X121316666Y-99299166D02*
X121316666Y-99165833D01*
X121350000Y-99099166D01*
X121416666Y-99032500D01*
X121550000Y-98999166D01*
X121783333Y-98999166D01*
X121916666Y-99032500D01*
X121983333Y-99099166D01*
X122016666Y-99165833D01*
X122016666Y-99299166D01*
X121983333Y-99365833D01*
X121916666Y-99432500D01*
X121783333Y-99465833D01*
X121550000Y-99465833D01*
X121416666Y-99432500D01*
X121350000Y-99365833D01*
X121316666Y-99299166D01*
X122016666Y-98332500D02*
X122016666Y-98732500D01*
X122016666Y-98532500D02*
X121316666Y-98532500D01*
X121416666Y-98599166D01*
X121483333Y-98665833D01*
X121516666Y-98732500D01*
X121316666Y-98099166D02*
X121316666Y-97665833D01*
X121583333Y-97899166D01*
X121583333Y-97799166D01*
X121616666Y-97732500D01*
X121650000Y-97699166D01*
X121716666Y-97665833D01*
X121883333Y-97665833D01*
X121950000Y-97699166D01*
X121983333Y-97732500D01*
X122016666Y-97799166D01*
X122016666Y-97999166D01*
X121983333Y-98065833D01*
X121950000Y-98099166D01*
X121283333Y-96865833D02*
X122183333Y-97465833D01*
X122016666Y-96632500D02*
X121316666Y-96632500D01*
X121816666Y-96399166D01*
X121316666Y-96165833D01*
X122016666Y-96165833D01*
X121316666Y-95932500D02*
X121316666Y-95532500D01*
X122016666Y-95732500D02*
X121316666Y-95732500D01*
X121950000Y-94899166D02*
X121983333Y-94932500D01*
X122016666Y-95032500D01*
X122016666Y-95099166D01*
X121983333Y-95199166D01*
X121916666Y-95265833D01*
X121850000Y-95299166D01*
X121716666Y-95332500D01*
X121616666Y-95332500D01*
X121483333Y-95299166D01*
X121416666Y-95265833D01*
X121350000Y-95199166D01*
X121316666Y-95099166D01*
X121316666Y-95032500D01*
X121350000Y-94932500D01*
X121383333Y-94899166D01*
X122016666Y-94599166D02*
X121316666Y-94599166D01*
X122016666Y-94199166D02*
X121616666Y-94499166D01*
X121316666Y-94199166D02*
X121716666Y-94599166D01*
X90836666Y-101265833D02*
X91536666Y-101032500D01*
X90836666Y-100799166D01*
X91536666Y-100565833D02*
X90836666Y-100565833D01*
X90836666Y-100299166D01*
X90870000Y-100232500D01*
X90903333Y-100199166D01*
X90970000Y-100165833D01*
X91070000Y-100165833D01*
X91136666Y-100199166D01*
X91170000Y-100232500D01*
X91203333Y-100299166D01*
X91203333Y-100565833D01*
X90803333Y-99365833D02*
X91703333Y-99965833D01*
X90870000Y-98765833D02*
X90836666Y-98832500D01*
X90836666Y-98932500D01*
X90870000Y-99032500D01*
X90936666Y-99099166D01*
X91003333Y-99132500D01*
X91136666Y-99165833D01*
X91236666Y-99165833D01*
X91370000Y-99132500D01*
X91436666Y-99099166D01*
X91503333Y-99032500D01*
X91536666Y-98932500D01*
X91536666Y-98865833D01*
X91503333Y-98765833D01*
X91470000Y-98732500D01*
X91236666Y-98732500D01*
X91236666Y-98865833D01*
X91536666Y-98432500D02*
X90836666Y-98432500D01*
X90836666Y-98165833D01*
X90870000Y-98099166D01*
X90903333Y-98065833D01*
X90970000Y-98032500D01*
X91070000Y-98032500D01*
X91136666Y-98065833D01*
X91170000Y-98099166D01*
X91203333Y-98165833D01*
X91203333Y-98432500D01*
X91536666Y-97732500D02*
X90836666Y-97732500D01*
X90836666Y-97265833D02*
X90836666Y-97132500D01*
X90870000Y-97065833D01*
X90936666Y-96999166D01*
X91070000Y-96965833D01*
X91303333Y-96965833D01*
X91436666Y-96999166D01*
X91503333Y-97065833D01*
X91536666Y-97132500D01*
X91536666Y-97265833D01*
X91503333Y-97332500D01*
X91436666Y-97399166D01*
X91303333Y-97432500D01*
X91070000Y-97432500D01*
X90936666Y-97399166D01*
X90870000Y-97332500D01*
X90836666Y-97265833D01*
X90836666Y-96732500D02*
X90836666Y-96299166D01*
X91103333Y-96532500D01*
X91103333Y-96432500D01*
X91136666Y-96365833D01*
X91170000Y-96332500D01*
X91236666Y-96299166D01*
X91403333Y-96299166D01*
X91470000Y-96332500D01*
X91503333Y-96365833D01*
X91536666Y-96432500D01*
X91536666Y-96632500D01*
X91503333Y-96699166D01*
X91470000Y-96732500D01*
X90836666Y-95699166D02*
X90836666Y-95832500D01*
X90870000Y-95899166D01*
X90903333Y-95932500D01*
X91003333Y-95999166D01*
X91136666Y-96032500D01*
X91403333Y-96032500D01*
X91470000Y-95999166D01*
X91503333Y-95965833D01*
X91536666Y-95899166D01*
X91536666Y-95765833D01*
X91503333Y-95699166D01*
X91470000Y-95665833D01*
X91403333Y-95632500D01*
X91236666Y-95632500D01*
X91170000Y-95665833D01*
X91136666Y-95699166D01*
X91103333Y-95765833D01*
X91103333Y-95899166D01*
X91136666Y-95965833D01*
X91170000Y-95999166D01*
X91236666Y-96032500D01*
X108650000Y-100799166D02*
X108616666Y-100865833D01*
X108616666Y-100965833D01*
X108650000Y-101065833D01*
X108716666Y-101132500D01*
X108783333Y-101165833D01*
X108916666Y-101199166D01*
X109016666Y-101199166D01*
X109150000Y-101165833D01*
X109216666Y-101132500D01*
X109283333Y-101065833D01*
X109316666Y-100965833D01*
X109316666Y-100899166D01*
X109283333Y-100799166D01*
X109250000Y-100765833D01*
X109016666Y-100765833D01*
X109016666Y-100899166D01*
X109316666Y-100465833D02*
X108616666Y-100465833D01*
X108616666Y-100199166D01*
X108650000Y-100132500D01*
X108683333Y-100099166D01*
X108750000Y-100065833D01*
X108850000Y-100065833D01*
X108916666Y-100099166D01*
X108950000Y-100132500D01*
X108983333Y-100199166D01*
X108983333Y-100465833D01*
X109316666Y-99765833D02*
X108616666Y-99765833D01*
X108616666Y-99299166D02*
X108616666Y-99165833D01*
X108650000Y-99099166D01*
X108716666Y-99032500D01*
X108850000Y-98999166D01*
X109083333Y-98999166D01*
X109216666Y-99032500D01*
X109283333Y-99099166D01*
X109316666Y-99165833D01*
X109316666Y-99299166D01*
X109283333Y-99365833D01*
X109216666Y-99432500D01*
X109083333Y-99465833D01*
X108850000Y-99465833D01*
X108716666Y-99432500D01*
X108650000Y-99365833D01*
X108616666Y-99299166D01*
X108683333Y-98732500D02*
X108650000Y-98699166D01*
X108616666Y-98632500D01*
X108616666Y-98465833D01*
X108650000Y-98399166D01*
X108683333Y-98365833D01*
X108750000Y-98332500D01*
X108816666Y-98332500D01*
X108916666Y-98365833D01*
X109316666Y-98765833D01*
X109316666Y-98332500D01*
X108616666Y-97732500D02*
X108616666Y-97865833D01*
X108650000Y-97932500D01*
X108683333Y-97965833D01*
X108783333Y-98032500D01*
X108916666Y-98065833D01*
X109183333Y-98065833D01*
X109250000Y-98032500D01*
X109283333Y-97999166D01*
X109316666Y-97932500D01*
X109316666Y-97799166D01*
X109283333Y-97732500D01*
X109250000Y-97699166D01*
X109183333Y-97665833D01*
X109016666Y-97665833D01*
X108950000Y-97699166D01*
X108916666Y-97732500D01*
X108883333Y-97799166D01*
X108883333Y-97932500D01*
X108916666Y-97999166D01*
X108950000Y-98032500D01*
X109016666Y-98065833D01*
X116270000Y-100799166D02*
X116236666Y-100865833D01*
X116236666Y-100965833D01*
X116270000Y-101065833D01*
X116336666Y-101132500D01*
X116403333Y-101165833D01*
X116536666Y-101199166D01*
X116636666Y-101199166D01*
X116770000Y-101165833D01*
X116836666Y-101132500D01*
X116903333Y-101065833D01*
X116936666Y-100965833D01*
X116936666Y-100899166D01*
X116903333Y-100799166D01*
X116870000Y-100765833D01*
X116636666Y-100765833D01*
X116636666Y-100899166D01*
X116936666Y-100465833D02*
X116236666Y-100465833D01*
X116236666Y-100199166D01*
X116270000Y-100132500D01*
X116303333Y-100099166D01*
X116370000Y-100065833D01*
X116470000Y-100065833D01*
X116536666Y-100099166D01*
X116570000Y-100132500D01*
X116603333Y-100199166D01*
X116603333Y-100465833D01*
X116936666Y-99765833D02*
X116236666Y-99765833D01*
X116236666Y-99299166D02*
X116236666Y-99165833D01*
X116270000Y-99099166D01*
X116336666Y-99032500D01*
X116470000Y-98999166D01*
X116703333Y-98999166D01*
X116836666Y-99032500D01*
X116903333Y-99099166D01*
X116936666Y-99165833D01*
X116936666Y-99299166D01*
X116903333Y-99365833D01*
X116836666Y-99432500D01*
X116703333Y-99465833D01*
X116470000Y-99465833D01*
X116336666Y-99432500D01*
X116270000Y-99365833D01*
X116236666Y-99299166D01*
X116936666Y-98332500D02*
X116936666Y-98732500D01*
X116936666Y-98532500D02*
X116236666Y-98532500D01*
X116336666Y-98599166D01*
X116403333Y-98665833D01*
X116436666Y-98732500D01*
X116303333Y-98065833D02*
X116270000Y-98032500D01*
X116236666Y-97965833D01*
X116236666Y-97799166D01*
X116270000Y-97732500D01*
X116303333Y-97699166D01*
X116370000Y-97665833D01*
X116436666Y-97665833D01*
X116536666Y-97699166D01*
X116936666Y-98099166D01*
X116936666Y-97665833D01*
X116203333Y-96865833D02*
X117103333Y-97465833D01*
X116936666Y-96632500D02*
X116236666Y-96632500D01*
X116736666Y-96399166D01*
X116236666Y-96165833D01*
X116936666Y-96165833D01*
X116236666Y-95932500D02*
X116236666Y-95532500D01*
X116936666Y-95732500D02*
X116236666Y-95732500D01*
X116936666Y-95299166D02*
X116236666Y-95299166D01*
X116236666Y-95132500D01*
X116270000Y-95032500D01*
X116336666Y-94965833D01*
X116403333Y-94932500D01*
X116536666Y-94899166D01*
X116636666Y-94899166D01*
X116770000Y-94932500D01*
X116836666Y-94965833D01*
X116903333Y-95032500D01*
X116936666Y-95132500D01*
X116936666Y-95299166D01*
X116936666Y-94599166D02*
X116236666Y-94599166D01*
X111190000Y-100799166D02*
X111156666Y-100865833D01*
X111156666Y-100965833D01*
X111190000Y-101065833D01*
X111256666Y-101132500D01*
X111323333Y-101165833D01*
X111456666Y-101199166D01*
X111556666Y-101199166D01*
X111690000Y-101165833D01*
X111756666Y-101132500D01*
X111823333Y-101065833D01*
X111856666Y-100965833D01*
X111856666Y-100899166D01*
X111823333Y-100799166D01*
X111790000Y-100765833D01*
X111556666Y-100765833D01*
X111556666Y-100899166D01*
X111856666Y-100465833D02*
X111156666Y-100465833D01*
X111156666Y-100199166D01*
X111190000Y-100132500D01*
X111223333Y-100099166D01*
X111290000Y-100065833D01*
X111390000Y-100065833D01*
X111456666Y-100099166D01*
X111490000Y-100132500D01*
X111523333Y-100199166D01*
X111523333Y-100465833D01*
X111856666Y-99765833D02*
X111156666Y-99765833D01*
X111156666Y-99299166D02*
X111156666Y-99165833D01*
X111190000Y-99099166D01*
X111256666Y-99032500D01*
X111390000Y-98999166D01*
X111623333Y-98999166D01*
X111756666Y-99032500D01*
X111823333Y-99099166D01*
X111856666Y-99165833D01*
X111856666Y-99299166D01*
X111823333Y-99365833D01*
X111756666Y-99432500D01*
X111623333Y-99465833D01*
X111390000Y-99465833D01*
X111256666Y-99432500D01*
X111190000Y-99365833D01*
X111156666Y-99299166D01*
X111223333Y-98732500D02*
X111190000Y-98699166D01*
X111156666Y-98632500D01*
X111156666Y-98465833D01*
X111190000Y-98399166D01*
X111223333Y-98365833D01*
X111290000Y-98332500D01*
X111356666Y-98332500D01*
X111456666Y-98365833D01*
X111856666Y-98765833D01*
X111856666Y-98332500D01*
X111156666Y-98099166D02*
X111156666Y-97632500D01*
X111856666Y-97932500D01*
X98490000Y-100799166D02*
X98456666Y-100865833D01*
X98456666Y-100965833D01*
X98490000Y-101065833D01*
X98556666Y-101132500D01*
X98623333Y-101165833D01*
X98756666Y-101199166D01*
X98856666Y-101199166D01*
X98990000Y-101165833D01*
X99056666Y-101132500D01*
X99123333Y-101065833D01*
X99156666Y-100965833D01*
X99156666Y-100899166D01*
X99123333Y-100799166D01*
X99090000Y-100765833D01*
X98856666Y-100765833D01*
X98856666Y-100899166D01*
X99156666Y-100465833D02*
X98456666Y-100465833D01*
X98456666Y-100199166D01*
X98490000Y-100132500D01*
X98523333Y-100099166D01*
X98590000Y-100065833D01*
X98690000Y-100065833D01*
X98756666Y-100099166D01*
X98790000Y-100132500D01*
X98823333Y-100199166D01*
X98823333Y-100465833D01*
X99156666Y-99765833D02*
X98456666Y-99765833D01*
X98456666Y-99299166D02*
X98456666Y-99165833D01*
X98490000Y-99099166D01*
X98556666Y-99032500D01*
X98690000Y-98999166D01*
X98923333Y-98999166D01*
X99056666Y-99032500D01*
X99123333Y-99099166D01*
X99156666Y-99165833D01*
X99156666Y-99299166D01*
X99123333Y-99365833D01*
X99056666Y-99432500D01*
X98923333Y-99465833D01*
X98690000Y-99465833D01*
X98556666Y-99432500D01*
X98490000Y-99365833D01*
X98456666Y-99299166D01*
X98456666Y-98765833D02*
X98456666Y-98332500D01*
X98723333Y-98565833D01*
X98723333Y-98465833D01*
X98756666Y-98399166D01*
X98790000Y-98365833D01*
X98856666Y-98332500D01*
X99023333Y-98332500D01*
X99090000Y-98365833D01*
X99123333Y-98399166D01*
X99156666Y-98465833D01*
X99156666Y-98665833D01*
X99123333Y-98732500D01*
X99090000Y-98765833D01*
X98456666Y-97699166D02*
X98456666Y-98032500D01*
X98790000Y-98065833D01*
X98756666Y-98032500D01*
X98723333Y-97965833D01*
X98723333Y-97799166D01*
X98756666Y-97732500D01*
X98790000Y-97699166D01*
X98856666Y-97665833D01*
X99023333Y-97665833D01*
X99090000Y-97699166D01*
X99123333Y-97732500D01*
X99156666Y-97799166D01*
X99156666Y-97965833D01*
X99123333Y-98032500D01*
X99090000Y-98065833D01*
%TO.C,SELECT*%
X99523808Y-129421835D02*
X99666665Y-129469454D01*
X99904760Y-129469454D01*
X99999999Y-129421835D01*
X100047618Y-129374216D01*
X100095237Y-129278978D01*
X100095237Y-129183740D01*
X100047618Y-129088502D01*
X99999999Y-129040883D01*
X99904760Y-128993264D01*
X99714284Y-128945645D01*
X99619046Y-128898026D01*
X99571427Y-128850407D01*
X99523808Y-128755169D01*
X99523808Y-128659931D01*
X99571427Y-128564693D01*
X99619046Y-128517074D01*
X99714284Y-128469454D01*
X99952379Y-128469454D01*
X100095237Y-128517074D01*
X100523808Y-128945645D02*
X100857141Y-128945645D01*
X100999999Y-129469454D02*
X100523808Y-129469454D01*
X100523808Y-128469454D01*
X100999999Y-128469454D01*
X101904760Y-129469454D02*
X101428570Y-129469454D01*
X101428570Y-128469454D01*
X102238094Y-128945645D02*
X102571427Y-128945645D01*
X102714284Y-129469454D02*
X102238094Y-129469454D01*
X102238094Y-128469454D01*
X102714284Y-128469454D01*
X103714284Y-129374216D02*
X103666665Y-129421835D01*
X103523808Y-129469454D01*
X103428570Y-129469454D01*
X103285713Y-129421835D01*
X103190475Y-129326597D01*
X103142856Y-129231359D01*
X103095237Y-129040883D01*
X103095237Y-128898026D01*
X103142856Y-128707550D01*
X103190475Y-128612312D01*
X103285713Y-128517074D01*
X103428570Y-128469454D01*
X103523808Y-128469454D01*
X103666665Y-128517074D01*
X103714284Y-128564693D01*
X103999999Y-128469454D02*
X104571427Y-128469454D01*
X104285713Y-129469454D02*
X104285713Y-128469454D01*
%TO.C,BMI160*%
X104928571Y-51616666D02*
X104976190Y-51473809D01*
X105023809Y-51426190D01*
X105119047Y-51378571D01*
X105261904Y-51378571D01*
X105357142Y-51426190D01*
X105404761Y-51473809D01*
X105452380Y-51569047D01*
X105452380Y-51950000D01*
X104452380Y-51950000D01*
X104452380Y-51616666D01*
X104500000Y-51521428D01*
X104547619Y-51473809D01*
X104642857Y-51426190D01*
X104738095Y-51426190D01*
X104833333Y-51473809D01*
X104880952Y-51521428D01*
X104928571Y-51616666D01*
X104928571Y-51950000D01*
X105452380Y-50950000D02*
X104452380Y-50950000D01*
X105166666Y-50616666D01*
X104452380Y-50283333D01*
X105452380Y-50283333D01*
X105452380Y-49807142D02*
X104452380Y-49807142D01*
X105452380Y-48807142D02*
X105452380Y-49378571D01*
X105452380Y-49092857D02*
X104452380Y-49092857D01*
X104595238Y-49188095D01*
X104690476Y-49283333D01*
X104738095Y-49378571D01*
X104452380Y-47950000D02*
X104452380Y-48140476D01*
X104500000Y-48235714D01*
X104547619Y-48283333D01*
X104690476Y-48378571D01*
X104880952Y-48426190D01*
X105261904Y-48426190D01*
X105357142Y-48378571D01*
X105404761Y-48330952D01*
X105452380Y-48235714D01*
X105452380Y-48045238D01*
X105404761Y-47950000D01*
X105357142Y-47902380D01*
X105261904Y-47854761D01*
X105023809Y-47854761D01*
X104928571Y-47902380D01*
X104880952Y-47950000D01*
X104833333Y-48045238D01*
X104833333Y-48235714D01*
X104880952Y-48330952D01*
X104928571Y-48378571D01*
X105023809Y-48426190D01*
X104452380Y-47235714D02*
X104452380Y-47140476D01*
X104500000Y-47045238D01*
X104547619Y-46997619D01*
X104642857Y-46950000D01*
X104833333Y-46902380D01*
X105071428Y-46902380D01*
X105261904Y-46950000D01*
X105357142Y-46997619D01*
X105404761Y-47045238D01*
X105452380Y-47140476D01*
X105452380Y-47235714D01*
X105404761Y-47330952D01*
X105357142Y-47378571D01*
X105261904Y-47426190D01*
X105071428Y-47473809D01*
X104833333Y-47473809D01*
X104642857Y-47426190D01*
X104547619Y-47378571D01*
X104500000Y-47330952D01*
X104452380Y-47235714D01*
%TO.C,M3*%
X127190476Y-159652380D02*
X127190476Y-158652380D01*
X127523809Y-159366666D01*
X127857142Y-158652380D01*
X127857142Y-159652380D01*
X128238095Y-158652380D02*
X128857142Y-158652380D01*
X128523809Y-159033333D01*
X128666666Y-159033333D01*
X128761904Y-159080952D01*
X128809523Y-159128571D01*
X128857142Y-159223809D01*
X128857142Y-159461904D01*
X128809523Y-159557142D01*
X128761904Y-159604761D01*
X128666666Y-159652380D01*
X128380952Y-159652380D01*
X128285714Y-159604761D01*
X128238095Y-159557142D01*
%TO.C,UP*%
X61214285Y-130578380D02*
X61214285Y-131387904D01*
X61261904Y-131483142D01*
X61309523Y-131530761D01*
X61404761Y-131578380D01*
X61595238Y-131578380D01*
X61690476Y-131530761D01*
X61738095Y-131483142D01*
X61785714Y-131387904D01*
X61785714Y-130578380D01*
X62261904Y-131578380D02*
X62261904Y-130578380D01*
X62642857Y-130578380D01*
X62738095Y-130626000D01*
X62785714Y-130673619D01*
X62833333Y-130768857D01*
X62833333Y-130911714D01*
X62785714Y-131006952D01*
X62738095Y-131054571D01*
X62642857Y-131102190D01*
X62261904Y-131102190D01*
%TO.C,DOWN*%
X60119047Y-150578380D02*
X60119047Y-149578380D01*
X60357142Y-149578380D01*
X60500000Y-149626000D01*
X60595238Y-149721238D01*
X60642857Y-149816476D01*
X60690476Y-150006952D01*
X60690476Y-150149809D01*
X60642857Y-150340285D01*
X60595238Y-150435523D01*
X60500000Y-150530761D01*
X60357142Y-150578380D01*
X60119047Y-150578380D01*
X61309523Y-149578380D02*
X61500000Y-149578380D01*
X61595238Y-149626000D01*
X61690476Y-149721238D01*
X61738095Y-149911714D01*
X61738095Y-150245047D01*
X61690476Y-150435523D01*
X61595238Y-150530761D01*
X61500000Y-150578380D01*
X61309523Y-150578380D01*
X61214285Y-150530761D01*
X61119047Y-150435523D01*
X61071428Y-150245047D01*
X61071428Y-149911714D01*
X61119047Y-149721238D01*
X61214285Y-149626000D01*
X61309523Y-149578380D01*
X62071428Y-149578380D02*
X62309523Y-150578380D01*
X62500000Y-149864095D01*
X62690476Y-150578380D01*
X62928571Y-149578380D01*
X63309523Y-150578380D02*
X63309523Y-149578380D01*
X63880952Y-150578380D01*
X63880952Y-149578380D01*
%TO.C,RIGHT*%
X79666666Y-150578380D02*
X79333333Y-150102190D01*
X79095238Y-150578380D02*
X79095238Y-149578380D01*
X79476190Y-149578380D01*
X79571428Y-149626000D01*
X79619047Y-149673619D01*
X79666666Y-149768857D01*
X79666666Y-149911714D01*
X79619047Y-150006952D01*
X79571428Y-150054571D01*
X79476190Y-150102190D01*
X79095238Y-150102190D01*
X80095238Y-150578380D02*
X80095238Y-149578380D01*
X81095238Y-149626000D02*
X81000000Y-149578380D01*
X80857142Y-149578380D01*
X80714285Y-149626000D01*
X80619047Y-149721238D01*
X80571428Y-149816476D01*
X80523809Y-150006952D01*
X80523809Y-150149809D01*
X80571428Y-150340285D01*
X80619047Y-150435523D01*
X80714285Y-150530761D01*
X80857142Y-150578380D01*
X80952380Y-150578380D01*
X81095238Y-150530761D01*
X81142857Y-150483142D01*
X81142857Y-150149809D01*
X80952380Y-150149809D01*
X81571428Y-150578380D02*
X81571428Y-149578380D01*
X81571428Y-150054571D02*
X82142857Y-150054571D01*
X82142857Y-150578380D02*
X82142857Y-149578380D01*
X82476190Y-149578380D02*
X83047619Y-149578380D01*
X82761904Y-150578380D02*
X82761904Y-149578380D01*
%TO.C,C1*%
X82757142Y-111666666D02*
X82804761Y-111714285D01*
X82852380Y-111857142D01*
X82852380Y-111952380D01*
X82804761Y-112095238D01*
X82709523Y-112190476D01*
X82614285Y-112238095D01*
X82423809Y-112285714D01*
X82280952Y-112285714D01*
X82090476Y-112238095D01*
X81995238Y-112190476D01*
X81900000Y-112095238D01*
X81852380Y-111952380D01*
X81852380Y-111857142D01*
X81900000Y-111714285D01*
X81947619Y-111666666D01*
X82852380Y-110714285D02*
X82852380Y-111285714D01*
X82852380Y-111000000D02*
X81852380Y-111000000D01*
X81995238Y-111095238D01*
X82090476Y-111190476D01*
X82138095Y-111285714D01*
%TO.C,100k*%
X70452380Y-89071428D02*
X70452380Y-89642857D01*
X70452380Y-89357142D02*
X69452380Y-89357142D01*
X69595238Y-89452380D01*
X69690476Y-89547619D01*
X69738095Y-89642857D01*
X69452380Y-88452380D02*
X69452380Y-88357142D01*
X69500000Y-88261904D01*
X69547619Y-88214285D01*
X69642857Y-88166666D01*
X69833333Y-88119047D01*
X70071428Y-88119047D01*
X70261904Y-88166666D01*
X70357142Y-88214285D01*
X70404761Y-88261904D01*
X70452380Y-88357142D01*
X70452380Y-88452380D01*
X70404761Y-88547619D01*
X70357142Y-88595238D01*
X70261904Y-88642857D01*
X70071428Y-88690476D01*
X69833333Y-88690476D01*
X69642857Y-88642857D01*
X69547619Y-88595238D01*
X69500000Y-88547619D01*
X69452380Y-88452380D01*
X69452380Y-87500000D02*
X69452380Y-87404761D01*
X69500000Y-87309523D01*
X69547619Y-87261904D01*
X69642857Y-87214285D01*
X69833333Y-87166666D01*
X70071428Y-87166666D01*
X70261904Y-87214285D01*
X70357142Y-87261904D01*
X70404761Y-87309523D01*
X70452380Y-87404761D01*
X70452380Y-87500000D01*
X70404761Y-87595238D01*
X70357142Y-87642857D01*
X70261904Y-87690476D01*
X70071428Y-87738095D01*
X69833333Y-87738095D01*
X69642857Y-87690476D01*
X69547619Y-87642857D01*
X69500000Y-87595238D01*
X69452380Y-87500000D01*
X70452380Y-86738095D02*
X69452380Y-86738095D01*
X70071428Y-86642857D02*
X70452380Y-86357142D01*
X69785714Y-86357142D02*
X70166666Y-86738095D01*
%TO.C,VDD*%
X78452380Y-45333333D02*
X79452380Y-45000000D01*
X78452380Y-44666666D01*
X79452380Y-44333333D02*
X78452380Y-44333333D01*
X78452380Y-44095238D01*
X78500000Y-43952380D01*
X78595238Y-43857142D01*
X78690476Y-43809523D01*
X78880952Y-43761904D01*
X79023809Y-43761904D01*
X79214285Y-43809523D01*
X79309523Y-43857142D01*
X79404761Y-43952380D01*
X79452380Y-44095238D01*
X79452380Y-44333333D01*
X79452380Y-43333333D02*
X78452380Y-43333333D01*
X78452380Y-43095238D01*
X78500000Y-42952380D01*
X78595238Y-42857142D01*
X78690476Y-42809523D01*
X78880952Y-42761904D01*
X79023809Y-42761904D01*
X79214285Y-42809523D01*
X79309523Y-42857142D01*
X79404761Y-42952380D01*
X79452380Y-43095238D01*
X79452380Y-43333333D01*
X84629760Y-45306302D02*
X84677379Y-45163445D01*
X84677379Y-44925349D01*
X84629760Y-44830111D01*
X84582141Y-44782492D01*
X84486903Y-44734873D01*
X84391665Y-44734873D01*
X84296427Y-44782492D01*
X84248808Y-44830111D01*
X84201189Y-44925349D01*
X84153570Y-45115826D01*
X84105951Y-45211064D01*
X84058332Y-45258683D01*
X83963094Y-45306302D01*
X83867856Y-45306302D01*
X83772618Y-45258683D01*
X83724999Y-45211064D01*
X83677379Y-45115826D01*
X83677379Y-44877730D01*
X83724999Y-44734873D01*
X84582141Y-43734873D02*
X84629760Y-43782492D01*
X84677379Y-43925349D01*
X84677379Y-44020588D01*
X84629760Y-44163445D01*
X84534522Y-44258683D01*
X84439284Y-44306302D01*
X84248808Y-44353921D01*
X84105951Y-44353921D01*
X83915475Y-44306302D01*
X83820237Y-44258683D01*
X83724999Y-44163445D01*
X83677379Y-44020588D01*
X83677379Y-43925349D01*
X83724999Y-43782492D01*
X83772618Y-43734873D01*
X84677379Y-43306302D02*
X83677379Y-43306302D01*
X84677379Y-42734873D02*
X84105951Y-43163445D01*
X83677379Y-42734873D02*
X84248808Y-43306302D01*
X87144466Y-45274579D02*
X87192085Y-45131722D01*
X87192085Y-44893627D01*
X87144466Y-44798389D01*
X87096847Y-44750770D01*
X87001609Y-44703151D01*
X86906371Y-44703151D01*
X86811133Y-44750770D01*
X86763514Y-44798389D01*
X86715895Y-44893627D01*
X86668276Y-45084103D01*
X86620657Y-45179341D01*
X86573038Y-45226960D01*
X86477800Y-45274579D01*
X86382562Y-45274579D01*
X86287324Y-45226960D01*
X86239705Y-45179341D01*
X86192085Y-45084103D01*
X86192085Y-44846008D01*
X86239705Y-44703151D01*
X87192085Y-44274579D02*
X86192085Y-44274579D01*
X86192085Y-44036484D01*
X86239705Y-43893627D01*
X86334943Y-43798389D01*
X86430181Y-43750770D01*
X86620657Y-43703151D01*
X86763514Y-43703151D01*
X86953990Y-43750770D01*
X87049228Y-43798389D01*
X87144466Y-43893627D01*
X87192085Y-44036484D01*
X87192085Y-44274579D01*
X86906371Y-43322198D02*
X86906371Y-42846008D01*
X87192085Y-43417436D02*
X86192085Y-43084103D01*
X87192085Y-42750770D01*
X81183824Y-44822198D02*
X81136204Y-44917436D01*
X81136204Y-45060294D01*
X81183824Y-45203151D01*
X81279062Y-45298389D01*
X81374300Y-45346008D01*
X81564776Y-45393627D01*
X81707633Y-45393627D01*
X81898109Y-45346008D01*
X81993347Y-45298389D01*
X82088585Y-45203151D01*
X82136204Y-45060294D01*
X82136204Y-44965055D01*
X82088585Y-44822198D01*
X82040966Y-44774579D01*
X81707633Y-44774579D01*
X81707633Y-44965055D01*
X82136204Y-44346008D02*
X81136204Y-44346008D01*
X82136204Y-43774579D01*
X81136204Y-43774579D01*
X82136204Y-43298389D02*
X81136204Y-43298389D01*
X81136204Y-43060294D01*
X81183824Y-42917436D01*
X81279062Y-42822198D01*
X81374300Y-42774579D01*
X81564776Y-42726960D01*
X81707633Y-42726960D01*
X81898109Y-42774579D01*
X81993347Y-42822198D01*
X82088585Y-42917436D01*
X82136204Y-43060294D01*
X82136204Y-43298389D01*
%TO.C,M3*%
X128190476Y-46452380D02*
X128190476Y-45452380D01*
X128523809Y-46166666D01*
X128857142Y-45452380D01*
X128857142Y-46452380D01*
X129238095Y-45452380D02*
X129857142Y-45452380D01*
X129523809Y-45833333D01*
X129666666Y-45833333D01*
X129761904Y-45880952D01*
X129809523Y-45928571D01*
X129857142Y-46023809D01*
X129857142Y-46261904D01*
X129809523Y-46357142D01*
X129761904Y-46404761D01*
X129666666Y-46452380D01*
X129380952Y-46452380D01*
X129285714Y-46404761D01*
X129238095Y-46357142D01*
D11*
%TO.C,Expansion/Debug Header*%
X44145000Y-60345000D02*
X44145000Y-83265000D01*
X44145000Y-57745000D02*
X45475000Y-57745000D01*
X44145000Y-60345000D02*
X46745000Y-60345000D01*
X44145000Y-59075000D02*
X44145000Y-57745000D01*
X49345000Y-57745000D02*
X49345000Y-83265000D01*
X46745000Y-57745000D02*
X49345000Y-57745000D01*
X46745000Y-60345000D02*
X46745000Y-57745000D01*
X44145000Y-83265000D02*
X49345000Y-83265000D01*
%TO.C,B*%
X96475000Y-151095000D02*
X110445000Y-151095000D01*
X96475000Y-165065000D02*
X96475000Y-151095000D01*
X110445000Y-165065000D02*
X96475000Y-165065000D01*
X110445000Y-151095000D02*
X110445000Y-165065000D01*
%TO.C,START*%
X89821429Y-143882306D02*
X75851429Y-143882306D01*
X75851429Y-143882306D02*
X75851429Y-129912306D01*
X75851429Y-129912306D02*
X89821429Y-129912306D01*
X89821429Y-129912306D02*
X89821429Y-143882306D01*
%TO.C,AMS1117-3.3*%
X94910000Y-109090000D02*
X94910000Y-110350000D01*
X94910000Y-115910000D02*
X94910000Y-114650000D01*
X91150000Y-115910000D02*
X94910000Y-115910000D01*
X88900000Y-109090000D02*
X94910000Y-109090000D01*
%TO.C,74HC165N*%
X40160000Y-144110000D02*
X45460000Y-144110000D01*
X47950000Y-123610000D02*
X37670000Y-123610000D01*
X40160000Y-123670000D02*
X40160000Y-144110000D01*
X45460000Y-144110000D02*
X45460000Y-123670000D01*
X45460000Y-123670000D02*
X43810000Y-123670000D01*
X37670000Y-144170000D02*
X47950000Y-144170000D01*
X41810000Y-123670000D02*
X40160000Y-123670000D01*
X37670000Y-123610000D02*
X37670000Y-144170000D01*
X47950000Y-144170000D02*
X47950000Y-123610000D01*
X41810000Y-123670000D02*
G75*
G03*
X43810000Y-123670000I1000000J0D01*
G01*
%TO.C,LEFT*%
X36015000Y-164985000D02*
X36015000Y-151015000D01*
X49985000Y-151015000D02*
X49985000Y-164985000D01*
X36015000Y-151015000D02*
X49985000Y-151015000D01*
X49985000Y-164985000D02*
X36015000Y-164985000D01*
%TO.C,100k*%
X68370000Y-84730000D02*
X68370000Y-91270000D01*
X65630000Y-84730000D02*
X65630000Y-91270000D01*
X68370000Y-91270000D02*
X68040000Y-91270000D01*
X65630000Y-91270000D02*
X65960000Y-91270000D01*
X68040000Y-84730000D02*
X68370000Y-84730000D01*
X65960000Y-84730000D02*
X65630000Y-84730000D01*
%TO.C,A*%
X129985000Y-150065000D02*
X116015000Y-150065000D01*
X116015000Y-150065000D02*
X116015000Y-136095000D01*
X129985000Y-136095000D02*
X129985000Y-150065000D01*
X116015000Y-136095000D02*
X129985000Y-136095000D01*
%TO.C,BME280*%
X131330000Y-63350000D02*
X131330000Y-64680000D01*
X128670000Y-62080000D02*
X128670000Y-49320000D01*
X131330000Y-64680000D02*
X130000000Y-64680000D01*
X131330000Y-62080000D02*
X128670000Y-62080000D01*
X131330000Y-49320000D02*
X128670000Y-49320000D01*
X131330000Y-62080000D02*
X131330000Y-49320000D01*
%TO.C,C2*%
X80910000Y-112211252D02*
X80910000Y-110788748D01*
X79090000Y-112211252D02*
X79090000Y-110788748D01*
%TO.C,Beeper boy*%
X46300000Y-113000000D02*
G75*
G03*
X46300000Y-113000000I-6100000J0D01*
G01*
%TO.C,ESP32 Module*%
X85040000Y-75800000D02*
X85040000Y-104199999D01*
X85040000Y-104199999D02*
X132960000Y-104200000D01*
X132960000Y-104200000D02*
X132960000Y-75800001D01*
X132960000Y-75800001D02*
X85040000Y-75800000D01*
%TO.C,SELECT*%
X95014999Y-129906074D02*
X108984999Y-129906074D01*
X108984999Y-129906074D02*
X108984999Y-143876074D01*
X95014999Y-143876074D02*
X95014999Y-129906074D01*
X108984999Y-143876074D02*
X95014999Y-143876074D01*
%TO.C,BMI160*%
X114420000Y-64770000D02*
X117080000Y-64770000D01*
X114420000Y-49470000D02*
X114420000Y-64770000D01*
X114420000Y-49470000D02*
X117080000Y-49470000D01*
X117080000Y-49470000D02*
X117080000Y-64770000D01*
X114420000Y-46870000D02*
X115750000Y-46870000D01*
X114420000Y-48200000D02*
X114420000Y-46870000D01*
%TO.C,UP*%
X68985000Y-132015000D02*
X68985000Y-145985000D01*
X68985000Y-145985000D02*
X55015000Y-145985000D01*
X55015000Y-145985000D02*
X55015000Y-132015000D01*
X55015000Y-132015000D02*
X68985000Y-132015000D01*
%TO.C,DOWN*%
X55015000Y-164985000D02*
X55015000Y-151015000D01*
X55015000Y-151015000D02*
X68985000Y-151015000D01*
X68985000Y-151015000D02*
X68985000Y-164985000D01*
X68985000Y-164985000D02*
X55015000Y-164985000D01*
%TO.C,RIGHT*%
X87985000Y-164985000D02*
X74015000Y-164985000D01*
X74015000Y-164985000D02*
X74015000Y-151015000D01*
X87985000Y-151015000D02*
X87985000Y-164985000D01*
X74015000Y-151015000D02*
X87985000Y-151015000D01*
%TO.C,C1*%
X85160000Y-112211252D02*
X85160000Y-110788748D01*
X83340000Y-112211252D02*
X83340000Y-110788748D01*
%TO.C,100k*%
X74370000Y-84730000D02*
X74370000Y-91270000D01*
X71630000Y-84730000D02*
X71630000Y-91270000D01*
X71630000Y-91270000D02*
X71960000Y-91270000D01*
X74040000Y-84730000D02*
X74370000Y-84730000D01*
X74370000Y-91270000D02*
X74040000Y-91270000D01*
X71960000Y-84730000D02*
X71630000Y-84730000D01*
%TO.C,VDD*%
X80399191Y-39670000D02*
X88079191Y-39670000D01*
X77799191Y-42330000D02*
X77799191Y-41000000D01*
X80399191Y-42330000D02*
X88079191Y-42330000D01*
X88079191Y-42330000D02*
X88079191Y-39670000D01*
X79129191Y-42330000D02*
X77799191Y-42330000D01*
X80399191Y-42330000D02*
X80399191Y-39670000D01*
X65250000Y-73170000D02*
X100750000Y-73170000D01*
X100750000Y-73170000D02*
X100750000Y-39670000D01*
X100750000Y-39670000D02*
X65250000Y-39670000D01*
X65250000Y-39670000D02*
X65250000Y-73170000D01*
%TD*%
M02*
