M48
; DRILL file {KiCad (6.0.4)} date Tue May  2 15:22:47 2023
; FORMAT={-:-/ absolute / metric / decimal}
; #@! TF.CreationDate,2023-05-02T15:22:47-04:00
; #@! TF.GenerationSoftware,Kicad,Pcbnew,(6.0.4)
; #@! TF.FileFunction,Plated,1,2,PTH
FMAT,2
METRIC
; #@! TA.AperFunction,Plated,PTH,ViaDrill
T1C0.400
; #@! TA.AperFunction,Plated,PTH,ComponentDrill
T2C0.750
; #@! TA.AperFunction,Plated,PTH,ComponentDrill
T3C0.800
; #@! TA.AperFunction,Plated,PTH,ComponentDrill
T4C0.900
; #@! TA.AperFunction,Plated,PTH,ComponentDrill
T5C1.000
; #@! TA.AperFunction,Plated,PTH,ComponentDrill
T6C1.100
; #@! TA.AperFunction,Plated,PTH,ComponentDrill
T7C1.500
; #@! TA.AperFunction,Plated,PTH,ComponentDrill
T8C1.540
; #@! TA.AperFunction,Plated,PTH,ComponentDrill
T9C2.000
; #@! TA.AperFunction,Plated,PTH,ComponentDrill
T10C3.200
%
G90
G05
T1
X36.75Y-126.5
X41.75Y-126.75
X50.0Y-93.5
X62.75Y-108.25
X76.75Y-111.75
X85.25Y-85.0
X85.5Y-61.25
X86.75Y-85.0
X86.849Y-60.325
X87.75Y-86.0
X88.75Y-87.0
X89.5Y-81.75
X89.75Y-87.75
X91.25Y-88.988
X91.25Y-91.0
X91.25Y-92.0
X91.262Y-89.988
X96.75Y-119.75
X97.5Y-99.0
X98.75Y-122.5
X101.5Y-119.75
X104.0Y-119.75
X111.5Y-83.25
X112.75Y-91.5
T2
X48.46Y-49.0
X49.73Y-47.73
X51.0Y-49.0
T3
X35.19Y-49.0
X35.19Y-54.5
X39.0Y-125.0
X39.0Y-127.54
X39.0Y-130.08
X39.0Y-132.62
X39.0Y-135.16
X39.0Y-137.7
X39.0Y-140.24
X39.0Y-142.78
X42.81Y-49.0
X42.81Y-54.5
X46.62Y-125.0
X46.62Y-127.54
X46.62Y-130.08
X46.62Y-132.62
X46.62Y-135.16
X46.62Y-137.7
X46.62Y-140.24
X46.62Y-142.78
X52.486Y-153.88
X52.486Y-161.5
X58.006Y-148.412
X65.626Y-148.412
X67.0Y-84.19
X67.0Y-91.81
X71.494Y-153.901
X71.494Y-161.521
X73.0Y-84.19
X73.0Y-91.81
X73.484Y-133.63
X73.484Y-141.25
X86.14Y-77.3
X86.14Y-102.7
X88.68Y-77.3
X88.68Y-102.7
X90.541Y-153.871
X90.541Y-161.491
X91.22Y-77.3
X91.22Y-102.7
X92.481Y-133.68
X92.481Y-141.3
X93.76Y-77.3
X93.76Y-102.7
X96.3Y-77.3
X96.3Y-102.7
X98.84Y-77.3
X98.84Y-102.7
X101.38Y-77.3
X101.38Y-102.7
X103.92Y-77.3
X103.92Y-102.7
X106.46Y-77.3
X106.46Y-102.7
X109.0Y-77.3
X109.0Y-102.7
X111.54Y-77.3
X111.54Y-102.7
X113.069Y-153.97
X113.069Y-161.59
X113.566Y-139.548
X113.566Y-147.168
X114.08Y-77.3
X114.08Y-102.7
X116.62Y-77.3
X116.62Y-102.7
X119.16Y-77.3
X119.16Y-102.7
X121.7Y-77.3
X121.7Y-102.7
X124.24Y-77.3
X124.24Y-102.7
X126.78Y-77.3
X126.78Y-102.7
X129.317Y-77.304
X129.32Y-102.7
X131.857Y-77.304
X131.86Y-102.7
T4
X42.46Y-42.0
X45.0Y-42.0
X47.54Y-42.0
X57.725Y-48.475
X60.265Y-48.475
T5
X36.4Y-113.0
X44.0Y-113.0
X45.475Y-59.075
X45.475Y-61.615
X45.475Y-64.155
X45.475Y-66.695
X45.475Y-69.235
X45.475Y-71.775
X45.475Y-74.315
X45.475Y-76.855
X45.475Y-79.395
X45.475Y-81.935
X48.015Y-59.075
X48.015Y-61.615
X48.015Y-64.155
X48.015Y-66.695
X48.015Y-69.235
X48.015Y-71.775
X48.015Y-74.315
X48.015Y-76.855
X48.015Y-79.395
X48.015Y-81.935
X73.5Y-54.695
X73.5Y-57.235
X73.5Y-59.775
X79.129Y-41.0
X79.485Y-100.25
X81.669Y-41.0
X82.025Y-100.25
X84.209Y-41.0
X86.749Y-41.0
X105.385Y-72.0
X107.925Y-72.0
X110.465Y-72.0
X113.005Y-72.0
X115.545Y-72.0
X115.75Y-48.2
X115.75Y-50.74
X115.75Y-53.28
X115.75Y-55.82
X115.75Y-58.36
X115.75Y-60.9
X115.75Y-63.44
X118.085Y-72.0
X120.625Y-72.0
X130.0Y-50.65
X130.0Y-53.19
X130.0Y-55.73
X130.0Y-58.27
X130.0Y-60.81
X130.0Y-63.35
T6
X66.94Y-97.75
X66.94Y-102.75
X74.56Y-97.75
X74.56Y-102.75
T7
X39.19Y-155.46
X45.54Y-152.92
X58.19Y-136.46
X58.19Y-155.46
X64.54Y-133.92
X64.54Y-152.92
X77.19Y-155.46
X79.026Y-134.357
X83.54Y-152.92
X85.376Y-131.817
X98.19Y-134.351
X99.65Y-155.54
X104.54Y-131.811
X106.0Y-153.0
X119.19Y-140.54
X125.54Y-138.0
T8
X35.7Y-88.1
X35.7Y-102.3
X58.6Y-87.8
X58.6Y-91.2
X58.6Y-98.8
X58.6Y-102.3
T9
X56.0Y-116.0
X128.0Y-116.0
T10
X37.0Y-42.0
X128.0Y-163.0
X129.0Y-42.0
T0
M30
