%TF.GenerationSoftware,KiCad,Pcbnew,(6.0.4)*%
%TF.CreationDate,2023-05-02T15:22:56-04:00*%
%TF.ProjectId,Tomogatchi PCB,546f6d6f-6761-4746-9368-69205043422e,rev?*%
%TF.SameCoordinates,Original*%
%TF.FileFunction,Soldermask,Top*%
%TF.FilePolarity,Negative*%
%FSLAX46Y46*%
G04 Gerber Fmt 4.6, Leading zero omitted, Abs format (unit mm)*
G04 Created by KiCad (PCBNEW (6.0.4)) date 2023-05-02 15:22:56*
%MOMM*%
%LPD*%
G01*
G04 APERTURE LIST*
G04 Aperture macros list*
%AMRoundRect*
0 Rectangle with rounded corners*
0 $1 Rounding radius*
0 $2 $3 $4 $5 $6 $7 $8 $9 X,Y pos of 4 corners*
0 Add a 4 corners polygon primitive as box body*
4,1,4,$2,$3,$4,$5,$6,$7,$8,$9,$2,$3,0*
0 Add four circle primitives for the rounded corners*
1,1,$1+$1,$2,$3*
1,1,$1+$1,$4,$5*
1,1,$1+$1,$6,$7*
1,1,$1+$1,$8,$9*
0 Add four rect primitives between the rounded corners*
20,1,$1+$1,$2,$3,$4,$5,0*
20,1,$1+$1,$4,$5,$6,$7,0*
20,1,$1+$1,$6,$7,$8,$9,0*
20,1,$1+$1,$8,$9,$2,$3,0*%
G04 Aperture macros list end*
%ADD10R,1.700000X1.700000*%
%ADD11O,1.700000X1.700000*%
%ADD12C,1.700000*%
%ADD13C,4.000000*%
%ADD14C,2.200000*%
%ADD15R,2.000000X1.500000*%
%ADD16R,2.000000X3.800000*%
%ADD17R,1.600000X1.600000*%
%ADD18O,1.600000X1.600000*%
%ADD19C,1.600000*%
%ADD20RoundRect,0.250000X0.650000X-0.412500X0.650000X0.412500X-0.650000X0.412500X-0.650000X-0.412500X0*%
%ADD21C,5.600000*%
%ADD22R,2.000000X2.000000*%
%ADD23C,2.000000*%
%ADD24R,1.200000X2.000000*%
%ADD25O,1.200000X2.000000*%
%ADD26R,2.200000X2.200000*%
%ADD27O,2.200000X2.200000*%
%ADD28R,1.800000X1.800000*%
%ADD29C,1.800000*%
%ADD30R,2.800000X2.800000*%
%ADD31RoundRect,0.250200X-0.649800X-0.649800X0.649800X-0.649800X0.649800X0.649800X-0.649800X0.649800X0*%
%ADD32C,3.200000*%
%ADD33R,3.500000X3.500000*%
%ADD34C,3.500000*%
%ADD35R,1.300000X1.300000*%
%ADD36C,1.300000*%
G04 APERTURE END LIST*
D10*
%TO.C,Expansion/Debug Header*%
X45475000Y-59075000D03*
D11*
X48015000Y-59075000D03*
X45475000Y-61615000D03*
X48015000Y-61615000D03*
X45475000Y-64155000D03*
X48015000Y-64155000D03*
X45475000Y-66695000D03*
X48015000Y-66695000D03*
X45475000Y-69235000D03*
X48015000Y-69235000D03*
X45475000Y-71775000D03*
X48015000Y-71775000D03*
X45475000Y-74315000D03*
X48015000Y-74315000D03*
X45475000Y-76855000D03*
X48015000Y-76855000D03*
X45475000Y-79395000D03*
X48015000Y-79395000D03*
X45475000Y-81935000D03*
X48015000Y-81935000D03*
%TD*%
D12*
%TO.C,B*%
X108540000Y-158080000D03*
D13*
X103460000Y-158080000D03*
D12*
X98380000Y-158080000D03*
D14*
X106000000Y-153000000D03*
X99650000Y-155540000D03*
%TD*%
D12*
%TO.C,START*%
X77756429Y-136897306D03*
D13*
X82836429Y-136897306D03*
D12*
X87916429Y-136897306D03*
D14*
X85376429Y-131817306D03*
X79026429Y-134357306D03*
%TD*%
D15*
%TO.C,AMS1117-3.3*%
X89850000Y-110200000D03*
X89850000Y-112500000D03*
X89850000Y-114800000D03*
D16*
X96150000Y-112500000D03*
%TD*%
D17*
%TO.C,74HC165N*%
X39000000Y-125000000D03*
D18*
X39000000Y-127540000D03*
X39000000Y-130080000D03*
X39000000Y-132620000D03*
X39000000Y-135160000D03*
X39000000Y-137700000D03*
X39000000Y-140240000D03*
X39000000Y-142780000D03*
X46620000Y-142780000D03*
X46620000Y-140240000D03*
X46620000Y-137700000D03*
X46620000Y-135160000D03*
X46620000Y-132620000D03*
X46620000Y-130080000D03*
X46620000Y-127540000D03*
X46620000Y-125000000D03*
%TD*%
D12*
%TO.C,LEFT*%
X37920000Y-158000000D03*
D13*
X43000000Y-158000000D03*
D12*
X48080000Y-158000000D03*
D14*
X45540000Y-152920000D03*
X39190000Y-155460000D03*
%TD*%
D19*
%TO.C,100k*%
X67000000Y-84190000D03*
D18*
X67000000Y-91810000D03*
%TD*%
D13*
%TO.C,A*%
X123000000Y-143080000D03*
D12*
X117920000Y-143080000D03*
X128080000Y-143080000D03*
D14*
X125540000Y-138000000D03*
X119190000Y-140540000D03*
%TD*%
D10*
%TO.C,BME280*%
X130000000Y-63350000D03*
D11*
X130000000Y-60810000D03*
X130000000Y-58270000D03*
X130000000Y-55730000D03*
X130000000Y-53190000D03*
X130000000Y-50650000D03*
%TD*%
D20*
%TO.C,C2*%
X80000000Y-113062500D03*
X80000000Y-109937500D03*
%TD*%
D21*
%TO.C,M3*%
X37000000Y-42000000D03*
%TD*%
D22*
%TO.C,Beeper boy*%
X36400000Y-113000000D03*
D23*
X44000000Y-113000000D03*
%TD*%
D24*
%TO.C,ESP32 Module*%
X86140000Y-102700000D03*
D25*
X88680000Y-102700000D03*
X91220000Y-102700000D03*
X93760000Y-102700000D03*
X96300000Y-102700000D03*
X98840000Y-102700000D03*
X101380000Y-102700000D03*
X103920000Y-102700000D03*
X106460000Y-102700000D03*
X109000000Y-102700000D03*
X111540000Y-102700000D03*
X114080000Y-102700000D03*
X116620000Y-102700000D03*
X119160000Y-102700000D03*
X121700000Y-102700000D03*
X124240000Y-102700000D03*
X126780000Y-102700000D03*
X129320000Y-102700000D03*
X131860000Y-102700000D03*
X131857280Y-77303680D03*
X129317280Y-77303680D03*
X126780000Y-77300000D03*
X124240000Y-77300000D03*
X121700000Y-77300000D03*
X119160000Y-77300000D03*
X116620000Y-77300000D03*
X114080000Y-77300000D03*
X111540000Y-77300000D03*
X109000000Y-77300000D03*
X106460000Y-77300000D03*
X103920000Y-77300000D03*
X101380000Y-77300000D03*
X98840000Y-77300000D03*
X96300000Y-77300000D03*
X93760000Y-77300000D03*
X91220000Y-77300000D03*
X88680000Y-77300000D03*
X86140000Y-77300000D03*
%TD*%
D13*
%TO.C,SELECT*%
X101999999Y-136891074D03*
D12*
X96919999Y-136891074D03*
X107079999Y-136891074D03*
D14*
X104539999Y-131811074D03*
X98189999Y-134351074D03*
%TD*%
D10*
%TO.C,BMI160*%
X115750000Y-48200000D03*
D11*
X115750000Y-50740000D03*
X115750000Y-53280000D03*
X115750000Y-55820000D03*
X115750000Y-58360000D03*
X115750000Y-60900000D03*
X115750000Y-63440000D03*
%TD*%
D21*
%TO.C,M3*%
X128000000Y-163000000D03*
%TD*%
D12*
%TO.C,UP*%
X67080000Y-139000000D03*
D13*
X62000000Y-139000000D03*
D12*
X56920000Y-139000000D03*
D14*
X64540000Y-133920000D03*
X58190000Y-136460000D03*
%TD*%
D12*
%TO.C,DOWN*%
X56920000Y-158000000D03*
D13*
X62000000Y-158000000D03*
D12*
X67080000Y-158000000D03*
D14*
X64540000Y-152920000D03*
X58190000Y-155460000D03*
%TD*%
D13*
%TO.C,RIGHT*%
X81000000Y-158000000D03*
D12*
X75920000Y-158000000D03*
X86080000Y-158000000D03*
D14*
X83540000Y-152920000D03*
X77190000Y-155460000D03*
%TD*%
D20*
%TO.C,C1*%
X84250000Y-113062500D03*
X84250000Y-109937500D03*
%TD*%
D19*
%TO.C,100k*%
X73000000Y-84190000D03*
D18*
X73000000Y-91810000D03*
%TD*%
D10*
%TO.C,VDD*%
X79129191Y-41000000D03*
D11*
X81669191Y-41000000D03*
X84209191Y-41000000D03*
X86749191Y-41000000D03*
%TD*%
D21*
%TO.C,M3*%
X129000000Y-42000000D03*
%TD*%
D19*
%TO.C,10k*%
X71494367Y-161521169D03*
D18*
X71494367Y-153901169D03*
%TD*%
D19*
%TO.C,100k*%
X42810000Y-54500000D03*
D18*
X35190000Y-54500000D03*
%TD*%
D26*
%TO.C,N5817*%
X74560000Y-97750000D03*
D27*
X66940000Y-97750000D03*
%TD*%
D28*
%TO.C,IR LED*%
X57725000Y-48475000D03*
D29*
X60265000Y-48475000D03*
%TD*%
D19*
%TO.C,10k*%
X90541161Y-161490689D03*
D18*
X90541161Y-153870689D03*
%TD*%
D19*
%TO.C,10k*%
X113566396Y-147168297D03*
D18*
X113566396Y-139548297D03*
%TD*%
D26*
%TO.C,N5817*%
X74560000Y-102750000D03*
D27*
X66940000Y-102750000D03*
%TD*%
D19*
%TO.C,10k*%
X52485843Y-161500237D03*
D18*
X52485843Y-153880237D03*
%TD*%
D19*
%TO.C,10k*%
X65626165Y-148411560D03*
D18*
X58006165Y-148411560D03*
%TD*%
D30*
%TO.C,USB Battery Charger*%
X35700000Y-88100000D03*
X58600000Y-102300000D03*
X58600000Y-87800000D03*
X58600000Y-98800000D03*
X58600000Y-91200000D03*
X35700000Y-102300000D03*
%TD*%
D31*
%TO.C,IR Receiver*%
X42460000Y-42000000D03*
D29*
X45000000Y-42000000D03*
X47540000Y-42000000D03*
%TD*%
D19*
%TO.C,10k*%
X73483589Y-141250363D03*
D18*
X73483589Y-133630363D03*
%TD*%
D19*
%TO.C,10k*%
X42810000Y-49000000D03*
D18*
X35190000Y-49000000D03*
%TD*%
D19*
%TO.C,10k*%
X92480651Y-141300094D03*
D18*
X92480651Y-133680094D03*
%TD*%
D10*
%TO.C,E220-900T22D*%
X105385000Y-72000000D03*
D11*
X107925000Y-72000000D03*
X110465000Y-72000000D03*
X113005000Y-72000000D03*
X115545000Y-72000000D03*
X118085000Y-72000000D03*
X120625000Y-72000000D03*
%TD*%
D19*
%TO.C,10k*%
X113069091Y-161590150D03*
D18*
X113069091Y-153970150D03*
%TD*%
D32*
%TO.C,18650 Holder*%
X119355000Y-116000000D03*
X63745000Y-116000000D03*
D33*
X128000000Y-116000000D03*
D34*
X56000000Y-116000000D03*
%TD*%
D35*
%TO.C,LED Transistor*%
X51000000Y-49000000D03*
D36*
X49730000Y-47730000D03*
X48460000Y-49000000D03*
%TD*%
D10*
%TO.C,Microphone Module*%
X73500000Y-59775000D03*
D11*
X73500000Y-57235000D03*
X73500000Y-54695000D03*
%TD*%
D10*
%TO.C,On/Off Switch*%
X82025000Y-100250000D03*
D11*
X79485000Y-100250000D03*
%TD*%
M02*
